<svg width="171" height="38" viewBox="0 0 171 38" fill="none" xmlns="http://www.w3.org/2000/svg">
<path fill-rule="evenodd" clip-rule="evenodd" d="M72.9125 18.4076C73.9426 18.0085 74.8264 17.3039 75.4455 16.3881C76.0647 15.4723 76.3897 14.3889 76.377 13.2831C76.377 8.67107 73.1093 6.38477 68.6212 6.38477H56.8496V31.4632H69.6448C73.5818 31.4632 77.44 28.7038 77.44 24.486C77.44 19.4719 72.9125 18.4549 72.9125 18.4076ZM62.9913 11.5881H67.5582C67.8506 11.5699 68.1438 11.6097 68.4208 11.7051C68.6979 11.8005 68.9534 11.9497 69.1728 12.1441C69.3923 12.3386 69.5712 12.5744 69.6995 12.8382C69.8278 13.1019 69.9028 13.3884 69.9204 13.6812C69.9204 13.7706 69.9204 13.8613 69.9204 13.9532C69.908 14.5698 69.6527 15.1564 69.2103 15.5854C68.7678 16.0143 68.174 16.2509 67.5582 16.2435H62.9519L62.9913 11.5881ZM67.5976 26.2126H63.0307V21.2852H67.4794C69.7235 21.2852 70.7865 22.2707 70.7865 23.7292C70.7865 25.5503 69.4479 26.2126 67.5976 26.2126Z" fill="black"/>
<path fill-rule="evenodd" clip-rule="evenodd" d="M90.9823 5.75391C83.7383 5.75391 79.4863 11.5485 79.4863 18.8805C79.4863 26.2124 83.7383 32.007 90.9823 32.007C98.2263 32.007 102.478 26.2518 102.478 18.8805C102.478 11.5091 98.2657 5.75391 90.9823 5.75391ZM90.9823 26.0153C87.439 26.0153 85.6674 22.8224 85.6674 18.8805C85.6674 14.9386 87.439 11.785 90.9823 11.785C94.5256 11.785 96.3366 14.978 96.3366 18.8805C96.3366 22.8618 94.5256 26.0153 90.9823 26.0153Z" fill="black"/>
<path fill-rule="evenodd" clip-rule="evenodd" d="M115.826 16.2397L114.96 16.0426C112.834 15.609 111.141 15.0572 111.141 13.5198C111.141 11.8642 112.755 11.1941 114.172 11.1941C115.139 11.2085 116.093 11.4225 116.974 11.8227C117.854 12.2228 118.643 12.8006 119.291 13.5198L123.188 9.65675C121.417 7.64638 118.543 5.71484 114.054 5.71484C108.779 5.71484 104.763 8.67127 104.763 13.5987C104.763 18.0924 107.991 20.2999 111.928 21.1277L112.795 21.3248C116.062 21.9949 117.283 22.5074 117.283 24.0841C117.283 25.5821 115.944 26.5675 113.897 26.5675C111.456 26.5675 109.251 25.5032 107.558 23.3352L103.582 27.2771C105.787 29.9182 108.582 31.9679 113.976 31.9679C118.661 31.9679 123.661 29.2875 123.661 23.8082C123.739 18.0924 119.409 16.9887 115.826 16.2397Z" fill="black"/>
<path fill-rule="evenodd" clip-rule="evenodd" d="M137.675 26.015C134.919 26.015 132.045 23.7286 132.045 18.7224C132.045 14.2681 134.722 11.7847 137.517 11.7847C139.722 11.7847 141.021 12.8096 142.045 14.5834L147.084 11.2328C144.565 7.40915 141.572 5.79297 137.439 5.79297C129.88 5.79297 125.785 11.6664 125.785 18.7618C125.785 26.2121 130.313 32.0461 137.36 32.0461C142.32 32.0461 144.683 30.3116 147.242 26.6062L142.163 23.1847C141.139 24.8324 140.037 26.015 137.675 26.015Z" fill="black"/>
<path fill-rule="evenodd" clip-rule="evenodd" d="M163.896 6.38477V15.6088H156.297V6.38477H149.723V31.4553H156.297V21.5611H163.896V31.4553H170.471V6.38477H163.896Z" fill="black"/>
<path d="M18.9762 0C15.2231 0 11.5542 1.11433 8.43361 3.20208C5.31298 5.28982 2.88075 8.25722 1.44449 11.729C0.00822209 15.2008 -0.36757 19.0211 0.364631 22.7067C1.09683 26.3923 2.90414 29.7778 5.55802 32.435C8.21189 35.0922 11.5931 36.9018 15.2742 37.6349C18.9552 38.368 22.7707 37.9918 26.2381 36.5537C29.7056 35.1156 32.6693 32.6804 34.7544 29.5558C36.8395 26.4313 37.9525 22.7578 37.9525 19C37.9525 13.9609 35.9532 9.12816 32.3945 5.56497C28.8357 2.00178 24.009 0 18.9762 0ZM18.9762 36.2261C15.5735 36.2261 12.2472 35.2158 9.41788 33.323C6.5886 31.4302 4.38344 28.7398 3.08127 25.5922C1.77909 22.4445 1.43839 18.9809 2.10223 15.6393C2.76607 12.2978 4.40465 9.2284 6.81075 6.81928C9.21686 4.41016 12.2824 2.76953 15.6198 2.10485C18.9572 1.44018 22.4164 1.78131 25.5601 3.08512C28.7039 4.38893 31.3909 6.59684 33.2813 9.42967C35.1718 12.2625 36.1808 15.593 36.1808 19C36.1798 23.5683 34.3668 27.9493 31.1406 31.1796C27.9143 34.4099 23.5389 36.2251 18.9762 36.2261Z" fill="black"/>
<path d="M26.8118 7.13477H25.5126V13.6389H12.4812V7.13477H11.1426C9.18205 8.4298 7.57301 10.1917 6.45972 12.2624C5.34643 14.3332 4.76367 16.6482 4.76367 18.9999C4.76367 21.3516 5.34643 23.6666 6.45972 25.7374C7.57301 27.8082 9.18205 29.57 11.1426 30.8651H12.4812V24.3688H25.5126V30.8729H26.8118C28.7732 29.5785 30.3831 27.8169 31.497 25.746C32.6109 23.6752 33.194 21.3599 33.194 19.0078C33.194 16.6557 32.6109 14.3404 31.497 12.2695C30.3831 10.1987 28.7732 8.43706 26.8118 7.14265V7.13477ZM10.6702 28.3107C9.44919 27.2244 8.45385 25.908 7.741 24.4366C7.02816 22.9651 6.61177 21.3675 6.51562 19.735C6.41947 18.1024 6.64544 16.4669 7.18063 14.9217C7.71581 13.3766 8.54973 11.9522 9.63476 10.7298C9.95998 10.3661 10.3057 10.0212 10.6702 9.69701V28.3107ZM25.5126 22.5555H12.4812V15.4128H25.5126V22.5555ZM27.2842 28.2713V24.3294V13.6389V9.69701C28.5022 10.7921 29.4928 12.1167 30.1993 13.5953C30.9058 15.0738 31.3145 16.6772 31.4018 18.3139C31.4892 19.9506 31.2537 21.5886 30.7086 23.1341C30.1635 24.6796 29.3196 26.1024 28.2252 27.3213C27.9275 27.6509 27.6134 27.9653 27.2842 28.2634V28.2713Z" fill="black"/>
</svg>
