<svg width="166" height="32" viewBox="0 0 166 32" fill="none" xmlns="http://www.w3.org/2000/svg">
<path d="M157.201 26.7549C157.201 24.3153 159.173 22.3359 161.601 22.3359C164.03 22.3359 165.999 24.3153 165.999 26.7549C165.999 29.1945 164.03 31.1726 161.601 31.1726C159.173 31.1726 157.201 29.1945 157.201 26.7549Z" fill="#86BC24"/>
<path d="M16.8861 15.0505C16.8861 12.2516 16.3477 10.1751 15.2707 8.8223C14.1923 7.47078 12.5589 6.79565 10.3629 6.79565H8.02683V23.9115H9.8141C12.2533 23.9115 14.0408 23.1852 15.1789 21.7276C16.3157 20.2725 16.8861 18.0463 16.8861 15.0505ZM25.217 14.759C25.217 19.8582 23.8523 23.7874 21.1228 26.5454C18.3934 29.3047 14.5564 30.6844 9.61046 30.6844H0V0.128906H10.2813C15.0502 0.128906 18.7319 1.38323 21.3265 3.89063C23.9198 6.39931 25.217 10.0204 25.217 14.759Z" fill="#0F0B0B"/>
<path d="M51.8379 30.6853H59.4853V0.00195312H51.8379V30.6853Z" fill="#0F0B0B"/>
<path d="M70.2286 19.2396C70.2286 21.1959 70.4832 22.688 70.9912 23.7135C71.5005 24.7402 72.3533 25.253 73.5526 25.253C74.7391 25.253 75.578 24.7402 76.0669 23.7135C76.5557 22.688 76.7989 21.1959 76.7989 19.2396C76.7989 17.2935 76.5519 15.8256 76.0567 14.8347C75.5602 13.8412 74.7137 13.3438 73.5133 13.3438C72.3395 13.3438 71.5005 13.8387 70.9912 14.8232C70.4832 15.809 70.2286 17.2807 70.2286 19.2396ZM84.5825 19.2396C84.5825 22.9668 83.6098 25.8744 81.6594 27.9586C79.7104 30.044 76.9822 31.0874 73.475 31.0874C70.1115 31.0874 67.4341 30.021 65.4469 27.8882C63.4571 25.7555 62.4629 22.8735 62.4629 19.2396C62.4629 15.5239 63.4369 12.6367 65.3872 10.5781C67.3375 8.51952 70.072 7.49023 73.5933 7.49023C75.7691 7.49023 77.694 7.96719 79.3617 8.91977C81.0306 9.87235 82.3191 11.2367 83.2242 13.014C84.1306 14.7887 84.5825 16.8652 84.5825 19.2396Z" fill="#0F0B0B"/>
<path d="M87.6191 30.6842H95.2678V18.9413V7.89258H87.6191V30.6842Z" fill="#0F0B0B"/>
<path d="M87.6191 5.13626H95.2678V0H87.6191V5.13626Z" fill="#0F0B0B"/>
<path d="M110.764 24.8717C111.796 24.8717 113.026 24.6083 114.461 24.0854V29.82C113.429 30.2752 112.449 30.6012 111.517 30.7943C110.585 30.9899 109.492 31.0871 108.24 31.0871C105.673 31.0871 103.821 30.4389 102.685 29.1449C101.553 27.8509 100.985 25.8639 100.985 23.1826V13.7872H98.3066V7.89529H100.985V2.07495L108.692 0.728516V7.89529H113.572V13.7872H108.692V22.6584C108.692 24.1339 109.384 24.8717 110.764 24.8717Z" fill="#0F0B0B"/>
<path d="M128.466 24.8717C129.499 24.8717 130.728 24.6083 132.163 24.0854V29.82C131.133 30.2752 130.152 30.6012 129.22 30.7943C128.287 30.9899 127.197 31.0871 125.943 31.0871C123.375 31.0871 121.524 30.4389 120.39 29.1449C119.255 27.8509 118.688 25.8639 118.688 23.1826V13.7872H116.008V7.89529H118.688V1.98673L126.394 0.728516V7.89529H131.276V13.7872H126.394V22.6584C126.394 24.1339 127.085 24.8717 128.466 24.8717Z" fill="#0F0B0B"/>
<path d="M141.813 16.4643C141.917 15.2164 142.272 14.3022 142.878 13.7178C143.487 13.1348 144.238 12.8433 145.137 12.8433C146.117 12.8433 146.896 13.1706 147.474 13.8303C148.056 14.4863 148.359 15.3647 148.383 16.4643H141.813ZM152.598 10.1786C150.78 8.38854 148.201 7.49219 144.864 7.49219C141.357 7.49219 138.658 8.52147 136.766 10.5801C134.876 12.6387 133.93 15.5924 133.93 19.441C133.93 23.1682 134.952 26.0426 136.992 28.0603C139.032 30.0779 141.898 31.0881 145.589 31.0881C147.361 31.0881 148.886 30.9666 150.164 30.725C151.435 30.4859 152.664 30.0536 153.857 29.4297L152.682 24.2934C151.815 24.6489 150.99 24.9225 150.211 25.1028C149.086 25.3649 147.851 25.4966 146.507 25.4966C145.032 25.4966 143.869 25.1347 143.016 24.411C142.163 23.686 141.708 22.6862 141.656 21.4127H155.326V17.913C155.326 14.5464 154.417 11.9674 152.598 10.1786Z" fill="#0F0B0B"/>
<path d="M35.3672 16.4643C35.4716 15.2164 35.8268 14.3022 36.4327 13.7178C37.04 13.1348 37.7925 12.8433 38.6926 12.8433C39.6704 12.8433 40.4494 13.1706 41.0287 13.8303C41.6104 14.4863 41.9122 15.3647 41.939 16.4643H35.3672ZM46.154 10.1786C44.3349 8.38854 41.7568 7.49219 38.4189 7.49219C34.9102 7.49219 32.2125 8.52147 30.3219 10.5801C28.4315 12.6387 27.4844 15.5924 27.4844 19.441C27.4844 23.1682 28.5054 26.0426 30.5475 28.0603C32.5869 30.0779 35.4525 31.0881 39.1432 31.0881C40.9153 31.0881 42.4404 30.9666 43.7185 30.725C44.9891 30.4859 46.219 30.0536 47.4132 29.4297L46.2368 24.2934C45.3698 24.6489 44.5448 24.9225 43.767 25.1028C42.6391 25.3649 41.4054 25.4966 40.0609 25.4966C38.5881 25.4966 37.4234 25.1347 36.5704 24.411C35.7162 23.686 35.263 22.6862 35.2108 21.4127H48.881V17.913C48.881 14.5464 47.972 11.9674 46.154 10.1786Z" fill="#0F0B0B"/>
</svg>
