<svg width="113" height="34" viewBox="0 0 113 34" fill="none" xmlns="http://www.w3.org/2000/svg">
<path d="M101.688 0.000889074C95.5059 0.000889074 90.4904 5.15857 90.4904 11.5207C90.4904 17.8847 95.505 23.0432 101.688 23.0432C107.87 23.0432 112.882 17.8847 112.882 11.5198C112.882 5.15946 107.869 0 101.688 0M101.688 17.6044C98.5122 17.6044 95.9311 14.8753 95.9311 11.5198C95.9311 8.16885 98.5122 5.43967 101.688 5.43967C104.863 5.43967 107.444 8.16885 107.444 11.5207C107.444 14.8744 104.862 17.6044 101.688 17.6044ZM16.061 9.21943L22.9604 22.4784C23.1223 22.7897 23.543 23.045 23.8943 23.045H24.5054C24.8585 23.045 25.2347 22.7719 25.3414 22.4374L32.0763 1.55496C32.2399 1.05146 31.9402 0.638708 31.4119 0.638708H27.292C26.9398 0.638708 26.5644 0.91447 26.4559 1.24895L23.052 11.8027L17.2057 0.567542C17.0438 0.256195 16.6213 0.00177815 16.27 0.00177815H15.8529C15.4998 0.00177815 15.079 0.256195 14.9172 0.566652L9.07176 11.8018L5.66787 1.24895C5.55847 0.91358 5.18312 0.639597 4.83179 0.639597H0.709231C0.181792 0.639597 -0.11795 1.05146 0.0439283 1.55496L6.77878 22.4374C6.88729 22.7719 7.26441 23.045 7.61485 23.045H8.22857C8.57901 23.045 9.0006 22.7888 9.16248 22.4784L16.061 9.21943ZM42.0149 21.4394C42.0149 21.694 41.9138 21.9382 41.7339 22.1184C41.5539 22.2985 41.3098 22.3998 41.0552 22.4001H36.8962C36.6417 22.3996 36.3978 22.2982 36.2181 22.1181C36.0383 21.9379 35.9373 21.6938 35.9373 21.4394V1.59321C35.9373 1.06481 36.3669 0.632478 36.8962 0.632478H41.0552C41.3098 0.632714 41.5539 0.73404 41.7339 0.914185C41.9138 1.09433 42.0149 1.33856 42.0149 1.59321V21.4394ZM59.2256 0.000889074C56.3643 0.000889074 53.7715 1.24361 51.8699 3.26114V3.25847L51.129 1.24094C51.0089 0.911799 50.6202 0.638708 50.2689 0.638708H48.3504C47.8203 0.638708 47.3916 1.07014 47.3916 1.59943V32.9654C47.3916 33.4974 47.8203 33.9261 48.3504 33.9261H52.5094C53.0386 33.9261 53.4682 33.4974 53.4682 32.9654V22.0861C55.32 22.7265 57.2663 23.0504 59.2256 23.0441C65.0559 23.0441 69.7797 17.8847 69.7797 11.5207C69.7797 5.16035 65.0559 0.000889074 59.2256 0.000889074M58.096 17.6053C56.3571 17.6053 54.7553 17.1472 53.4682 16.3742V8.14039C54.4671 6.51338 56.165 5.44056 58.0951 5.44056C61.1726 5.44056 63.6648 8.1644 63.6648 11.5216C63.6648 14.8806 61.1726 17.6044 58.0951 17.6044M85.1226 0.000889074C81.1236 0.000889074 78.804 3.25847 78.804 3.25847L78.064 1.24094C77.9421 0.910909 77.5552 0.638708 77.2039 0.638708H75.2862C74.7561 0.638708 74.3256 1.07014 74.3256 1.59943V21.4456C74.3256 21.9749 74.7561 22.4063 75.2862 22.4063H79.4435C79.698 22.4058 79.9418 22.3044 80.1216 22.1243C80.3013 21.9442 80.4023 21.7001 80.4023 21.4456V7.55061C82.8287 4.60527 85.9213 5.61403 86.5537 5.85777C87.1852 6.10062 87.6557 5.80173 87.8407 5.38096C88.0257 4.96287 88.9347 2.90353 89.2727 2.14206C89.6054 1.3806 89.1215 0.000889074 85.1226 0.000889074" fill="black"/>
</svg>
