<svg width="90" height="37" viewBox="0 0 90 37" fill="none" xmlns="http://www.w3.org/2000/svg">
<g clip-path="url(#clip0_457_2929)">
<path d="M0 34.4238H17.499V36.991H0V34.4238Z" fill="black"/>
<path d="M0 29.5H17.499V32.0762H0V29.5Z" fill="black"/>
<path d="M4.99219 24.584H12.4981V27.1603H4.99219V24.584Z" fill="black"/>
<path d="M4.99219 19.6699H12.4981V22.2462H4.99219V19.6699Z" fill="black"/>
<path d="M4.99219 14.7539H12.4981V17.3302H4.99219V14.7539Z" fill="black"/>
<path d="M4.99219 9.83008H12.4981V12.4064H4.99219V9.83008Z" fill="black"/>
<path d="M17.499 4.91406H0V7.49037H17.499V4.91406Z" fill="black"/>
<path d="M17.499 0H0V2.57631H17.499V0Z" fill="black"/>
<path d="M19.9951 32.0763H46.9077C47.3623 31.2815 47.7011 30.4136 47.9062 29.5H19.9951V32.0763Z" fill="black"/>
<path d="M44.8128 19.6699H24.9961V22.2462H46.9078C46.3372 21.2595 45.6329 20.3917 44.8128 19.6699Z" fill="black"/>
<path d="M24.9961 14.7539V17.3302H44.8128C45.6508 16.6085 46.355 15.7405 46.9078 14.7539H24.9961Z" fill="black"/>
<path d="M46.9078 4.91406H19.9951V7.49037H47.9062C47.6744 6.57678 47.3357 5.70894 46.9078 4.91406Z" fill="black"/>
<path d="M38.6352 0H19.9951V2.57631H45.0625C43.3866 0.986638 41.1134 0 38.6352 0Z" fill="black"/>
<path d="M32.4931 9.83008H24.9961V12.4064H32.4931V9.83008Z" fill="black"/>
<path d="M39.999 12.4064H47.8437C48.0665 11.5842 48.1825 10.7163 48.1825 9.83008H39.999V12.4064Z" fill="black"/>
<path d="M24.9961 24.584H32.4931V27.1603H24.9961V24.584Z" fill="black"/>
<path d="M39.999 24.584V27.1603H48.1825C48.1825 26.2741 48.0665 25.4063 47.8437 24.584H39.999Z" fill="black"/>
<path d="M19.9951 36.9727L38.6352 37.0001C41.1313 37.0001 43.3866 36.0135 45.0714 34.4238H19.9951V36.9727Z" fill="black"/>
<path d="M50.001 34.4238H62.4989V36.991H50.001V34.4238Z" fill="black"/>
<path d="M50.001 29.5H62.4989V32.0762H50.001V29.5Z" fill="black"/>
<path d="M54.9932 24.584H62.4991V27.1603H54.9932V24.584Z" fill="black"/>
<path d="M54.9932 19.6699H62.4991V22.2462H54.9932V19.6699Z" fill="black"/>
<path d="M65.9756 4.91406H50.001V7.49037H66.8402L65.9756 4.91406Z" fill="black"/>
<path d="M64.3175 0H50.001V2.57631H65.1822L64.3175 0Z" fill="black"/>
<path d="M77.4932 34.4238H90.0001V36.991H77.4932V34.4238Z" fill="black"/>
<path d="M77.4932 29.5H90.0001V32.0762H77.4932V29.5Z" fill="black"/>
<path d="M77.4932 24.584H84.9991V27.1603H77.4932V24.584Z" fill="black"/>
<path d="M77.4932 19.6699H84.9991V22.2462H77.4932V19.6699Z" fill="black"/>
<path d="M77.4932 17.3302H84.9991V14.7539H77.4932H70.7004L69.9962 16.8369L69.2919 14.7539H62.4991H54.9932V17.3302H62.4991V14.964L63.2925 17.3302H76.6998L77.4932 14.964V17.3302Z" fill="black"/>
<path d="M84.9985 9.83008H72.3579L71.4932 12.4064H84.9985V9.83008Z" fill="black"/>
<path d="M75.6831 0L74.8184 2.57631H89.9997V0H75.6831Z" fill="black"/>
<path d="M69.9956 36.9727L70.8602 34.4238H69.1309L69.9956 36.9727Z" fill="black"/>
<path d="M68.3376 32.0762H71.6538L72.5452 29.5H67.4551L68.3376 32.0762Z" fill="black"/>
<path d="M66.6531 27.1603H73.3389L74.2214 24.584H65.7705L66.6531 27.1603Z" fill="black"/>
<path d="M64.977 22.2462H75.0235L75.8794 19.6699H64.1123L64.977 22.2462Z" fill="black"/>
<path d="M54.9932 12.4064H68.4985L67.6338 9.83008H54.9932V12.4064Z" fill="black"/>
<path d="M73.1602 7.49037H89.9995V4.91406H74.016L73.1602 7.49037Z" fill="black"/>
</g>
<defs>
<clipPath id="clip0_457_2929">
<rect width="90" height="37" fill="white"/>
</clipPath>
</defs>
</svg>
