<svg width="13" height="14" viewBox="0 0 13 14" fill="none" xmlns="http://www.w3.org/2000/svg">
<g opacity="0.77">
<path d="M3.73332 0.622219V1.24444H0.622219C0.27858 1.24444 0 1.52302 0 1.86666V2.48888C0 2.83252 0.27858 3.1111 0.622219 3.1111H11.8222C12.1658 3.1111 12.4444 2.83252 12.4444 2.48888V1.86666C12.4444 1.52302 12.1658 1.24444 11.8222 1.24444H8.71107V0.622219C8.71107 0.278577 8.4325 0 8.08885 0H4.35554C4.0119 0 3.73332 0.278577 3.73332 0.622219Z" fill="black"/>
<path d="M1.19629 4.35547H11.2474L10.6611 12.2711C10.5888 13.2459 9.77694 13.9999 8.7995 13.9999H3.64419C2.66676 13.9999 1.85483 13.2459 1.78263 12.2711L1.19629 4.35547Z" fill="black"/>
</g>
</svg>
