<svg width="17" height="18" viewBox="0 0 17 18" fill="none" xmlns="http://www.w3.org/2000/svg">
<path opacity="0.8" d="M9.96849 1.75014L11.4643 4.75483C11.6683 5.1731 12.2122 5.5743 12.6712 5.65112L15.3824 6.10353C17.1162 6.39376 17.5242 7.6571 16.2748 8.90337L14.167 11.0203C13.8101 11.3788 13.6146 12.0702 13.7251 12.5653L14.3285 15.1859C14.8045 17.2602 13.7081 18.0626 11.8808 16.9785L9.33956 15.4676C8.88061 15.1945 8.1242 15.1945 7.65675 15.4676L5.11553 16.9785C3.29673 18.0626 2.19185 17.2516 2.6678 15.1859L3.27123 12.5653C3.38172 12.0702 3.18624 11.3788 2.82928 11.0203L0.721513 8.90337C-0.51935 7.6571 -0.119894 6.39376 1.61391 6.10353L4.32511 5.65112C4.77557 5.5743 5.31951 5.1731 5.52348 4.75483L7.01932 1.75014C7.83523 0.119746 9.16108 0.119746 9.96849 1.75014Z" fill="black"/>
</svg>
