<svg width="15" height="14" viewBox="0 0 15 14" fill="none" xmlns="http://www.w3.org/2000/svg">
<path opacity="0.8" d="M8.79573 1.01092L10.1156 3.49501C10.2956 3.84081 10.7755 4.17249 11.1805 4.236L13.5727 4.61003C15.1025 4.84997 15.4625 5.89441 14.3601 6.92475L12.5003 8.6749C12.1854 8.9713 12.0129 9.54292 12.1104 9.95223L12.6428 12.1187C13.0628 13.8336 12.0954 14.497 10.483 13.6007L8.24079 12.3516C7.83583 12.1258 7.16841 12.1258 6.75595 12.3516L4.5137 13.6007C2.90888 14.497 1.93399 13.8266 2.35394 12.1187L2.88638 9.95223C2.98387 9.54292 2.81139 8.9713 2.49642 8.6749L0.636629 6.92475C-0.45825 5.89441 -0.105789 4.84997 1.42404 4.61003L3.81628 4.236C4.21373 4.17249 4.69368 3.84081 4.87366 3.49501L6.19352 1.01092C6.91344 -0.336975 8.08331 -0.336975 8.79573 1.01092Z" fill="black"/>
</svg>
