<svg width="29" height="29" viewBox="0 0 29 29" fill="none" xmlns="http://www.w3.org/2000/svg">
<rect width="29" height="29" rx="14.5" fill="white"/>
<path d="M11.23 20H15.355C17.71 20 19.03 18.995 19.03 17V16.94C19.03 15.515 18.34 14.72 16.885 14.405C18.1 14.03 18.58 13.19 18.58 12.125V12.065C18.58 10.115 17.275 9.275 15.07 9.275H11.23V20ZM13.18 18.575V15.14H14.98C16.45 15.14 17.065 15.695 17.065 16.805V16.865C17.065 17.975 16.45 18.575 15.115 18.575H13.18ZM13.18 13.79V10.7H14.8C16.075 10.7 16.66 11.135 16.66 12.155V12.215C16.66 13.31 16.15 13.79 14.83 13.79H13.18Z" fill="#15297B"/>
</svg>
