<svg width="121" height="51" viewBox="0 0 121 51" fill="none" xmlns="http://www.w3.org/2000/svg">
<path d="M109.101 0L100.316 18.7077H118.32L109.101 0Z" fill="#F7931E"/>
<path d="M9.27033 34.0291C8.72332 34.073 8.17866 33.9198 7.73552 33.5974C7.55719 33.4167 7.42049 33.1995 7.33493 32.9608C7.24936 32.7222 7.21698 32.4679 7.24003 32.2155V16.5424C6.97577 16.567 6.64733 16.6143 6.25469 16.6844C5.83791 16.7603 5.42612 16.8613 5.02161 16.9869C4.5835 17.1215 4.15316 17.2801 3.73254 17.4618C3.32632 17.6339 2.93991 17.8491 2.58002 18.1037C2.25831 18.329 1.97708 18.6067 1.74816 18.9252C1.53636 19.2202 1.42357 19.5743 1.4259 19.9369C1.41741 20.1517 1.45347 20.366 1.53184 20.5663C1.5859 20.6996 1.66837 20.8196 1.77354 20.9181C1.8525 20.99 1.94837 21.0409 2.05231 21.0661C2.1194 21.0827 2.18791 21.0931 2.25695 21.097C2.4323 21.1038 2.60668 21.0678 2.76492 20.9923C2.88985 20.9268 3.00993 20.8526 3.12425 20.7701C3.23168 20.692 3.33292 20.6179 3.42799 20.5478C3.52293 20.478 3.63829 20.4412 3.7563 20.4431C3.86499 20.4451 3.97226 20.4682 4.07213 20.5109C4.18956 20.5602 4.29514 20.6338 4.38191 20.7267C4.48618 20.8401 4.56816 20.972 4.62361 21.1154C4.6944 21.3026 4.72806 21.5016 4.72271 21.7015C4.73053 21.9969 4.6645 22.2895 4.53055 22.5531C4.40854 22.7845 4.23985 22.9883 4.03507 23.1517C3.82883 23.3141 3.5932 23.4355 3.34098 23.5095C3.08995 23.5862 2.82892 23.6257 2.56633 23.6266C2.19879 23.6322 1.83401 23.5628 1.49438 23.4228C1.18714 23.2946 0.910541 23.1032 0.682663 22.8612C0.457509 22.6192 0.284619 22.3337 0.174686 22.0224C0.0576295 21.6937 -0.00111989 21.3471 0.00106351 20.9983C-0.0196121 20.1 0.261686 19.2205 0.800291 18.4996C1.38376 17.7551 2.13246 17.1552 2.98769 16.747C4.01055 16.2507 5.09985 15.9036 6.22206 15.7165C7.52709 15.4879 8.85006 15.3764 10.1751 15.3831C10.8443 15.3831 11.4969 15.3893 12.1329 15.4016C12.7688 15.4139 13.3492 15.4323 13.8739 15.4569C14.3984 15.4815 14.8507 15.5103 15.2307 15.5432C15.5096 15.5619 15.7869 15.5991 16.0609 15.6543C16.2043 15.6854 16.3394 15.7463 16.4573 15.8332C16.5505 15.9041 16.6267 15.9946 16.6805 16.0983C16.7301 16.1973 16.7636 16.3034 16.7796 16.4128C16.7963 16.5252 16.8046 16.6386 16.8046 16.7522C16.8028 16.858 16.7904 16.9634 16.7675 17.0667C16.7435 17.1837 16.706 17.2976 16.6559 17.4061C16.6107 17.5068 16.5478 17.5988 16.4702 17.6776C16.4348 17.7137 16.3923 17.7422 16.3454 17.7613C16.2985 17.7804 16.2482 17.7898 16.1975 17.7888C16.1212 17.7848 16.0488 17.7542 15.9929 17.7025C15.9228 17.645 15.8257 17.5751 15.7016 17.4927C15.5398 17.3888 15.3722 17.294 15.1997 17.2087C14.9339 17.0818 14.6557 16.9826 14.3694 16.9127C13.9529 16.8076 13.5309 16.7253 13.1053 16.666C12.5033 16.5834 11.8972 16.5339 11.2897 16.5179V32.2151C11.3128 32.4675 11.2804 32.7218 11.1948 32.9604C11.1093 33.1991 10.9726 33.4163 10.7943 33.597C10.3549 33.9188 9.81394 34.0722 9.27033 34.0291V34.0291ZM21.1419 27.4395C21.1477 27.3514 21.1328 27.2631 21.0984 27.1817C21.064 27.1003 21.011 27.028 20.9437 26.9705C20.7986 26.8593 20.6187 26.8025 20.4357 26.8101C20.1491 26.8094 19.8665 26.8771 19.6115 27.0075C19.3417 27.1472 19.1067 27.3454 18.9239 27.5875C18.7103 27.8713 18.5501 28.1912 18.451 28.5318C18.3286 28.9547 18.2701 29.3934 18.2773 29.8335C18.2698 30.231 18.305 30.6281 18.3825 31.0181C18.4335 31.2815 18.53 31.5341 18.6677 31.7646C18.7667 31.9305 18.9106 32.0652 19.083 32.1533C19.2377 32.2269 19.4071 32.2648 19.5785 32.2644C19.7923 32.2647 20.0021 32.2072 20.1856 32.098C20.3753 31.9871 20.5431 31.8429 20.6811 31.6724C20.8226 31.4978 20.9356 31.302 21.0158 31.0923C21.0967 30.8878 21.1388 30.6702 21.1399 30.4505L21.1419 27.4395ZM19.1712 22.0349C18.9077 22.0326 18.6451 22.0658 18.3905 22.1336C18.1745 22.1899 17.9664 22.2727 17.771 22.3803C17.6161 22.4639 17.4776 22.5747 17.3621 22.7072C17.2743 22.7996 17.2217 22.9196 17.2135 23.0466C17.2126 23.1054 17.2308 23.163 17.2655 23.2108C17.3001 23.2586 17.3492 23.294 17.4056 23.3117C17.5337 23.3652 17.6762 23.4268 17.833 23.4966C17.9925 23.5683 18.1374 23.6687 18.2604 23.7927C18.3299 23.8728 18.3827 23.9659 18.4156 24.0665C18.4486 24.1671 18.4612 24.2733 18.4526 24.3788C18.4545 24.543 18.4185 24.7055 18.3474 24.8537C18.2771 24.9978 18.1804 25.1276 18.0622 25.2364C17.9399 25.349 17.7968 25.437 17.6409 25.4955C17.4808 25.5571 17.3106 25.5885 17.1389 25.5882C16.929 25.5961 16.7198 25.5582 16.5261 25.4772C16.3324 25.3962 16.1588 25.274 16.0174 25.1193C15.7208 24.7733 15.5682 24.3276 15.5908 23.8733C15.5782 23.4119 15.7174 22.959 15.9872 22.5836C16.2621 22.2166 16.6157 21.9152 17.0221 21.7011C17.4755 21.4607 17.962 21.2881 18.4659 21.1889C18.9958 21.0785 19.5358 21.0228 20.0772 21.0224C20.6988 21.0198 21.3184 21.0902 21.9234 21.2322C22.4782 21.3583 23.0053 21.5841 23.4788 21.8985C23.9234 22.1969 24.2924 22.594 24.5568 23.0586C24.8385 23.5813 24.9774 24.1685 24.9596 24.7614V31.7333C24.9596 31.8074 24.9638 31.8896 24.9721 31.98C24.9786 32.0652 24.9991 32.1487 25.0329 32.2271C25.0655 32.3006 25.1168 32.3643 25.1816 32.4121C25.2661 32.4667 25.3662 32.4927 25.4668 32.4863C25.6212 32.4842 25.7693 32.4248 25.8821 32.3198C26.0038 32.2151 26.1177 32.1016 26.2229 31.9804L26.5327 32.2396C26.4089 32.4123 26.2602 32.6015 26.0867 32.8072C25.9001 33.025 25.6879 33.2197 25.4547 33.3872C25.1877 33.5784 24.8956 33.7322 24.5866 33.8441C24.2248 33.9728 23.8427 34.0354 23.4586 34.0291C22.957 34.0352 22.468 33.8722 22.0713 33.5666C21.637 33.2071 21.354 32.6985 21.2781 32.1413C21.0387 32.468 20.7621 32.7661 20.4539 33.0294C20.1862 33.2564 19.8925 33.4511 19.5789 33.6095C19.294 33.7531 18.9922 33.8609 18.6806 33.9304C18.3814 33.9959 18.0761 34.029 17.7698 34.0291C17.3785 34.0298 16.9897 33.9673 16.6185 33.8441C16.248 33.7215 15.908 33.5217 15.621 33.2581C15.3113 32.9665 15.0701 32.6104 14.9149 32.2151C14.7244 31.7149 14.634 31.1825 14.6486 30.6478C14.6217 30.0056 14.7762 29.3686 15.0945 28.8094C15.3943 28.3297 15.7935 27.9194 16.2656 27.606C16.7802 27.2645 17.3333 26.9845 17.9136 26.7716C18.5291 26.5413 19.159 26.2986 19.8033 26.0435C20.2394 25.8896 20.6091 25.5912 20.8507 25.1983C21.0622 24.8501 21.1756 24.4515 21.179 24.0446C21.1918 23.7774 21.1507 23.5103 21.0581 23.2592C20.9656 23.008 20.8234 22.7779 20.64 22.5824C20.4462 22.3953 20.2158 22.2501 19.963 22.1559C19.7103 22.0617 19.4407 22.0205 19.1712 22.0349ZM35.4909 27.6866C35.5036 26.8552 35.456 26.024 35.3483 25.1995C35.2901 24.7111 35.1629 24.2333 34.9705 23.7802C34.8668 23.5184 34.6852 23.2945 34.45 23.1384C34.2721 23.0388 34.0717 22.9856 33.8675 22.984C33.64 22.9804 33.4171 23.0472 33.2294 23.1753C33.0486 23.2982 32.8859 23.4456 32.746 23.6134C32.6167 23.7679 32.5007 23.9329 32.3992 24.1068C32.3276 24.2358 32.2468 24.3595 32.1575 24.477V32.7209C32.1543 32.8519 32.1374 32.9822 32.1071 33.1097C32.068 33.273 31.9843 33.4225 31.8654 33.5417C31.704 33.6981 31.5091 33.8162 31.2954 33.8871C30.9618 33.9937 30.6122 34.0417 30.2621 34.0291C29.9106 34.0429 29.5597 33.9907 29.2276 33.875C29.0118 33.7955 28.8154 33.6714 28.6512 33.5108C28.5308 33.3918 28.4452 33.2425 28.4034 33.0788C28.3745 32.9615 28.3579 32.8416 28.3539 32.7209V23.1946C28.3591 22.9753 28.3011 22.7591 28.1867 22.5716C28.1251 22.4812 28.0403 22.409 27.9411 22.3623C27.8419 22.3157 27.732 22.2964 27.6227 22.3064C27.4988 22.303 27.3758 22.3284 27.2634 22.3807C27.1492 22.4397 27.0413 22.51 26.9411 22.5905L26.6809 22.282C26.8846 22.1157 27.0976 21.9611 27.319 21.8191C27.5608 21.6635 27.8159 21.5292 28.0812 21.4179C28.3659 21.2988 28.6602 21.2037 28.961 21.1339C29.286 21.0586 29.6187 21.0213 29.9523 21.0228C30.3858 20.9993 30.8177 21.0908 31.204 21.2879C31.4749 21.4389 31.7013 21.658 31.8606 21.9234C31.9978 22.1603 32.0844 22.4229 32.1148 22.6948C32.141 22.9181 32.1555 23.1426 32.1583 23.3675C32.4584 22.9378 32.8077 22.5445 33.1992 22.1953C33.365 22.0399 33.5409 21.8956 33.7257 21.7633C33.9221 21.6221 34.1293 21.4963 34.3453 21.387C34.5668 21.275 34.7994 21.1862 35.0394 21.1219C35.2837 21.056 35.5359 21.0228 35.789 21.0232C36.3051 21.0132 36.8164 21.1231 37.2824 21.3441C37.7459 21.5867 38.1273 21.9601 38.3789 22.4176C38.7181 23.0385 38.9486 23.7124 39.0605 24.4104C39.2327 25.4274 39.3115 26.458 39.2957 27.4892C39.3116 28.5348 39.2034 29.5786 38.9735 30.5989C38.7956 31.3821 38.5121 32.1378 38.1307 32.8453C37.8246 33.4102 37.4269 33.9209 36.9536 34.3568C36.5548 34.7206 36.109 35.0297 35.6279 35.2758C35.2218 35.4837 34.7908 35.6392 34.3453 35.7387C33.997 35.8173 33.6425 35.8648 33.2858 35.8808L33.1497 35.3749C33.3914 35.3197 33.6233 35.2281 33.8373 35.1033C34.065 34.9639 34.2612 34.779 34.4134 34.5602C34.6079 34.2805 34.7622 33.975 34.8718 33.6528C35.0246 33.2047 35.1386 32.7444 35.2126 32.2769C35.3182 31.6291 35.3885 30.9762 35.4233 30.3209C35.4684 29.5684 35.4909 28.6902 35.4909 27.6866ZM45.8761 22.0842V31.2034C45.8416 31.526 45.93 31.8497 46.1238 32.1104C46.2138 32.1971 46.3208 32.2643 46.438 32.3079C46.5553 32.3514 46.6804 32.3704 46.8054 32.3635C47.0185 32.3667 47.227 32.3019 47.4004 32.1786C47.5682 32.0604 47.7184 31.9192 47.8463 31.759C48.0017 31.576 48.131 31.3726 48.2306 31.1545L48.6149 31.3274C48.4911 31.5905 48.3445 31.8784 48.175 32.191C47.9972 32.5146 47.7692 32.8083 47.4995 33.0611C47.1899 33.347 46.8309 33.5749 46.44 33.7338C45.9291 33.9297 45.384 34.0218 44.8367 34.0046C44.4813 34.0059 44.1279 33.9517 43.7894 33.8441C43.4595 33.74 43.1554 33.5676 42.8971 33.3383C42.6295 33.0978 42.4163 32.8034 42.2715 32.4746C42.105 32.0806 42.0248 31.6557 42.0362 31.2283V22.0842H40.6472V21.1957C40.976 21.1787 41.3011 21.1185 41.6141 21.0168C42.0645 20.88 42.4924 20.6784 42.8842 20.4183C43.3462 20.1125 43.7545 19.733 44.0927 19.2951C44.485 18.7818 44.7561 18.1872 44.8859 17.5553H45.8773V21.1957H47.8971C48.558 21.1957 48.8885 21.0846 48.8885 20.8623C48.8901 20.8246 48.8787 20.7875 48.8561 20.7572C48.8335 20.7269 48.8011 20.7052 48.7644 20.6959C48.6817 20.667 48.5888 20.6299 48.4856 20.5847C48.3815 20.5389 48.287 20.474 48.2069 20.3934C48.1135 20.2791 48.0689 20.1329 48.0828 19.9862C48.0774 19.8855 48.094 19.7848 48.1314 19.691C48.1688 19.5972 48.2262 19.5127 48.2995 19.4431C48.455 19.3075 48.657 19.2368 48.8635 19.2457C48.9994 19.2427 49.1339 19.2746 49.2538 19.3384C49.364 19.3989 49.4593 19.4832 49.5326 19.5851C49.6087 19.6916 49.6653 19.8107 49.6998 19.9369C49.7364 20.0653 49.7551 20.1981 49.7554 20.3316C49.7672 20.5646 49.7322 20.7976 49.6523 21.0169C49.5725 21.2363 49.4495 21.4375 49.2905 21.6089C49.0861 21.7834 48.8486 21.9154 48.5921 21.9969C48.3357 22.0785 48.0653 22.1081 47.7972 22.0838L45.8761 22.0842ZM54.3646 23.6266C54.6638 23.1686 54.9995 22.7353 55.3685 22.3309C55.5213 22.1623 55.6826 22.0017 55.8519 21.8495C56.0209 21.6967 56.2011 21.5564 56.3909 21.4299C56.5709 21.3096 56.7642 21.2103 56.967 21.1339C57.1569 21.0614 57.3585 21.0237 57.5619 21.0228C57.7445 21.0127 57.927 21.041 58.0978 21.1058C58.2687 21.1707 58.4238 21.2706 58.5533 21.3991C58.8074 21.6902 58.9365 22.0691 58.9127 22.4541C58.9134 22.725 58.8906 22.9954 58.8446 23.2624C58.7819 23.5837 58.6928 23.8994 58.5783 24.2063H58.2315C58.1881 23.9626 58.0664 23.7396 57.8846 23.5708C57.6626 23.3883 57.3786 23.2977 57.0914 23.3177C56.8329 23.3182 56.5767 23.3664 56.3357 23.4597C56.0843 23.5561 55.8417 23.6738 55.6106 23.8115C55.3781 23.9494 55.1546 24.1019 54.9415 24.268C54.7309 24.4325 54.5389 24.5888 54.3654 24.737V32.7458C54.3627 32.8748 54.3461 33.0031 54.3159 33.1285C54.2763 33.2881 54.1926 33.4335 54.0742 33.5481C53.9112 33.7011 53.7167 33.8169 53.5042 33.8875C53.1701 33.9943 52.8199 34.0423 52.4693 34.0295C52.1176 34.0432 51.7665 33.9909 51.4344 33.875C51.2187 33.7956 51.0224 33.6716 50.8583 33.5112C50.738 33.3922 50.6523 33.2429 50.6106 33.0792C50.5816 32.9619 50.565 32.842 50.561 32.7213V23.1946C50.5663 22.9753 50.5083 22.7591 50.3939 22.5716C50.3323 22.4812 50.2474 22.409 50.1482 22.3623C50.0491 22.3157 49.9391 22.2964 49.8299 22.3064C49.706 22.303 49.5829 22.3284 49.4706 22.3807C49.3564 22.4397 49.2484 22.51 49.1483 22.5905L48.8881 22.282C49.0917 22.1157 49.3048 21.9611 49.5262 21.8191C49.768 21.6635 50.023 21.5292 50.2883 21.4179C50.573 21.2988 50.8674 21.2037 51.1681 21.1339C51.4931 21.0586 51.8258 21.0213 52.1595 21.0228C52.4692 21.0154 52.7777 21.0635 53.0703 21.1648C53.2996 21.2457 53.5103 21.3716 53.6899 21.535C53.8464 21.6812 53.9745 21.8548 54.0677 22.0473C54.1566 22.2306 54.2252 22.4229 54.2724 22.6209C54.3162 22.8032 54.3432 22.989 54.3529 23.1761C54.3607 23.3534 54.3646 23.5036 54.3646 23.6266ZM65.8148 27.4395C65.8206 27.3514 65.8057 27.2631 65.7713 27.1817C65.7369 27.1003 65.684 27.028 65.6167 26.9705C65.4715 26.8593 65.2917 26.8025 65.1087 26.8101C64.8221 26.8094 64.5394 26.8771 64.2845 27.0075C64.0146 27.1472 63.7796 27.3454 63.5968 27.5875C63.384 27.8713 63.2245 28.1911 63.1259 28.5314C63.0035 28.9543 62.945 29.393 62.9523 29.8331C62.9447 30.2306 62.98 30.6277 63.0574 31.0177C63.1085 31.2811 63.205 31.5336 63.3426 31.7642C63.4416 31.9301 63.5856 32.0648 63.758 32.1529C63.9127 32.2265 64.082 32.2644 64.2535 32.264C64.4672 32.2643 64.677 32.2068 64.8605 32.0976C65.0502 31.9867 65.2181 31.8425 65.356 31.672C65.4976 31.4974 65.6106 31.3016 65.6908 31.0919C65.7716 30.8874 65.8137 30.6698 65.8148 30.4501V27.4395ZM63.8446 22.0345C63.5811 22.0322 63.3185 22.0654 63.0639 22.1331C62.8479 22.1895 62.6398 22.2723 62.4443 22.3799C62.2894 22.4635 62.1509 22.5743 62.0354 22.7068C61.9476 22.7992 61.895 22.9192 61.8868 23.0462C61.8859 23.105 61.9042 23.1626 61.9388 23.2104C61.9734 23.2582 62.0225 23.2936 62.0789 23.3113C62.207 23.3648 62.3495 23.4264 62.5063 23.4962C62.6659 23.5679 62.8108 23.6683 62.9338 23.7923C63.0032 23.8724 63.056 23.9655 63.089 24.0661C63.122 24.1667 63.1345 24.2729 63.1259 24.3784C63.1278 24.5426 63.0919 24.7051 63.0208 24.8533C62.9504 24.9974 62.8537 25.1272 62.7356 25.236C62.6132 25.3486 62.4701 25.4366 62.3142 25.4951C62.1541 25.5567 61.9839 25.5881 61.8123 25.5878C61.6023 25.5957 61.3932 25.5578 61.1995 25.4768C61.0058 25.3958 60.8322 25.2736 60.6908 25.1189C60.3938 24.773 60.2409 24.3271 60.2634 23.8725C60.2507 23.4111 60.3899 22.9582 60.6597 22.5828C60.9347 22.2158 61.2882 21.9144 61.6946 21.7003C62.148 21.4599 62.6345 21.2873 63.1384 21.1881C63.6684 21.0777 64.2083 21.022 64.7497 21.0216C65.3713 21.019 65.991 21.0894 66.5959 21.2314C67.1508 21.3575 67.6778 21.5833 68.1513 21.8977C68.5959 22.1961 68.965 22.5932 69.2293 23.0578C69.511 23.5805 69.6499 24.1677 69.6321 24.7606V31.7325C69.6321 31.8066 69.6363 31.8888 69.6446 31.9792C69.6515 32.0643 69.6725 32.1476 69.7066 32.2259C69.7393 32.2994 69.7905 32.3631 69.8553 32.4109C69.9399 32.4655 70.0399 32.4915 70.1405 32.4851C70.2949 32.483 70.443 32.4236 70.5558 32.3186C70.6775 32.2139 70.7914 32.1004 70.8966 31.9792L71.2064 32.2384C71.0826 32.4111 70.934 32.6003 70.7605 32.806C70.5738 33.0238 70.3616 33.2185 70.1284 33.386C69.8613 33.5777 69.5689 33.7319 69.2595 33.8441C68.8977 33.9728 68.5156 34.0354 68.1316 34.0291C67.6297 34.0352 67.1406 33.8721 66.7438 33.5662C66.3096 33.2067 66.0265 32.6981 65.9506 32.1409C65.7114 32.4678 65.4349 32.7659 65.1268 33.0294C64.8596 33.2563 64.5665 33.451 64.2535 33.6095C63.9685 33.7531 63.6668 33.8609 63.3551 33.9304C63.056 33.9959 62.7506 34.029 62.4443 34.0291C62.0526 34.0299 61.6634 33.9675 61.2918 33.8441C60.9213 33.7215 60.5813 33.5217 60.2944 33.2581C59.9846 32.9665 59.7435 32.6104 59.5882 32.2151C59.3978 31.7149 59.3073 31.1825 59.3219 30.6478C59.2951 30.0056 59.4496 29.3686 59.7679 28.8094C60.0676 28.3297 60.4669 27.9194 60.9389 27.606C61.4536 27.2651 62.0068 26.9856 62.5869 26.7732C63.2025 26.5429 63.8324 26.3002 64.4766 26.0451C64.9127 25.8912 65.2825 25.5928 65.524 25.1999C65.7355 24.8517 65.8489 24.4532 65.8523 24.0462C65.8651 23.779 65.8241 23.5119 65.7315 23.2608C65.6389 23.0096 65.4967 22.7795 65.3133 22.584C65.1197 22.3966 64.8892 22.2511 64.6364 22.1566C64.3836 22.0621 64.1138 22.0206 63.8442 22.0349L63.8446 22.0345ZM80.1655 27.6866C80.1782 26.8552 80.1305 26.024 80.0229 25.1995C79.9646 24.7111 79.8374 24.2333 79.645 23.7802C79.5414 23.5184 79.3597 23.2945 79.1246 23.1384C78.9466 23.0388 78.7462 22.9856 78.5421 22.984C78.3146 22.9804 78.0916 23.0472 77.904 23.1753C77.7231 23.2982 77.5604 23.4456 77.4206 23.6134C77.2913 23.7679 77.1753 23.9329 77.0737 24.1068C77.0022 24.2358 76.9214 24.3595 76.832 24.477V32.7209C76.8291 32.8519 76.8125 32.9821 76.7825 33.1097C76.7431 33.2731 76.6592 33.4226 76.54 33.5417C76.3785 33.6981 76.1837 33.8162 75.9699 33.8871C75.6359 33.9939 75.2857 34.0419 74.9351 34.0291C74.5834 34.0428 74.2323 33.9905 73.9002 33.8746C73.6845 33.7952 73.4882 33.6712 73.3241 33.5108C73.2037 33.3918 73.1181 33.2425 73.0764 33.0788C73.0474 32.9615 73.0308 32.8416 73.0268 32.7209V23.1946C73.0321 22.9753 72.974 22.7591 72.8596 22.5716C72.798 22.4812 72.7132 22.409 72.614 22.3623C72.5148 22.3157 72.4049 22.2964 72.2957 22.3064C72.1717 22.303 72.0487 22.3284 71.9363 22.3807C71.8222 22.4397 71.7142 22.51 71.6141 22.5905L71.3538 22.282C71.5575 22.1157 71.7705 21.9611 71.9919 21.8191C72.2338 21.6635 72.4888 21.5292 72.7541 21.4179C73.0388 21.2988 73.3331 21.2037 73.6339 21.1339C73.9589 21.0586 74.2916 21.0213 74.6253 21.0228C75.0587 20.9993 75.4906 21.0908 75.8769 21.2879C76.1478 21.4389 76.3742 21.658 76.5335 21.9234C76.6708 22.1603 76.7573 22.4229 76.7877 22.6948C76.8139 22.9181 76.8285 23.1426 76.8312 23.3675C77.1313 22.9378 77.4806 22.5445 77.8721 22.1953C78.0379 22.0399 78.2138 21.8956 78.3986 21.7633C78.5951 21.6221 78.8022 21.4963 79.0182 21.387C79.2398 21.275 79.4724 21.1862 79.7123 21.1219C79.9567 21.056 80.2088 21.0228 80.462 21.0232C80.978 21.0132 81.4893 21.1231 81.9553 21.3441C82.4189 21.5867 82.8003 21.9601 83.0518 22.4176C83.3911 23.0385 83.6216 23.7124 83.7334 24.4104C83.9057 25.4274 83.9844 26.458 83.9687 27.4892C83.9845 28.5348 83.8763 29.5786 83.6464 30.5989C83.4685 31.3821 83.1851 32.1378 82.8037 32.8453C82.4975 33.4102 82.0998 33.9209 81.6266 34.3568C81.2277 34.7206 80.7819 35.0297 80.3008 35.2758C79.8947 35.4837 79.4637 35.6392 79.0182 35.7387C78.67 35.8173 78.3154 35.8648 77.9587 35.8808L77.8226 35.3749C78.0643 35.3197 78.2962 35.2281 78.5102 35.1033C78.7379 34.9639 78.9341 34.779 79.0863 34.5602C79.2807 34.2806 79.435 33.9753 79.5447 33.6532C79.6976 33.2051 79.8116 32.7448 79.8855 32.2773C79.9911 31.6295 80.0615 30.9766 80.0962 30.3213C80.1424 29.5685 80.1655 28.6902 80.1655 27.6866ZM93.2134 32.968C93.6779 32.9667 94.1417 32.9317 94.6011 32.8633C95.0534 32.801 95.4952 32.6786 95.9148 32.4995C96.2881 32.3431 96.6239 32.1097 96.9001 31.8148C97.1635 31.5223 97.3033 31.1399 97.2905 30.7473C97.3055 30.5478 97.2555 30.3487 97.1479 30.1797C97.0668 30.0676 96.958 29.9783 96.832 29.9206C96.6913 29.8617 96.5376 29.8404 96.3861 29.8588C96.273 29.8574 96.1603 29.872 96.0513 29.9021C95.9565 29.9294 95.8634 29.9623 95.7726 30.0008C95.6858 30.0377 95.6032 30.0706 95.5248 30.0995C95.4475 30.1281 95.3656 30.1428 95.2831 30.1428C95.1888 30.142 95.0958 30.1209 95.0104 30.081C94.9132 30.0355 94.825 29.9728 94.7502 29.8961C94.6627 29.8062 94.5952 29.6991 94.552 29.5816C94.4994 29.4373 94.4742 29.2846 94.4775 29.1311C94.4686 28.8404 94.5324 28.552 94.6632 28.2919C94.7785 28.0719 94.9389 27.8786 95.1341 27.7243C95.3225 27.5771 95.5368 27.4662 95.7661 27.3974C95.9828 27.3298 96.2082 27.2945 96.4352 27.2927C96.8156 27.2847 97.1933 27.3562 97.5442 27.5025C97.8461 27.631 98.1181 27.82 98.3435 28.0576C98.5578 28.2871 98.7223 28.558 98.8269 28.8535C98.9341 29.1526 98.9886 29.4678 98.988 29.7854C99.0151 30.4978 98.8343 31.2028 98.4675 31.8152C98.1011 32.3713 97.589 32.8172 96.9867 33.1048C96.2536 33.4533 95.4691 33.6825 94.6632 33.7836C93.6531 33.9219 92.6344 33.9879 91.6149 33.9809C90.5265 33.9935 89.4383 33.942 88.356 33.8265C87.6945 33.7612 87.0421 33.6247 86.4103 33.4193C86.0513 33.3173 85.7276 33.1189 85.4745 32.8457C85.3238 32.6602 85.2388 32.4303 85.2328 32.1918C85.2343 31.9913 85.2635 31.792 85.3194 31.5993C85.3903 31.3608 85.4836 31.1293 85.5981 30.9082C85.7262 30.653 85.8894 30.3589 86.0876 30.0257C86.2858 29.6924 86.5253 29.3037 86.8062 28.8595L93.0023 18.9998C93.1014 18.8353 93.2046 18.6687 93.312 18.5C93.4195 18.3312 93.5166 18.1668 93.6033 18.0066C93.6831 17.861 93.7535 17.7106 93.814 17.5561C93.862 17.4425 93.8893 17.3214 93.8945 17.1983C93.896 17.0959 93.8675 16.9952 93.8125 16.9087C93.7575 16.8221 93.6783 16.7534 93.5848 16.7109C93.3559 16.5926 93.1088 16.5134 92.8536 16.4766C92.5707 16.4311 92.2849 16.4063 91.9984 16.4024C91.7092 16.3984 91.4778 16.3964 91.3043 16.3964C90.8349 16.3985 90.3665 16.4398 89.9041 16.5199C89.4403 16.5951 88.9883 16.73 88.5594 16.9211C88.1731 17.09 87.8269 17.338 87.5434 17.6492C87.272 17.9572 87.128 18.3563 87.1406 18.7659C87.1265 18.9615 87.1766 19.1563 87.2832 19.3211C87.3622 19.4322 87.4719 19.5179 87.599 19.5678C87.744 19.6273 87.9019 19.6485 88.0575 19.6296C88.1643 19.6308 88.2707 19.6162 88.3733 19.5863C88.464 19.5591 88.553 19.5261 88.6395 19.4876C88.7223 19.4507 88.8028 19.4178 88.8813 19.3889C88.9586 19.3603 89.0404 19.3456 89.123 19.3456C89.2008 19.3508 89.2767 19.3718 89.3461 19.4074C89.4433 19.4529 89.5315 19.5156 89.6064 19.5923C89.6951 19.6836 89.7665 19.7901 89.817 19.9068C89.8778 20.0491 89.9073 20.2027 89.9036 20.3573C89.912 20.6414 89.8503 20.9232 89.724 21.178C89.6129 21.3937 89.4566 21.583 89.2656 21.7332C89.082 21.876 88.8742 21.9847 88.652 22.0541C88.4438 22.1216 88.2265 22.1569 88.0075 22.1588C87.6319 22.1666 87.2593 22.0907 86.917 21.9366C86.6175 21.7991 86.3497 21.6017 86.1303 21.3565C85.9238 21.1248 85.7621 20.857 85.6533 20.5667C85.5481 20.2907 85.4936 19.9982 85.4922 19.703C85.4814 19.1771 85.5916 18.6556 85.8145 18.1787C86.0236 17.7458 86.3212 17.3612 86.6882 17.0495C87.0723 16.7268 87.5024 16.4627 87.9644 16.266C88.4581 16.0528 88.9705 15.8855 89.4952 15.7662C90.0339 15.6425 90.5805 15.5559 91.1311 15.5071C91.6846 15.4576 92.2174 15.4328 92.7295 15.4328C93.576 15.4259 94.4221 15.4672 95.2638 15.5564C95.854 15.615 96.4371 15.7307 97.0048 15.9018C97.3744 16.0036 97.717 16.1848 98.0087 16.4325C98.1079 16.5189 98.1879 16.625 98.2434 16.7441C98.2989 16.8631 98.3287 16.9924 98.331 17.1237C98.3299 17.3064 98.3091 17.4885 98.2689 17.6668C98.2163 17.8907 98.1438 18.1095 98.0522 18.3207C97.9278 18.6101 97.7871 18.8923 97.6309 19.1659C97.4533 19.4825 97.2323 19.8548 96.9678 20.2827L90.5736 30.574C90.4161 30.8234 90.2714 31.0806 90.1401 31.3446C90.0254 31.5601 89.9619 31.7989 89.9544 32.0426C89.9519 32.1259 89.9665 32.2089 89.9974 32.2864C90.0283 32.3638 90.0748 32.4342 90.1341 32.4931C90.2966 32.6346 90.4929 32.7324 90.7041 32.7771C91.0353 32.8578 91.3735 32.9073 91.714 32.9251C92.127 32.9537 92.6268 32.968 93.2134 32.968ZM111.888 32.7458C111.885 32.8748 111.869 33.0031 111.838 33.1285C111.799 33.2881 111.715 33.4335 111.597 33.5481C111.432 33.7019 111.235 33.8178 111.021 33.8875C110.685 33.9939 110.332 34.0419 109.98 34.0295C109.628 34.0432 109.277 33.9909 108.945 33.875C108.73 33.7966 108.536 33.6723 108.375 33.5108C108.258 33.3905 108.174 33.2414 108.133 33.0788C108.104 32.9615 108.088 32.8416 108.084 32.7209V23.9969C108.083 23.8779 108.066 23.7596 108.034 23.6451C108.002 23.5289 107.952 23.4185 107.885 23.3181C107.821 23.2211 107.737 23.139 107.638 23.0774C107.533 23.0143 107.413 22.9821 107.291 22.9848C107.059 22.9875 106.831 23.0537 106.634 23.1761C106.42 23.3029 106.219 23.4496 106.033 23.6142C105.86 23.766 105.698 23.931 105.55 24.1076C105.413 24.272 105.316 24.3955 105.259 24.4778V32.7454C105.256 32.8744 105.239 33.0027 105.209 33.1281C105.169 33.2877 105.086 33.4331 104.967 33.5477C104.804 33.7007 104.61 33.8165 104.397 33.8871C104.063 33.9939 103.713 34.0419 103.362 34.0291C103.011 34.0428 102.66 33.9905 102.328 33.8746C102.112 33.7952 101.916 33.6712 101.751 33.5108C101.631 33.3918 101.545 33.2425 101.504 33.0788C101.475 32.9615 101.458 32.8416 101.454 32.7209V23.1946C101.459 22.9753 101.401 22.7591 101.287 22.5716C101.225 22.4812 101.141 22.409 101.041 22.3623C100.942 22.3157 100.832 22.2964 100.723 22.3064C100.599 22.303 100.476 22.3284 100.364 22.3807C100.25 22.4397 100.142 22.51 100.041 22.5905L99.7812 22.282C99.9849 22.1157 100.198 21.9611 100.419 21.8191C100.661 21.6635 100.916 21.5292 101.181 21.4179C101.466 21.2988 101.76 21.2037 102.061 21.1339C102.386 21.0586 102.719 21.0213 103.053 21.0228C103.486 20.9993 103.918 21.0908 104.304 21.2879C104.575 21.4389 104.802 21.658 104.961 21.9234C105.098 22.1603 105.185 22.4229 105.215 22.6948C105.241 22.9181 105.256 23.1426 105.259 23.3675C105.639 22.9392 106.058 22.5468 106.51 22.1953C106.702 22.0399 106.903 21.8957 107.111 21.7633C107.329 21.6244 107.554 21.4987 107.787 21.387C108.017 21.2763 108.258 21.1875 108.505 21.1219C108.748 21.0568 108.998 21.0236 109.249 21.0232C109.673 21.0112 110.093 21.1 110.476 21.2823C110.787 21.434 111.065 21.6458 111.293 21.9053C111.49 22.1307 111.643 22.39 111.746 22.6703C111.832 22.8931 111.88 23.1288 111.888 23.3675C112.273 22.9431 112.691 22.5511 113.14 22.1953C113.331 22.0409 113.529 21.8967 113.735 21.7633C113.951 21.6227 114.177 21.4969 114.411 21.387C114.642 21.2776 114.882 21.1889 115.129 21.1219C115.37 21.0565 115.617 21.0233 115.866 21.0232C116.291 21.011 116.712 21.102 117.093 21.2883C117.417 21.4529 117.698 21.6919 117.911 21.9855C118.12 22.28 118.274 22.6105 118.363 22.9603C118.457 23.3147 118.505 23.6797 118.506 24.0462V31.6844C118.506 31.7585 118.51 31.8387 118.518 31.9251C118.526 32.01 118.547 32.0932 118.58 32.1718C118.613 32.249 118.666 32.3154 118.735 32.3631C118.818 32.4161 118.916 32.442 119.014 32.4373C119.171 32.4375 119.322 32.378 119.436 32.2709C119.559 32.1599 119.675 32.0468 119.782 31.9315L120.08 32.1906C119.941 32.3925 119.788 32.5842 119.621 32.7643C119.417 32.9864 119.191 33.1869 118.946 33.3628C118.667 33.5615 118.363 33.7213 118.041 33.8377C117.669 33.9701 117.277 34.0349 116.882 34.0291C116.56 34.0355 116.24 33.9875 115.934 33.8871C115.685 33.8034 115.454 33.6737 115.253 33.5048C115.071 33.3507 114.929 33.1563 114.837 32.9372C114.746 32.7161 114.699 32.4791 114.701 32.24V23.9969C114.701 23.8779 114.684 23.7596 114.652 23.6451C114.62 23.5298 114.572 23.4196 114.509 23.3181C114.448 23.2205 114.365 23.1381 114.267 23.0774C114.163 23.0143 114.042 22.9821 113.92 22.9848C113.686 22.9879 113.457 23.0541 113.257 23.1761C113.041 23.3018 112.838 23.4486 112.65 23.6142C112.478 23.765 112.318 23.93 112.173 24.1076C112.041 24.272 111.946 24.3955 111.888 24.4778V32.7458Z" fill="black"/>
<path d="M68.4651 48.5384H66.7656L69.8599 39.7861H71.8254L74.9239 48.5384H73.2245L70.877 41.581H70.8083L68.4651 48.5384ZM68.5209 45.1067H73.1558V46.3802H68.5209V45.1067Z" fill="black"/>
<path d="M78.6876 48.6666C78.0296 48.6666 77.4645 48.5227 76.9925 48.2349C76.5232 47.9472 76.1613 47.5498 75.9067 47.0426C75.6549 46.5326 75.529 45.9457 75.529 45.2819C75.529 44.6152 75.6578 44.0269 75.9153 43.5169C76.1728 43.0041 76.5361 42.6053 77.0053 42.3203C77.4774 42.0326 78.0353 41.8887 78.6791 41.8887C79.2141 41.8887 79.6876 41.987 80.0996 42.1836C80.5144 42.3773 80.8449 42.6523 81.0909 43.0084C81.337 43.3617 81.4772 43.7748 81.5115 44.2477H80.0266C79.9665 43.9315 79.8235 43.6679 79.5974 43.4571C79.3743 43.2434 79.0753 43.1366 78.7005 43.1366C78.3829 43.1366 78.104 43.2221 77.8637 43.393C77.6233 43.5611 77.4359 43.8033 77.3015 44.1195C77.1698 44.4358 77.104 44.8147 77.104 45.2563C77.104 45.7036 77.1698 46.0882 77.3015 46.4101C77.4331 46.7292 77.6176 46.9757 77.8551 47.1495C78.0954 47.3204 78.3772 47.4059 78.7005 47.4059C78.9294 47.4059 79.134 47.3631 79.3142 47.2777C79.4973 47.1893 79.6504 47.0626 79.7734 46.8973C79.8964 46.7321 79.9808 46.5312 80.0266 46.2948H81.5115C81.4743 46.7591 81.337 47.1708 81.0995 47.5298C80.862 47.8859 80.5387 48.1651 80.1296 48.3674C79.7205 48.5669 79.2398 48.6666 78.6876 48.6666Z" fill="black"/>
<path d="M84.684 48.6708C84.2663 48.6708 83.8901 48.5968 83.5554 48.4486C83.2235 48.2976 82.9603 48.0754 82.7657 47.7819C82.574 47.4885 82.4782 47.1267 82.4782 46.6965C82.4782 46.3261 82.5468 46.0198 82.6842 45.7777C82.8215 45.5355 83.0089 45.3417 83.2464 45.1964C83.4838 45.0511 83.7513 44.9415 84.0489 44.8674C84.3493 44.7905 84.6597 44.7349 84.9802 44.7007C85.3664 44.6608 85.6797 44.6252 85.92 44.5939C86.1603 44.5597 86.3349 44.5084 86.4436 44.44C86.5552 44.3688 86.611 44.2591 86.611 44.111V44.0853C86.611 43.7634 86.5151 43.5141 86.3234 43.3375C86.1317 43.1608 85.8556 43.0725 85.4952 43.0725C85.1146 43.0725 84.8128 43.1551 84.5896 43.3204C84.3693 43.4856 84.2206 43.6808 84.1433 43.9058L82.6928 43.7007C82.8072 43.3018 82.996 42.9685 83.2592 42.7007C83.5225 42.43 83.8443 42.2278 84.2248 42.0939C84.6054 41.9571 85.0259 41.8887 85.4866 41.8887C85.8041 41.8887 86.1203 41.9258 86.435 41.9998C86.7497 42.0739 87.0373 42.1964 87.2976 42.3674C87.558 42.5355 87.7668 42.7648 87.9242 43.0554C88.0844 43.346 88.1645 43.7093 88.1645 44.1452V48.5384H86.671V47.6366H86.6195C86.5251 47.819 86.3921 47.9899 86.2204 48.1495C86.0516 48.3062 85.8385 48.433 85.581 48.5298C85.3264 48.6238 85.0274 48.6708 84.684 48.6708ZM85.0875 47.5341C85.3993 47.5341 85.6697 47.4728 85.8986 47.3503C86.1274 47.225 86.3034 47.0597 86.4264 46.8546C86.5523 46.6495 86.6153 46.4258 86.6153 46.1836V45.4101C86.5666 45.45 86.4836 45.4871 86.3663 45.5212C86.2519 45.5554 86.1232 45.5853 85.9801 45.611C85.837 45.6366 85.6954 45.6594 85.5552 45.6794C85.415 45.6993 85.2934 45.7164 85.1904 45.7306C84.9587 45.762 84.7513 45.8133 84.5682 45.8845C84.3851 45.9557 84.2406 46.0554 84.1347 46.1836C84.0289 46.309 83.9759 46.4714 83.9759 46.6708C83.9759 46.9557 84.0804 47.1708 84.2892 47.3161C84.4981 47.4614 84.7642 47.5341 85.0875 47.5341Z" fill="black"/>
<path d="M92.1729 48.6538C91.655 48.6538 91.1915 48.5213 90.7824 48.2563C90.3732 47.9914 90.0499 47.6067 89.8125 47.1025C89.575 46.5982 89.4563 45.9856 89.4563 45.2648C89.4563 44.5355 89.5764 43.9201 89.8168 43.4187C90.06 42.9144 90.3876 42.534 90.7995 42.2776C91.2115 42.0184 91.6707 41.8887 92.1771 41.8887C92.5634 41.8887 92.881 41.9542 93.1299 42.0853C93.3788 42.2135 93.5762 42.3688 93.7221 42.5511C93.868 42.7306 93.981 42.9001 94.0611 43.0597H94.1255V39.7861H95.6834V48.5384H94.1556V47.5042H94.0611C93.981 47.6637 93.8652 47.8332 93.7135 48.0127C93.5619 48.1894 93.3616 48.3404 93.1127 48.4657C92.8638 48.5911 92.5505 48.6538 92.1729 48.6538ZM92.6063 47.3845C92.9353 47.3845 93.2157 47.2962 93.4475 47.1195C93.6792 46.9401 93.8552 46.6908 93.9753 46.3717C94.0955 46.0526 94.1556 45.6808 94.1556 45.2563C94.1556 44.8318 94.0955 44.4628 93.9753 44.1494C93.858 43.836 93.6835 43.5924 93.4517 43.4187C93.2229 43.2449 92.941 43.158 92.6063 43.158C92.2601 43.158 91.9711 43.2477 91.7394 43.4272C91.5077 43.6067 91.3331 43.8546 91.2158 44.1708C91.0985 44.487 91.0399 44.8489 91.0399 45.2563C91.0399 45.6665 91.0985 46.0326 91.2158 46.3546C91.336 46.6737 91.5119 46.9258 91.7437 47.111C91.9783 47.2933 92.2658 47.3845 92.6063 47.3845Z" fill="black"/>
<path d="M100.257 48.6666C99.5962 48.6666 99.0254 48.5298 98.5448 48.2563C98.067 47.98 97.6993 47.5896 97.4418 47.0854C97.1843 46.5782 97.0556 45.9814 97.0556 45.2947C97.0556 44.6195 97.1843 44.0269 97.4418 43.5169C97.7022 43.0041 98.0655 42.6053 98.5319 42.3203C98.9983 42.0326 99.5461 41.8887 100.176 41.8887C100.582 41.8887 100.965 41.9542 101.326 42.0853C101.689 42.2135 102.01 42.4129 102.287 42.6836C102.567 42.9543 102.788 43.299 102.948 43.7178C103.108 44.1338 103.188 44.6295 103.188 45.205V45.6794H97.7852V44.6366H101.699C101.696 44.3403 101.632 44.0768 101.506 43.846C101.38 43.6124 101.204 43.4286 100.978 43.2947C100.755 43.1608 100.495 43.0939 100.197 43.0939C99.8795 43.0939 99.6005 43.1708 99.3602 43.3246C99.1198 43.4756 98.9324 43.6751 98.798 43.9229C98.6664 44.1679 98.5991 44.4372 98.5963 44.7306V45.6409C98.5963 46.0227 98.6664 46.3503 98.8066 46.6238C98.9468 46.8945 99.1427 47.1025 99.3945 47.2478C99.6463 47.3902 99.941 47.4614 100.279 47.4614C100.505 47.4614 100.709 47.4301 100.892 47.3674C101.075 47.3019 101.234 47.2064 101.369 47.0811C101.503 46.9557 101.605 46.8005 101.673 46.6153L103.124 46.7777C103.032 47.1594 102.858 47.4928 102.6 47.7777C102.346 48.0597 102.02 48.2791 101.622 48.4358C101.224 48.5896 100.769 48.6666 100.257 48.6666Z" fill="black"/>
<path d="M104.503 48.5384V41.9742H105.987V43.0896H106.065C106.202 42.7135 106.429 42.4201 106.747 42.2092C107.065 41.9956 107.444 41.8887 107.884 41.8887C108.331 41.8887 108.707 41.997 109.013 42.2135C109.322 42.4272 109.539 42.7192 109.665 43.0896H109.734C109.88 42.7249 110.126 42.4343 110.472 42.2178C110.821 41.9984 111.235 41.8887 111.712 41.8887C112.319 41.8887 112.814 42.0796 113.197 42.4614C113.581 42.8431 113.772 43.4001 113.772 44.1323V48.5384H112.215V44.3717C112.215 43.9642 112.106 43.6665 111.888 43.4785C111.671 43.2876 111.405 43.1922 111.09 43.1922C110.715 43.1922 110.422 43.309 110.21 43.5426C110.002 43.7734 109.897 44.0739 109.897 44.4443V48.5384H108.374V44.3075C108.374 43.9685 108.271 43.6979 108.065 43.4956C107.861 43.2933 107.595 43.1922 107.266 43.1922C107.043 43.1922 106.84 43.2491 106.657 43.3631C106.474 43.4742 106.328 43.6323 106.219 43.8375C106.11 44.0397 106.056 44.2762 106.056 44.5469V48.5384H104.503Z" fill="black"/>
<path d="M116.078 50.9999C115.866 50.9999 115.67 50.9828 115.49 50.9486C115.313 50.9173 115.171 50.8803 115.065 50.8375L115.426 49.6324C115.652 49.6979 115.853 49.7293 116.031 49.7264C116.208 49.7236 116.364 49.668 116.499 49.5597C116.636 49.4543 116.752 49.2777 116.846 49.0298L116.979 48.6751L114.589 41.9742H116.237L117.756 46.9315H117.825L119.348 41.9742H121L118.361 49.3332C118.238 49.6808 118.075 49.9786 117.872 50.2264C117.669 50.4771 117.42 50.668 117.125 50.7991C116.833 50.933 116.484 50.9999 116.078 50.9999Z" fill="black"/>
</svg>
