<svg width="74" height="18" viewBox="0 0 74 18" fill="none" xmlns="http://www.w3.org/2000/svg">
<rect width="74" height="18" fill="#F1F1F1"/>
<path fill-rule="evenodd" clip-rule="evenodd" d="M6 4.83333C6 4.3731 6.3731 4 6.83333 4H20.1667C20.6269 4 21 4.3731 21 4.83333C21 5.29357 20.6269 5.66667 20.1667 5.66667H6.83333C6.3731 5.66667 6 5.29357 6 4.83333ZM8.5 9C8.5 8.53975 8.8731 8.16667 9.33333 8.16667H17.6667C18.1269 8.16667 18.5 8.53975 18.5 9C18.5 9.46025 18.1269 9.83333 17.6667 9.83333H9.33333C8.8731 9.83333 8.5 9.46025 8.5 9ZM11 13.1667C11 12.7064 11.3731 12.3333 11.8333 12.3333H15.1667C15.6269 12.3333 16 12.7064 16 13.1667C16 13.6269 15.6269 14 15.1667 14H11.8333C11.3731 14 11 13.6269 11 13.1667Z" fill="black"/>
<path d="M31.26 14H32.478V9.52H36.09V8.526H32.478V4.984H37.112V3.99H31.26V14ZM38.7099 14H39.8719V6.678H38.7099V14ZM39.2699 5.152C39.6899 5.152 40.0399 4.802 40.0399 4.382C40.0399 3.962 39.6899 3.612 39.2699 3.612C38.8499 3.612 38.4999 3.962 38.4999 4.382C38.4999 4.802 38.8499 5.152 39.2699 5.152ZM42.2782 14H43.4542V3.178H42.2782V14ZM48.0583 14.098C48.5343 14.098 48.8143 14.028 49.0523 13.944V12.964C48.8003 13.062 48.5203 13.118 48.1562 13.118C47.5683 13.118 47.2463 12.768 47.2463 12.054V7.658H48.9543V6.678H47.2463V5.012H46.0843V6.678H45.0343V7.658H46.0843V12.166C46.0843 13.314 46.7283 14.098 48.0583 14.098ZM53.8048 14.126C55.4568 14.126 56.6748 13.356 56.9268 11.886H55.7648C55.6108 12.74 54.9528 13.16 53.8188 13.16C52.3208 13.16 51.5228 12.236 51.4668 10.57H56.9828V10.192C56.9828 7.574 55.3868 6.552 53.6928 6.552C51.6768 6.552 50.2628 8.092 50.2628 10.304V10.416C50.2628 12.67 51.7328 14.126 53.8048 14.126ZM51.5088 9.632C51.7048 8.33 52.5028 7.518 53.6928 7.518C54.8968 7.518 55.6808 8.12 55.7928 9.632H51.5088ZM58.7658 14H59.9278V9.982C59.9278 8.176 60.8658 7.714 62.3358 7.644V6.552C61.0198 6.594 60.3898 7.168 59.9278 7.994V6.678H58.7658V14ZM66.2292 14.126C68.0072 14.126 68.9172 13.23 68.9172 11.9C68.9172 10.346 67.8532 10.01 66.3412 9.73C64.9972 9.492 64.6332 9.226 64.6332 8.568C64.6332 7.938 65.1792 7.518 66.0192 7.518C66.9432 7.518 67.3912 7.868 67.5592 8.666H68.6792C68.4832 7.084 67.3492 6.552 66.0332 6.552C64.8852 6.552 63.5552 7.252 63.5552 8.61C63.5552 9.884 64.1992 10.416 66.1032 10.766C67.2372 10.976 67.8112 11.228 67.8112 11.998C67.8112 12.782 67.3212 13.16 66.2152 13.16C65.0392 13.16 64.5772 12.614 64.4932 11.746H63.3592C63.4292 13.244 64.4792 14.126 66.2292 14.126Z" fill="#020202"/>
</svg>
