<svg width="39" height="26" viewBox="0 0 39 26" fill="none" xmlns="http://www.w3.org/2000/svg">
<path fill-rule="evenodd" clip-rule="evenodd" d="M0.75 2.58333C0.75 1.43275 1.68275 0.5 2.83333 0.5H36.1668C37.3173 0.5 38.25 1.43275 38.25 2.58333C38.25 3.73393 37.3173 4.66667 36.1668 4.66667H2.83333C1.68275 4.66667 0.75 3.73393 0.75 2.58333ZM7 13C7 11.8494 7.93275 10.9167 9.08333 10.9167H29.9168C31.0673 10.9167 32 11.8494 32 13C32 14.1506 31.0673 15.0833 29.9168 15.0833H9.08333C7.93275 15.0833 7 14.1506 7 13ZM13.25 23.4168C13.25 22.266 14.1827 21.3332 15.3332 21.3332H23.6668C24.8173 21.3332 25.75 22.266 25.75 23.4168C25.75 24.5673 24.8173 25.5 23.6668 25.5H15.3332C14.1827 25.5 13.25 24.5673 13.25 23.4168Z" fill="black"/>
</svg>
