<svg width="81" height="22" viewBox="0 0 81 22" fill="none" xmlns="http://www.w3.org/2000/svg">
<path d="M11.9865 3.15983L13.5324 5.81322C13.7442 6.17743 14.2758 6.52342 14.7129 6.57019L17.315 6.88065C18.981 7.076 19.4106 8.19828 18.2768 9.37379L16.3451 11.3652C16.0226 11.699 15.8552 12.3356 15.9848 12.7726L16.6616 15.1172C17.194 16.9682 16.1816 17.7354 14.4025 16.8262L11.9172 15.5559C11.4645 15.3237 10.7455 15.3574 10.3203 15.6182L7.95437 17.0718C6.2607 18.1107 5.18296 17.4267 5.5546 15.5421L6.0305 13.157C6.11935 12.7111 5.90633 12.089 5.55473 11.7829L3.44514 9.94643C2.21398 8.86624 2.54516 7.71495 4.18573 7.38855L6.74737 6.88066C7.17969 6.79153 7.6807 6.41538 7.8566 6.03266L9.169 3.26302C9.88636 1.77079 11.152 1.72377 11.9865 3.15983Z" fill="#EB8E38"/>
<path d="M31.3693 3.15983L32.9152 5.81322C33.127 6.17743 33.6586 6.52342 34.0957 6.57019L36.6978 6.88065C38.3638 7.076 38.7934 8.19828 37.6596 9.37379L35.7279 11.3652C35.4054 11.699 35.238 12.3356 35.3676 12.7726L36.0445 15.1172C36.5768 16.9682 35.5644 17.7354 33.7853 16.8262L31.3 15.5559C30.8473 15.3237 30.1284 15.3574 29.7031 15.6182L27.3372 17.0718C25.6435 18.1107 24.5658 17.4267 24.9374 15.5421L25.4133 13.157C25.5022 12.7111 25.2891 12.089 24.9375 11.7829L22.828 9.94643C21.5968 8.86624 21.928 7.71495 23.5685 7.38855L26.1302 6.88066C26.5625 6.79153 27.0635 6.41538 27.2394 6.03266L28.5518 3.26302C29.2692 1.77079 30.5348 1.72377 31.3693 3.15983Z" fill="#EB8E38"/>
<path d="M50.7522 3.15983L52.298 5.81322C52.5098 6.17743 53.0414 6.52342 53.4785 6.57019L56.0806 6.88065C57.7466 7.076 58.1762 8.19828 57.0424 9.37379L55.1107 11.3652C54.7883 11.699 54.6209 12.3356 54.7504 12.7726L55.4273 15.1172C55.9596 16.9682 54.9472 17.7354 53.1681 16.8262L50.6828 15.5559C50.2301 15.3237 49.5112 15.3574 49.0859 15.6182L46.72 17.0718C45.0263 18.1107 43.9486 17.4267 44.3202 15.5421L44.7961 13.157C44.885 12.7111 44.672 12.089 44.3204 11.7829L42.2108 9.94643C40.9796 8.86624 41.3108 7.71495 42.9514 7.38855L45.513 6.88066C45.9453 6.79153 46.4463 6.41538 46.6222 6.03266L47.9346 3.26302C48.652 1.77079 49.9176 1.72377 50.7522 3.15983Z" fill="#EB8E38"/>
<path d="M70.133 3.15983L71.6789 5.81322C71.8907 6.17743 72.4222 6.52342 72.8594 6.57019L75.4614 6.88065C77.1275 7.076 77.5571 8.19828 76.4233 9.37379L74.4916 11.3652C74.1691 11.699 74.0017 12.3356 74.1313 12.7726L74.8081 15.1172C75.3405 16.9682 74.3281 17.7354 72.549 16.8262L70.0636 15.5559C69.611 15.3237 68.892 15.3574 68.4668 15.6182L66.1009 17.0718C64.4072 18.1107 63.3294 17.4267 63.7011 15.5421L64.177 13.157C64.2658 12.7111 64.0528 12.089 63.7012 11.7829L61.5916 9.94643C60.3605 8.86624 60.6916 7.71495 62.3322 7.38855L64.8939 6.88066C65.3262 6.79153 65.8272 6.41538 66.0031 6.03266L67.3155 3.26302C68.0328 1.77079 69.2984 1.72377 70.133 3.15983Z" fill="#EB8E38"/>
</svg>
