<svg width="22" height="23" viewBox="0 0 22 23" fill="none" xmlns="http://www.w3.org/2000/svg">
<path fill-rule="evenodd" clip-rule="evenodd" d="M21.3438 11.9307C21.3438 11.1632 21.2749 10.4253 21.147 9.7168H10.9531V13.9036H16.7782C16.5273 15.2565 15.7647 16.4028 14.6184 17.1703V19.8861H18.1164C20.163 18.0018 21.3438 15.227 21.3438 11.9307Z" fill="#4285F4"/>
<path fill-rule="evenodd" clip-rule="evenodd" d="M10.9497 22.5074C13.8721 22.5074 16.3222 21.5381 18.113 19.8851L14.615 17.1693C13.6458 17.8188 12.406 18.2025 10.9497 18.2025C8.13066 18.2025 5.74454 16.2985 4.89341 13.7402H1.27734V16.5445C3.05832 20.0819 6.71867 22.5074 10.9497 22.5074Z" fill="#34A853"/>
<path fill-rule="evenodd" clip-rule="evenodd" d="M4.89621 13.7415C4.67974 13.0921 4.55675 12.3984 4.55675 11.685C4.55675 10.9716 4.67974 10.2779 4.89621 9.62852V6.82422H1.28014C0.547091 8.28541 0.128906 9.93846 0.128906 11.685C0.128906 13.4315 0.547091 15.0846 1.28014 16.5458L4.89621 13.7415Z" fill="#FBBC05"/>
<path fill-rule="evenodd" clip-rule="evenodd" d="M10.9497 5.16519C12.5388 5.16519 13.9656 5.71129 15.0873 6.78382L18.1917 3.67941C16.3172 1.93287 13.8672 0.860352 10.9497 0.860352C6.71867 0.860352 3.05832 3.28582 1.27734 6.82317L4.89341 9.62747C5.74454 7.06916 8.13066 5.16519 10.9497 5.16519Z" fill="#EA4335"/>
</svg>
