<svg width="70" height="64" viewBox="0 0 70 64" fill="none" xmlns="http://www.w3.org/2000/svg">
<rect width="70" height="64" fill="#58C1A3"/>
<path d="M40 19H32M52 22V42C52 50 50 52 42 52H30C22 52 20 50 20 42V22C20 14 22 12 30 12H42C50 12 52 14 52 22Z" stroke="white" stroke-width="3" stroke-linecap="round" stroke-linejoin="round"/>
<path d="M36 46C36.7956 46 37.5587 45.6839 38.1213 45.1213C38.6839 44.5587 39 43.7956 39 43C39 42.2043 38.6839 41.4413 38.1213 40.8787C37.5587 40.3161 36.7956 40 36 40C35.2044 40 34.4413 40.3161 33.8787 40.8787C33.3161 41.4413 33 42.2043 33 43C33 43.7956 33.3161 44.5587 33.8787 45.1213C34.4413 45.6839 35.2044 46 36 46V46Z" stroke="white" stroke-width="1.5" stroke-linecap="round" stroke-linejoin="round"/>
<rect width="70" height="64" fill="#58C1A3"/>
<path d="M40 19H32M52 22V42C52 50 50 52 42 52H30C22 52 20 50 20 42V22C20 14 22 12 30 12H42C50 12 52 14 52 22Z" stroke="white" stroke-width="3" stroke-linecap="round" stroke-linejoin="round"/>
<path d="M36 46C36.7956 46 37.5587 45.6839 38.1213 45.1213C38.6839 44.5587 39 43.7956 39 43C39 42.2043 38.6839 41.4413 38.1213 40.8787C37.5587 40.3161 36.7956 40 36 40C35.2044 40 34.4413 40.3161 33.8787 40.8787C33.3161 41.4413 33 42.2043 33 43C33 43.7956 33.3161 44.5587 33.8787 45.1213C34.4413 45.6839 35.2044 46 36 46V46Z" stroke="white" stroke-width="1.5" stroke-linecap="round" stroke-linejoin="round"/>
</svg>
