<svg width="37" height="37" viewBox="0 0 37 37" fill="none" xmlns="http://www.w3.org/2000/svg">
<g opacity="0.7">
<path d="M11.1768 10.7923H25.8226V7.70898C25.8226 4.62565 24.6663 3.08398 21.1976 3.08398H15.8018C12.333 3.08398 11.1768 4.62565 11.1768 7.70898V10.7923ZM24.6663 23.1257V29.2923C24.6663 32.3757 23.1247 33.9173 20.0413 33.9173H16.958C13.8747 33.9173 12.333 32.3757 12.333 29.2923V23.1257H24.6663Z" stroke="black" stroke-width="1.5" stroke-miterlimit="10" stroke-linecap="round" stroke-linejoin="round"/>
<path d="M26.2083 23.1243H10.7917M10.7917 16.9577H15.4167M32.375 15.416V23.1243C32.375 26.2077 30.8333 27.7493 27.75 27.7493H24.6667V23.1243H12.3333V27.7493H9.25C6.16667 27.7493 4.625 26.2077 4.625 23.1243V15.416C4.625 12.3327 6.16667 10.791 9.25 10.791H27.75C30.8333 10.791 32.375 12.3327 32.375 15.416Z" stroke="black" stroke-width="1.5" stroke-miterlimit="10" stroke-linecap="round" stroke-linejoin="round"/>
</g>
</svg>
