<svg width="272" height="68" viewBox="0 0 272 68" fill="none" xmlns="http://www.w3.org/2000/svg">
<rect x="0.5" y="0.5" width="271" height="67" fill="#F8F8F8" stroke="black"/>
<rect x="12" y="3" width="248" height="62" fill="#F8F8F8"/>
<g clip-path="url(#clip0_705_1793)">
<path d="M41.9706 23.1514L40.1763 29.7848L50.4465 23.1137L43.7296 48.2855L50.5513 48.2912L60.4741 11.1113" fill="#3395FF"/>
<path d="M30.9166 37.7107L28.0913 48.293H42.0732L47.7945 26.7657L30.9166 37.7107ZM79.4847 28.394C79.143 29.6698 78.4845 30.607 77.5025 31.2055C76.5227 31.8028 75.1476 32.1026 73.3727 32.1026H67.7335L69.7135 24.6877H75.3527C77.1254 24.6877 78.3432 24.9852 79.004 25.5916C79.6647 26.1981 79.8242 27.125 79.4847 28.4066M85.3233 28.2464C86.0411 25.5688 85.7449 23.509 84.4325 22.0673C83.1223 20.6369 80.8233 19.916 77.5423 19.916H64.9571L57.3812 48.3056H63.4955L66.5487 36.8628H70.5588C71.4588 36.8628 72.1674 37.0115 72.6846 37.2976C73.203 37.5951 73.5071 38.11 73.6006 38.8538L74.6919 48.3056H81.2426L80.1808 39.4946C79.9644 37.5265 79.0678 36.3707 77.4922 36.0275C79.5007 35.4439 81.1833 34.4712 82.539 33.121C83.8853 31.7806 84.8471 30.1007 85.3233 28.2578M100.186 38.1444C99.6732 40.0668 98.8871 41.52 97.8242 42.5384C96.7602 43.5568 95.4888 44.0603 94.0055 44.0603C92.4949 44.0603 91.4707 43.5683 90.9295 42.5727C90.3873 41.5772 90.369 40.1354 90.8726 38.2474C91.3761 36.3593 92.1793 34.8832 93.2843 33.819C94.3894 32.7548 95.6813 32.2227 97.1646 32.2227C98.6456 32.2227 99.6595 32.7377 100.172 33.7595C100.696 34.7859 100.708 36.254 100.195 38.165L100.186 38.1444ZM102.865 28.0976L102.1 30.9697C101.769 29.9399 101.128 29.116 100.18 28.4981C99.23 27.8916 98.0543 27.5827 96.6519 27.5827C94.9317 27.5827 93.2798 28.029 91.6962 28.9215C90.1127 29.814 88.7228 31.0727 87.538 32.6976C86.3532 34.3225 85.4874 36.1648 84.9292 38.2359C84.3823 40.3185 84.2684 42.1379 84.5988 43.717C84.9406 45.3076 85.6583 46.5205 86.7633 47.3673C87.8798 48.2255 89.3038 48.6489 91.0469 48.6489C92.4319 48.6559 93.8014 48.355 95.057 47.7678C96.2984 47.2053 97.4026 46.3774 98.2925 45.3419L97.495 48.3353H103.408L108.807 28.1079H102.882L102.865 28.0976ZM130.053 28.0976H112.859L111.657 32.6061H121.662L108.435 44.0832L107.305 48.317H125.054L126.256 43.8086H115.536L128.965 32.1598M145.188 38.11C144.656 40.1011 143.867 41.5978 142.824 42.5727C141.782 43.5568 140.52 44.0488 139.037 44.0488C135.939 44.0488 134.92 42.0692 135.977 38.11C136.501 36.1419 137.294 34.6623 138.354 33.6657C139.413 32.6656 140.697 32.1667 142.207 32.1667C143.688 32.1667 144.688 32.6621 145.203 33.6599C145.718 34.6555 145.713 36.1396 145.188 38.1078M148.649 28.8586C147.288 28.0072 145.55 27.5815 143.431 27.5815C141.286 27.5815 139.301 28.0049 137.473 28.8517C135.653 29.6932 134.054 30.9493 132.802 32.5202C131.515 34.1108 130.589 35.976 130.02 38.1043C129.462 40.2247 129.394 42.0864 129.827 43.6804C130.26 45.2709 131.171 46.4953 132.538 47.3421C133.917 48.1957 135.671 48.6202 137.824 48.6202C139.943 48.6202 141.914 48.1923 143.725 47.3409C145.537 46.485 147.086 45.2698 148.373 43.6678C149.661 42.0727 150.584 40.2121 151.153 38.0837C151.723 35.9554 151.791 34.0971 151.358 32.4996C150.925 30.9091 150.025 29.6847 148.67 28.8322M169.757 33.5009L171.272 27.9969C170.76 27.7337 170.087 27.5964 169.244 27.5964C167.889 27.5964 166.59 27.9328 165.337 28.6148C164.259 29.1938 163.343 30.0108 162.568 31.0338L163.354 28.0701L161.638 28.077H157.422L151.988 48.2964H157.984L160.804 37.7267C161.214 36.1899 161.952 34.9804 163.017 34.1222C164.077 33.2606 165.398 32.8292 166.993 32.8292C167.973 32.8292 168.884 33.0546 169.75 33.5043M186.44 38.2073C185.927 40.0954 185.153 41.5372 184.093 42.5327C183.034 43.5328 181.758 44.0317 180.277 44.0317C178.796 44.0317 177.782 43.5282 177.246 42.5212C176.7 41.5086 176.688 40.0496 177.201 38.1318C177.713 36.2151 178.5 34.7447 179.582 33.7263C180.664 32.6999 181.94 32.1873 183.421 32.1873C184.879 32.1873 185.859 32.7136 186.383 33.7778C186.907 34.842 186.919 36.3181 186.415 38.2062M190.607 28.8917C189.497 27.9992 188.078 27.5529 186.358 27.5529C184.851 27.5529 183.414 27.8962 182.052 28.5896C180.69 29.2819 179.585 30.226 178.737 31.4206L178.757 31.2833L179.763 28.0679H173.907L172.415 33.6634L172.369 33.8579L166.217 56.9083H172.221L175.32 45.3053C175.628 46.3374 176.254 47.1476 177.211 47.7334C178.168 48.317 179.349 48.6065 180.754 48.6065C182.497 48.6065 184.16 48.1831 185.738 47.3364C187.322 46.4873 188.689 45.2652 189.851 43.6861C191.013 42.107 191.875 40.2762 192.426 38.205C192.984 36.1304 193.098 34.2801 192.779 32.661C192.454 31.0395 191.735 29.7843 190.626 28.8963M210.522 38.1249C210.01 40.0359 209.224 41.5005 208.164 42.5075C207.105 43.5213 205.829 44.026 204.348 44.026C202.833 44.026 201.807 43.5339 201.272 42.5384C200.725 41.5429 200.714 40.1011 201.215 38.213C201.716 36.325 202.516 34.8489 203.621 33.7847C204.726 32.7205 206.019 32.1895 207.502 32.1895C208.983 32.1895 209.986 32.7045 210.51 33.7229C211.034 34.7447 211.037 36.2128 210.527 38.1284L210.522 38.1249ZM213.2 28.0724L212.433 30.9446C212.103 29.909 211.465 29.0851 210.519 28.4729C209.562 27.8619 208.389 27.5575 206.987 27.5575C205.267 27.5575 203.606 28.0038 202.02 28.8963C200.437 29.7889 199.047 31.0407 197.862 32.661C196.677 34.2813 195.811 36.1282 195.253 38.1993C194.701 40.2785 194.592 42.1013 194.923 43.6873C195.257 45.2664 195.975 46.4862 197.087 47.3375C198.197 48.1843 199.628 48.6122 201.371 48.6122C202.772 48.6122 204.111 48.3193 205.381 47.7311C206.62 47.1661 207.721 46.3372 208.609 45.3018L207.811 48.2976H213.724L219.121 28.0782H213.209L213.2 28.0724ZM243.944 28.0793L243.948 28.0736H240.314C240.197 28.0736 240.095 28.0793 239.989 28.0816H238.103L237.135 29.4318L236.896 29.7522L236.793 29.9124L229.132 40.632L227.548 28.0793H221.273L224.452 47.1544L217.434 56.9151H223.689L225.386 54.4973C225.434 54.4263 225.477 54.3668 225.534 54.2913L227.517 51.4649L227.573 51.3848L236.452 38.7405L243.936 28.0988L243.948 28.0919H243.944V28.0793Z" fill="#072654"/>
</g>
<defs>
<clipPath id="clip0_705_1793">
<rect width="216" height="46" fill="white" transform="translate(28 11)"/>
</clipPath>
</defs>
</svg>
