<svg width="22" height="22" viewBox="0 0 22 22" fill="none" xmlns="http://www.w3.org/2000/svg">
<path d="M11 0.5C5.20142 0.5 0.5 5.20142 0.5 11C0.5 16.7985 5.20142 21.5 11 21.5C16.7985 21.5 21.5 16.7985 21.5 11C21.5 5.20142 16.7985 0.5 11 0.5ZM14.899 11.1189L8.99278 14.644C8.95049 14.6696 8.89664 14.6709 8.85308 14.6452C8.81079 14.6209 8.78388 14.5754 8.78388 14.5248V10.9996V7.4745C8.78388 7.42454 8.81079 7.3784 8.85308 7.354C8.89664 7.32902 8.95049 7.33029 8.99278 7.35527L14.899 10.8811C14.9413 10.9051 14.9663 10.9515 14.9663 10.9996C14.9663 11.0487 14.9414 11.0942 14.899 11.1189Z" fill="#D22E4C"/>
</svg>
