<svg width="109" height="109" viewBox="0 0 109 109" fill="none" xmlns="http://www.w3.org/2000/svg">
<path d="M102.812 102.812L87.5 87.5M50.3125 91.875C55.7706 91.875 61.1752 90.8 66.2178 88.7112C71.2604 86.6225 75.8422 83.5611 79.7016 79.7016C83.5611 75.8422 86.6225 71.2604 88.7112 66.2178C90.8 61.1752 91.875 55.7706 91.875 50.3125C91.875 44.8544 90.8 39.4498 88.7112 34.4072C86.6225 29.3646 83.5611 24.7828 79.7016 20.9234C75.8422 17.0639 71.2604 14.0025 66.2178 11.9138C61.1752 9.82505 55.7706 8.75 50.3125 8.75C39.2894 8.75 28.7179 13.1289 20.9234 20.9234C13.1289 28.7179 8.75 39.2894 8.75 50.3125C8.75 61.3356 13.1289 71.9071 20.9234 79.7016C28.7179 87.4961 39.2894 91.875 50.3125 91.875Z" stroke="black" stroke-width="10.5" stroke-linecap="round" stroke-linejoin="round"/>
</svg>
