<svg width="78" height="51" viewBox="0 0 78 51" fill="none" xmlns="http://www.w3.org/2000/svg">
<path d="M1.59977 0.931523H0.330078C0.330078 2.26443 0.330078 40.2441 0.330078 41.52C5.08598 41.52 49.0505 41.4692 55.5447 41.4612C55.5501 27.7942 55.5572 1.77187 55.5574 0.925781C49.5457 0.925986 10.464 0.930703 1.59977 0.931523Z" fill="white"/>
<path d="M51.1582 41.8715H51.1602V41.0512C50.748 41.056 50.3357 41.0523 49.9235 41.0529L46.5632 41.0572L41.5588 41.0635L35.3896 41.0713L28.5354 41.0797C26.1726 41.0829 23.8098 41.0858 21.4471 41.0884L14.6641 41.0964L8.63688 41.1033L3.84552 41.1082C2.81745 41.1092 1.78928 41.11 0.760991 41.1107H0.32979L0.65958 41.5208V37.1243C0.65958 33.9527 0.65958 30.7815 0.65958 27.6109V0.932526L0.32979 1.34265H2.90215H7.23246H12.9077H19.5374H26.6444H33.8338H40.7147H46.8063H51.7202H55.0455H55.5589L55.2291 0.932526C55.2291 3.19149 55.228 5.45045 55.2257 7.70941C55.2233 12.1843 55.2207 16.6591 55.2181 21.134L55.2136 29.1503C55.2136 29.6779 55.8732 29.6789 55.8732 29.1503C55.8759 24.3781 55.8786 19.6059 55.8813 14.8337C55.8834 11.0597 55.8854 7.28568 55.8874 3.51159C55.8874 2.65197 55.8878 1.79228 55.8887 0.932526C55.8874 0.824249 55.8523 0.720853 55.7907 0.644282C55.7291 0.56771 55.646 0.523991 55.5589 0.522402H52.6865H48.1222H42.2778H35.5426L28.3949 0.519531H21.2302H14.4389H8.50117H3.80611L0.764948 0.522402H0.32979C0.242709 0.523939 0.159542 0.567642 0.0979602 0.644224C0.0363785 0.720807 0.00123598 0.824233 0 0.932526L0 26.2423C0 29.5483 0 32.8544 0 36.1607V41.521C0.00123598 41.6293 0.0363785 41.7328 0.0979602 41.8093C0.159542 41.8859 0.242709 41.9296 0.32979 41.9312C1.19417 41.9312 2.05866 41.9305 2.92326 41.9293L7.34245 41.9248L13.1138 41.9184L19.7574 41.9107L26.7938 41.9022L33.771 41.8936L40.1506 41.8856L45.482 41.8789L49.2853 41.874C49.8842 41.874 50.4853 41.8912 51.0838 41.8715C51.1094 41.8715 51.135 41.8715 51.1604 41.8715C51.2478 41.8715 51.3317 41.8283 51.3936 41.7514C51.4554 41.6745 51.4901 41.5701 51.4901 41.4614C51.4901 41.3526 51.4554 41.2483 51.3936 41.1714C51.3317 41.0944 51.2478 41.0512 51.1604 41.0512H51.1584C50.7339 41.0512 50.7331 41.8715 51.1582 41.8715Z" fill="#211715"/>
<path d="M14.0071 25.2168C14.0106 27.3006 14.019 32.0864 14.019 32.7631L19.4805 32.7493C19.4805 31.8122 19.4805 24.6658 19.4805 24.2598H14.0059C14.0056 24.3201 14.0063 24.6781 14.0071 25.2168Z" fill="white"/>
<path d="M23.1574 21.2625C23.1574 20.5318 23.1562 20.0614 23.1562 20.0059H28.6308V32.7261L23.1671 32.7412C23.1676 31.9064 23.1602 24.3146 23.1574 21.2625Z" fill="white"/>
<path d="M32.3076 17.1317C32.3076 16.3129 32.3066 15.8 32.3066 15.75H37.7812V32.6994C36.0191 32.7043 34.1785 32.7096 32.3193 32.7154C32.3198 31.6413 32.3108 20.9897 32.3076 17.1317Z" fill="#3F88C9"/>
<path d="M14.3487 32.7657C14.3487 30.2888 14.3411 27.8116 14.337 25.3347C14.337 24.9762 14.3365 24.6179 14.3354 24.2597L14.0056 24.6699H19.4801L19.1503 24.2597V32.7518C19.1503 33.2796 19.8099 33.2804 19.8099 32.7518V24.2597C19.8087 24.1514 19.7736 24.048 19.712 23.9714C19.6504 23.8948 19.5672 23.8511 19.4801 23.8496H14.0056C13.9185 23.8511 13.8353 23.8948 13.7737 23.9714C13.7122 24.048 13.677 24.1514 13.6758 24.2597C13.6758 26.6426 13.6839 29.0256 13.6875 31.4086C13.6881 31.861 13.6887 32.3133 13.6891 32.7657C13.6891 33.2935 14.3487 33.2943 14.3487 32.7657Z" fill="#211715"/>
<path d="M23.4991 32.7437C23.4991 31.1827 23.4978 29.6218 23.4953 28.0609C23.4933 25.8995 23.4913 23.7382 23.4892 21.577C23.4892 21.0533 23.4887 20.5296 23.4877 20.0058L23.1579 20.416H28.6324L28.3026 20.0058V32.7295C28.3026 33.2573 28.9622 33.2582 28.9622 32.7295V20.0058C28.961 19.8975 28.9258 19.7941 28.8643 19.7175C28.8027 19.6409 28.7195 19.5972 28.6324 19.5957H23.1579C23.0708 19.5972 22.9877 19.6409 22.9261 19.7175C22.8645 19.7941 22.8294 19.8975 22.8281 20.0058C22.8281 21.3927 22.8294 22.7797 22.8321 24.1667C22.8341 26.3769 22.8361 28.587 22.8382 30.797C22.8382 31.4458 22.8386 32.0947 22.8395 32.7437C22.8395 33.2715 23.4991 33.2723 23.4991 32.7437Z" fill="#211715"/>
<path d="M32.6493 32.7172C32.6493 30.6453 32.6478 28.5732 32.6449 26.501C32.6426 23.6051 32.6402 20.7091 32.6376 17.8131C32.6376 17.1253 32.6371 16.4376 32.6361 15.75L32.3064 16.1601H37.7809L37.4511 15.75V32.7008C37.4511 33.2284 38.1107 33.2294 38.1107 32.7008V15.75C38.1094 15.6417 38.0742 15.5383 38.0127 15.4617C37.9511 15.3852 37.8679 15.3414 37.7809 15.3398H32.3064C32.2193 15.3413 32.1361 15.385 32.0745 15.4616C32.0129 15.5382 31.9778 15.6417 31.9766 15.75C31.9766 17.5834 31.978 19.4169 31.981 21.2505C31.9835 24.2133 31.9859 27.1761 31.9881 30.139C31.9888 30.9984 31.9893 31.8579 31.9898 32.7172C31.9898 33.245 32.6493 33.2458 32.6493 32.7172Z" fill="#211715"/>
<path d="M41.7676 32.2539C40.4594 32.2539 39.1516 32.2575 37.8442 32.2646C35.5743 32.2724 33.3042 32.2808 31.0341 32.29L23.0253 32.3206C20.5408 32.33 18.0564 32.3389 15.572 32.3472C13.8552 32.3527 12.1385 32.357 10.4218 32.3601H10.0216C9.59737 32.3601 9.59654 33.1804 10.0216 33.1804C11.6149 33.1804 13.208 33.1768 14.801 33.1697C17.2168 33.1622 19.6326 33.1537 22.0483 33.1443C24.7264 33.1344 27.4044 33.1242 30.0824 33.1135C32.4374 33.1045 34.7922 33.0957 37.1471 33.0871C38.597 33.0819 40.047 33.0776 41.497 33.0742H41.7676C42.192 33.0742 42.1927 32.2539 41.7676 32.2539Z" fill="#211715"/>
<path d="M38.5637 9.71125C38.5487 9.64303 38.5185 9.58143 38.4767 9.53344C38.4349 9.48544 38.3831 9.45299 38.3273 9.43975C37.9173 9.30133 37.485 9.30133 37.075 9.43975C36.5409 9.60332 36.0573 9.95868 35.6845 10.4616C35.4786 10.7643 35.3241 11.1157 35.2301 11.4946C35.1362 11.8735 35.1047 12.272 35.1377 12.6664C35.1399 12.6899 35.148 12.712 35.1608 12.7295C35.1736 12.747 35.1905 12.7591 35.2091 12.764C35.495 12.859 36.6702 13.1647 37.6047 12.3754C38.0381 12.0273 38.3695 11.5144 38.5495 10.9131C38.6337 10.5201 38.6386 10.1072 38.5637 9.71125Z" fill="#6DBF6B"/>
<path d="M38.8816 9.60186C38.7381 8.98442 38.0997 8.91286 37.6635 8.92742C37.1558 8.94659 36.6593 9.11705 36.2156 9.42449C35.7531 9.72274 35.372 10.1845 35.1201 10.7516C34.8682 11.3187 34.7569 11.9657 34.8001 12.6114C34.8387 13.1172 35.1776 13.1952 35.5103 13.2542C36.314 13.3965 37.1683 13.269 37.8424 12.6675C38.1725 12.3835 38.4513 12.0171 38.6611 11.5916C38.9335 10.9868 39.0123 10.2764 38.8816 9.60248C38.8578 9.49804 38.8019 9.40943 38.726 9.35574C38.6501 9.30204 38.5603 9.28755 38.476 9.31539C38.3925 9.34605 38.3218 9.41571 38.2788 9.50977C38.2358 9.60382 38.2237 9.71496 38.2451 9.81984C38.3274 10.2384 38.2904 10.6795 38.1402 11.0679C38.0009 11.3829 37.813 11.6606 37.5872 11.885C37.5707 11.9018 37.5542 11.918 37.5377 11.9338C37.5936 11.8799 37.5263 11.9433 37.5178 11.9506C37.4909 11.974 37.4642 11.9982 37.4368 12.021C37.2863 12.1493 37.1226 12.2518 36.9502 12.3259C36.6461 12.4493 36.3268 12.5048 36.0072 12.49C35.7915 12.4782 35.5769 12.4447 35.3655 12.3899C35.3504 12.3839 35.3349 12.3792 35.3192 12.3757C35.2341 12.3739 35.4369 12.7209 35.4569 12.5886C35.4585 12.5416 35.4565 12.4946 35.451 12.4481C35.4474 12.2988 35.4532 12.1493 35.4683 12.0011C35.5441 11.3622 35.8167 10.7849 36.2286 10.3916C36.5072 10.1312 36.8246 9.94244 37.1624 9.83625C37.3909 9.76457 37.6268 9.73629 37.8621 9.75238C37.9565 9.75928 38.0504 9.77657 38.1424 9.80405C38.1754 9.81369 38.2074 9.82825 38.2398 9.83625C38.3223 9.85676 38.2626 9.89244 38.2461 9.82128C38.3625 10.327 38.9992 10.1116 38.8816 9.60186Z" fill="#211715"/>
<path d="M31.5371 9.71125C31.5522 9.64303 31.5823 9.58143 31.6241 9.53344C31.6659 9.48544 31.7177 9.45299 31.7736 9.43975C32.1835 9.30133 32.6158 9.30133 33.0258 9.43975C33.5599 9.60328 34.0436 9.95865 34.4165 10.4616C34.6223 10.7644 34.7768 11.1158 34.8707 11.4946C34.9647 11.8735 34.9962 12.272 34.9633 12.6664C34.9611 12.6899 34.953 12.712 34.9401 12.7295C34.9273 12.747 34.9104 12.7591 34.8917 12.764C34.606 12.859 33.4308 13.1647 32.4963 12.3754C32.0629 12.0272 31.7315 11.5144 31.5513 10.9131C31.4672 10.52 31.4623 10.1072 31.5371 9.71125Z" fill="#6DBF6B"/>
<path d="M31.8552 9.81954C31.8371 9.89705 31.7766 9.84537 31.8552 9.83492C31.8739 9.83143 31.8922 9.82566 31.91 9.81769C31.9818 9.79125 32.0554 9.77259 32.1298 9.76191C32.3345 9.73088 32.5418 9.73779 32.7448 9.78242C33.1027 9.85842 33.4436 10.0271 33.7456 10.2776C34.1789 10.6298 34.486 11.1765 34.603 11.8035C34.6289 11.9411 34.6436 12.0816 34.6469 12.2229C34.6394 12.3442 34.638 12.4659 34.6426 12.5875C34.6624 12.7199 34.8654 12.3728 34.7805 12.3746C34.7648 12.3781 34.7493 12.3828 34.7341 12.3888C34.6942 12.3968 34.6548 12.4109 34.6152 12.4205C34.5112 12.448 34.4056 12.4661 34.2995 12.4749C33.6948 12.5606 33.0854 12.3741 32.5818 11.9493C32.5818 11.9493 32.5158 11.8878 32.5513 11.922C32.5788 11.9481 32.4963 11.8667 32.4874 11.8574C32.4303 11.7978 32.3753 11.7353 32.3225 11.6698C32.2132 11.5372 32.1168 11.3892 32.0351 11.2287C31.8279 10.8066 31.7634 10.2996 31.8556 9.81851C31.8765 9.71365 31.8642 9.6028 31.8212 9.5089C31.7782 9.415 31.7079 9.34524 31.6247 9.31406C31.5403 9.28611 31.4505 9.30055 31.3746 9.35426C31.2987 9.40797 31.2428 9.49665 31.2191 9.60115C31.1045 10.2017 31.1526 10.8324 31.3559 11.3954C31.5262 11.8217 31.7707 12.1956 32.0716 12.4899C32.7023 13.1072 33.501 13.3962 34.2996 13.2962C34.5409 13.2713 34.9657 13.2627 35.154 13.0337C35.3749 12.7648 35.3189 12.2425 35.2813 11.8964C35.2299 11.4366 35.1008 10.9955 34.9024 10.6022C34.7041 10.209 34.441 9.87238 34.1305 9.61468C33.689 9.23961 33.1785 9.00911 32.6464 8.94454C32.173 8.88158 31.3815 8.9064 31.2201 9.60073C31.101 10.1095 31.7373 10.3264 31.8552 9.81954Z" fill="#211715"/>
<path d="M34.7173 12.9355C34.7173 13.8288 34.7129 14.7222 34.7129 15.6155C34.7129 15.7242 34.7476 15.8286 34.8095 15.9055C34.8713 15.9824 34.9552 16.0256 35.0427 16.0256C35.1301 16.0256 35.214 15.9824 35.2759 15.9055C35.3377 15.8286 35.3725 15.7242 35.3725 15.6155C35.3725 14.7222 35.3768 13.8288 35.3769 12.9355C35.3769 12.8267 35.3422 12.7224 35.2803 12.6455C35.2185 12.5686 35.1346 12.5254 35.0471 12.5254C34.9597 12.5254 34.8758 12.5686 34.8139 12.6455C34.7521 12.7224 34.7173 12.8267 34.7173 12.9355Z" fill="#211715"/>
<path d="M70.7107 31.074C71.9865 31.6859 73.0217 30.2638 73.0136 29.0697C73.01 28.3894 72.9169 27.7144 72.7379 27.0716C72.511 26.1927 72.0712 24.4074 72.0394 21.2175C72.0778 20.3198 72.0674 19.4199 72.0084 18.524C71.9094 16.7959 71.2881 14.8661 70.3941 13.7934C69.8486 13.1029 69.1908 12.5652 68.4648 12.2163C67.8433 11.9185 67.2655 11.7754 66.1749 11.7754C64.6667 11.8138 63.2186 12.5178 62.0893 13.7616C60.9177 15.156 60.1745 17.7043 60.2682 21.2175C60.2682 23.7779 60.1117 25.6244 59.8919 26.6738C59.7259 27.5413 59.6313 28.4277 59.6094 29.3191C59.6013 30.5129 60.5688 31.8222 61.9951 31.4177L70.7107 31.074Z" fill="#957F6E"/>
<path d="M63.2804 32.2232C63.769 32.5923 64.8194 32.9869 66.1386 32.9869C67.8487 32.9869 68.4837 32.3793 69.1433 31.9253L69.1598 30.0959C68.7578 29.758 68.3754 29.3862 68.2939 29.1356C68.2045 28.7623 68.171 28.3717 68.195 27.9834C69.3337 27.376 70.2497 25.4697 70.4095 24.9304C70.4328 24.8426 70.4794 24.6798 70.522 24.4854L70.6539 24.4602C70.85 24.4195 71.0342 24.3162 71.1885 24.1604C71.3786 23.9594 71.5316 23.7098 71.637 23.4285C71.8605 22.872 71.9568 22.2498 71.9152 21.6299C71.9094 21.4715 71.8769 21.3163 71.8199 21.1745C71.7706 21.0717 71.7034 20.984 71.6233 20.9177C71.5432 20.8515 71.4521 20.8084 71.3568 20.7916C71.2598 20.774 71.1608 20.7825 71.0666 20.8168C70.9724 20.851 70.8853 20.9102 70.8112 20.9901L70.5325 21.3035C70.2971 20.3126 69.9311 19.3771 69.4495 18.5351C69.1705 18.0558 68.7876 17.685 68.3456 17.4659C67.9036 17.2469 67.4206 17.1886 66.953 17.2978L66.9301 17.3035C64.841 17.9973 62.5147 19.5756 61.7654 21.1546C61.697 21.0214 61.5988 20.916 61.4828 20.8514C61.3668 20.7868 61.2382 20.7658 61.1127 20.791C61.0175 20.8078 60.9264 20.8509 60.8463 20.9171C60.7662 20.9834 60.699 21.0711 60.6497 21.1739C60.5927 21.3157 60.5602 21.4709 60.5544 21.6293C60.5127 22.2492 60.609 22.8714 60.8326 23.4279C60.938 23.7092 61.091 23.9588 61.2811 24.1598C61.4787 24.3627 61.727 24.4735 61.9832 24.4731C62.1524 25.2577 62.4532 25.9888 62.8659 26.6185C63.2478 27.2146 63.7372 27.6906 64.2944 28.008C64.3169 28.3883 64.2833 28.7705 64.1954 29.1358C64.1158 29.3806 63.7173 29.7407 63.2885 30.0717C63.2889 30.0715 63.2804 31.711 63.2804 32.2232Z" fill="white"/>
<path d="M71.0444 21.2792C71.08 21.2449 71.1207 21.2197 71.1641 21.2051C71.2075 21.1905 71.2528 21.1867 71.2975 21.194C71.3421 21.2013 71.3851 21.2195 71.424 21.2476C71.4629 21.2758 71.4969 21.3132 71.5241 21.3577C71.5802 21.5036 71.6044 21.6653 71.5944 21.8265C71.6 22.0209 71.5894 22.2154 71.5629 22.407C71.4616 23.0965 71.1836 23.9259 70.5662 24.0635C70.4822 24.0931 70.411 24.1626 70.3678 24.257C70.3246 24.3513 70.313 24.463 70.3354 24.568C70.3602 24.6717 70.4163 24.7595 70.4919 24.813C70.5675 24.8665 70.6568 24.8816 70.7412 24.8551C71.7096 24.6391 72.1722 23.2812 72.245 22.1893C72.283 21.6217 72.2414 20.9823 71.8473 20.616C71.6595 20.4485 71.4315 20.3655 71.2007 20.3807C70.9699 20.3958 70.7502 20.5083 70.5776 20.6995C70.5164 20.7768 70.4821 20.881 70.4821 20.9895C70.4821 21.0981 70.5164 21.2023 70.5776 21.2796C70.6404 21.3544 70.724 21.3961 70.8109 21.3961C70.8978 21.3961 70.9813 21.3544 71.0441 21.2796L71.0444 21.2792Z" fill="#211715"/>
<path d="M61.8915 20.6994C61.7189 20.5082 61.4991 20.3958 61.2684 20.3807C61.0376 20.3655 60.8096 20.4485 60.6218 20.6159C60.2272 20.9809 60.1863 21.6228 60.224 22.1891C60.2969 23.2809 60.7594 24.6388 61.7279 24.855C61.8122 24.8808 61.9013 24.8655 61.9768 24.8121C62.0523 24.7586 62.1085 24.6712 62.1337 24.5679C62.1561 24.4629 62.1445 24.3512 62.1013 24.2569C62.0581 24.1625 61.9868 24.093 61.9028 24.0634C61.286 23.9258 61.0074 23.0963 60.9062 22.4069C60.8812 22.2262 60.8705 22.0428 60.8742 21.8594C60.8644 21.6962 60.8848 21.5323 60.9339 21.3804C60.9595 21.3317 60.9929 21.2901 61.032 21.2583C61.0712 21.2265 61.1152 21.2052 61.1614 21.1957C61.2075 21.1862 61.2547 21.1887 61.3 21.203C61.3454 21.2174 61.3878 21.2433 61.4246 21.2791C61.4876 21.3533 61.5711 21.3946 61.6579 21.3946C61.7447 21.3946 61.8281 21.3533 61.8911 21.2791C61.9523 21.2017 61.9866 21.0975 61.9866 20.989C61.9866 20.8805 61.9523 20.7763 61.8911 20.699L61.8915 20.6994Z" fill="#211715"/>
<path d="M61.9062 31.0208C61.6173 31.1124 61.3139 31.1051 61.0281 30.9995C60.7424 30.894 60.4849 30.6942 60.2831 30.4214C59.8946 29.8765 59.9225 29.2255 59.9739 28.5449C60.049 27.7993 60.1551 27.059 60.292 26.3271C60.4037 25.5924 60.4793 24.8498 60.5184 24.1036C60.5801 23.0833 60.6116 22.053 60.5926 21.03C60.5679 20.0715 60.6211 19.1124 60.7514 18.1673C60.9593 16.7378 61.3737 15.2716 62.1974 14.2053C63.0819 13.0598 64.4488 12.3477 65.7075 12.2109C67.0908 12.0606 68.4894 12.3967 69.6025 13.4716C70.0903 13.9301 70.5043 14.4989 70.8227 15.1482C71.2019 15.9546 71.4642 16.8375 71.5977 17.7568C71.696 18.5224 71.7417 19.2971 71.7341 20.0723C71.7392 20.5374 71.7044 21.0019 71.7121 21.4668C71.7209 21.9813 71.7408 22.4958 71.7746 23.0088C71.8528 24.3415 72.0483 25.6596 72.3577 26.9392C72.542 27.6775 72.775 28.5215 72.6695 29.3065C72.6231 29.6321 72.5078 29.9365 72.3354 30.1883C72.1631 30.4401 71.9399 30.6304 71.6889 30.7394C71.395 30.8448 71.0811 30.8231 70.7984 30.6779C70.3992 30.496 70.2271 31.2886 70.6232 31.4691C70.9625 31.6254 71.3299 31.6621 71.6849 31.575C72.0399 31.488 72.3687 31.2806 72.6349 30.9759C72.8845 30.6896 73.0774 30.3352 73.1985 29.9407C73.3195 29.5461 73.3655 29.1221 73.3327 28.7017C73.2922 27.9008 73.0941 27.1638 72.9169 26.4003C72.7723 25.7738 72.6586 25.1369 72.5762 24.4933C72.4558 23.5235 72.3882 22.5448 72.3739 21.5637C72.3641 21.0667 72.3994 20.57 72.394 20.0721C72.3892 19.6415 72.3735 19.2096 72.3516 18.779C72.2563 16.9103 71.7568 14.9056 70.6674 13.5524C69.6809 12.296 68.3602 11.5294 66.9523 11.396C65.3264 11.2186 63.7029 11.7673 62.3728 12.9436C61.3599 13.8624 60.7239 15.2118 60.3611 16.6868C60.1388 17.6208 60.0038 18.5835 59.9589 19.556C59.8989 20.6734 59.9485 21.7959 59.9137 22.9149C59.8936 23.8041 59.8331 24.6912 59.7323 25.5719C59.64 26.3216 59.4707 27.0496 59.3861 27.8019C59.2916 28.6488 59.1743 29.5421 59.4685 30.3472C59.6087 30.7165 59.8144 31.0414 60.0702 31.2976C60.326 31.5537 60.6251 31.7344 60.9451 31.8261C61.3207 31.9249 61.7091 31.92 62.0829 31.8117C62.4978 31.701 62.3222 30.9094 61.9076 31.0206L61.9062 31.0208Z" fill="#211715"/>
<path d="M66.8428 16.9087C65.7613 17.2711 64.7215 17.8038 63.7485 18.4938C62.9262 19.0797 62.1083 19.8011 61.5641 20.7833C61.3227 21.2191 61.8939 21.6296 62.1337 21.1973C62.6231 20.3137 63.4019 19.6799 64.1405 19.1602C65.0469 18.5259 66.0136 18.0352 67.0181 17.6996C67.4275 17.562 67.2537 16.7707 66.8428 16.9087Z" fill="#211715"/>
<path d="M66.7556 16.4535C68.5452 17.2881 69.6959 19.261 70.2314 21.4775C70.3533 21.9818 70.99 21.7671 70.8675 21.2595C70.5976 20.099 70.1565 19.011 69.5666 18.0511C68.8832 16.9667 67.9709 16.1397 66.9316 15.6624C66.8472 15.6344 66.7574 15.6489 66.6815 15.7026C66.6056 15.7563 66.5497 15.845 66.5259 15.9495C66.5046 16.0544 66.5167 16.1655 66.5597 16.2595C66.6027 16.3536 66.6734 16.4233 66.7568 16.4541L66.7556 16.4535Z" fill="#211715"/>
<path d="M70.2817 23.8182C70.2641 24.109 70.2141 24.3954 70.1333 24.6692C70.1198 24.72 70.1042 24.7703 70.0923 24.8217C70.0859 24.849 70.0593 24.9167 70.0992 24.8051C70.0776 24.8654 70.0553 24.9249 70.0316 24.9837C69.8864 25.3351 69.7184 25.6712 69.5292 25.9885C69.0952 26.7288 68.5037 27.5124 67.7648 27.7279C67.3526 27.8484 67.5265 28.6396 67.9401 28.5188C68.843 28.2555 69.5427 27.3385 70.0738 26.4442C70.5319 25.6729 70.9088 24.7986 70.9408 23.8194C70.9573 23.2916 70.2977 23.2924 70.2813 23.8194L70.2817 23.8182Z" fill="#211715"/>
<path d="M61.567 24.0811C61.9426 26.2765 63.2304 28.4356 65.1336 28.6897C65.2209 28.6889 65.3045 28.6455 65.3662 28.5687C65.4279 28.492 65.4628 28.3881 65.4634 28.2796C65.4615 28.1715 65.4262 28.0686 65.3648 27.9922C65.3033 27.9157 65.2205 27.8718 65.1336 27.8694C64.3689 27.7669 63.7179 27.1927 63.2167 26.4984C62.6986 25.746 62.3489 24.837 62.203 23.8631C62.1147 23.347 61.4787 23.5654 61.567 24.0811Z" fill="#211715"/>
<path d="M67.8653 27.9841C67.8596 28.2305 67.8661 28.477 67.8849 28.7224C67.8949 28.9782 67.9541 29.2273 68.0577 29.4487C68.291 29.8678 68.6599 30.168 68.994 30.4498C69.0696 30.504 69.1594 30.519 69.2438 30.4915C69.3283 30.464 69.4006 30.3962 69.4451 30.3028C69.4872 30.2082 69.4983 30.0972 69.4763 29.9927C69.4543 29.8882 69.4008 29.7983 69.3269 29.7415C69.2472 29.6745 69.1681 29.6062 69.0903 29.5365C69.0484 29.4987 69.0078 29.4602 68.9658 29.4214C68.9921 29.4462 68.9811 29.4364 68.9615 29.4169C68.9418 29.3974 68.9237 29.3794 68.9049 29.3603C68.8429 29.2971 68.7824 29.2319 68.7248 29.1626C68.6998 29.1325 68.6754 29.1011 68.6516 29.0691C68.6403 29.0533 68.6294 29.0338 68.6168 29.0193C68.589 28.9867 68.6602 29.1013 68.6272 29.0351C68.6142 29.0092 68.6027 28.9787 68.5885 28.9543C68.572 28.9256 68.6096 29.0363 68.5985 28.9809C68.5931 28.9545 68.5842 28.9287 68.5781 28.9022C68.5667 28.853 68.5575 28.8032 68.5499 28.7529C68.5456 28.7242 68.542 28.6955 68.5384 28.6666C68.543 28.7047 68.5426 28.7127 68.5397 28.6697C68.5232 28.4412 68.5232 28.2132 68.5248 27.9843C68.5248 27.8756 68.4901 27.7713 68.4282 27.6943C68.3664 27.6174 68.2825 27.5742 68.195 27.5742C68.1076 27.5742 68.0237 27.6174 67.9618 27.6943C67.9 27.7713 67.8653 27.8756 67.8653 27.9843V27.9841Z" fill="#211715"/>
<path d="M63.9656 28.0088C63.9668 28.2333 63.964 28.4558 63.9501 28.6798C63.9452 28.7606 63.9569 28.642 63.9501 28.6913C63.9467 28.7136 63.9442 28.7362 63.9407 28.7585C63.9326 28.8131 63.9222 28.8671 63.9094 28.9203C63.9002 28.9448 63.8933 28.9705 63.889 28.997C63.8866 28.987 63.9219 28.9207 63.901 28.9607C63.8939 28.9738 63.8875 28.9884 63.8814 29.0017C63.8664 29.0351 63.8415 29.039 63.8979 28.9798C63.851 29.0292 63.8129 29.0973 63.7669 29.1494C63.7364 29.184 63.7049 29.2174 63.6729 29.25C63.6594 29.264 63.6456 29.2777 63.6317 29.2911C63.5639 29.3587 63.6647 29.263 63.622 29.3003C63.4584 29.4438 63.2947 29.5851 63.1243 29.717C63.0488 29.7719 62.9939 29.8618 62.9717 29.9671C62.9495 30.0723 62.9619 30.1842 63.006 30.2781C63.0502 30.372 63.1225 30.4403 63.2071 30.4679C63.2918 30.4955 63.3817 30.4802 63.4573 30.4253C63.6386 30.2846 63.8184 30.1382 63.9884 29.977C64.154 29.8317 64.3018 29.6571 64.4268 29.4588C64.5266 29.261 64.5855 29.0356 64.5983 28.8026C64.6225 28.5388 64.6318 28.2732 64.6262 28.0078C64.6262 27.899 64.5915 27.7947 64.5296 27.7178C64.4678 27.6409 64.3839 27.5977 64.2964 27.5977C64.2089 27.5977 64.1251 27.6409 64.0632 27.7178C64.0014 27.7947 63.9666 27.899 63.9666 28.0078L63.9656 28.0088Z" fill="#211715"/>
<path d="M69.2313 50.0752C69.1046 49.6362 69.0038 49.1864 68.9298 48.7292C68.853 48.1382 68.7773 47.5138 68.7127 46.8379C67.4732 46.85 64.2605 46.9298 63.5613 46.9298H63.3824C63.3181 47.5704 63.2457 48.165 63.1724 48.7292C63.0983 49.1863 62.9976 49.6362 62.8711 50.0752H69.2313Z" fill="white"/>
<path d="M72.2623 41.2059C72.3869 40.5454 72.5132 39.7254 72.6341 38.8333H75.7237C75.0807 36.747 74.9684 35.5503 74.3258 33.464C74.2148 33.0849 74.0436 32.7375 73.8225 32.4424C73.606 32.1541 73.2709 32.0733 72.9853 31.902C72.1444 31.3968 70.7593 30.8833 69.8358 30.3436C69.6406 30.0477 69.4343 29.7489 69.2073 29.4339L68.6631 29.2793C68.8656 31.4831 68.7629 33.7107 68.6598 35.9251C68.6209 36.7659 68.5417 38.4269 68.5053 40.3096C68.4936 40.918 68.4863 41.5492 68.4863 42.183C68.4849 44.3773 68.6333 46.5677 68.9301 48.7306C69.0041 49.1878 69.1048 49.6377 69.2315 50.0767H72.4598C72.1843 47.6588 71.943 44.6835 71.943 44.1504C71.9585 43.1569 72.0656 42.169 72.2623 41.2059Z" fill="#FAD97F"/>
<path d="M63.173 48.7287C63.4697 46.5657 63.6182 44.3753 63.6167 42.1811C63.6167 39.5864 63.4949 37.034 63.4433 35.9232C63.3402 33.7085 63.2375 31.4811 63.44 29.2773L63.0231 29.432C62.8277 29.7033 62.6475 29.9627 62.4778 30.2196C61.564 30.8046 60.0299 31.3575 59.125 31.9011C58.8396 32.0727 58.5043 32.1531 58.288 32.4414C58.0668 32.7365 57.8955 33.084 57.7846 33.4631C57.3906 34.742 57.1959 35.6868 56.956 36.7071C56.7995 37.3726 56.6239 38.0702 56.3614 38.9136C55.993 37.8407 55.6708 36.8454 55.306 35.7284C54.3813 36.3337 52.9089 37.1726 51.9844 37.4226C52.4461 39.2559 52.9078 41.2296 53.5565 43.0649C54.0078 44.3408 54.4913 45.6487 55.5967 45.8712C55.9713 45.9232 56.3505 45.8786 56.7106 45.74C57.0707 45.6015 57.4039 45.3721 57.6894 45.0661C58.3334 44.2965 58.9327 43.4711 59.4828 42.5961L59.6312 42.3543L59.9503 41.8355C60.082 42.5957 60.1522 43.3704 60.1599 44.148C60.1599 44.6824 59.9186 47.6568 59.6431 50.0743H62.8717C62.9983 49.6355 63.099 49.1857 63.173 48.7287Z" fill="#FAD97F"/>
<path d="M53.9749 31.2227C53.8323 31.027 53.7319 30.7896 53.6832 30.5327C53.6052 30.0893 53.4157 29.5074 53.037 29.4795C52.9512 29.4723 52.8664 29.5054 52.7993 29.5721C52.7321 29.6388 52.6875 29.7344 52.6742 29.84C52.6742 29.84 52.6498 29.9425 52.6105 30.1086C52.5215 30.0673 52.4296 30.0361 52.336 30.0155C51.679 29.8658 50.9614 30.0467 50.938 30.4689C50.908 30.6789 50.9515 30.8655 51.0846 31.1967C50.9678 31.3418 50.8833 31.7587 50.9723 31.8477C50.9723 31.8477 50.9988 31.9476 51.0294 32.0612C50.9524 32.0377 50.8718 32.0405 50.7961 32.0694C50.7204 32.0983 50.6524 32.1521 50.5993 32.2252C50.4646 32.4098 50.3619 32.805 50.5244 32.9495C50.596 33.0131 50.6593 33.0771 50.7205 33.1394L50.7106 33.1376C50.4377 33.0199 50.0585 33.3195 50.081 33.6297C50.1214 33.8796 50.2382 34.1002 50.4069 34.2449L50.4293 34.2668L50.5413 34.4977C50.8142 35.0606 51.1671 35.5571 51.5827 35.9631C51.7005 36.0779 51.8232 36.1854 51.9369 36.3062C52.1249 36.5058 52.2872 36.74 52.4183 37.0007L52.4953 37.1679C53.0079 36.9316 54.2659 36.3437 54.9182 35.9514C54.9059 35.8237 54.8973 35.7298 54.8973 35.7298C54.797 34.0806 54.7489 32.4771 54.5129 32.0226C54.3487 31.7408 54.1689 31.4735 53.9749 31.2227Z" fill="white"/>
<path d="M51.1503 34.0159C51.1598 34.0323 51.1859 34.0993 51.161 34.0284C51.1298 33.9398 51.1633 34.0942 51.1536 33.997C51.1455 33.915 51.1523 34.0025 51.1519 34.0222C51.1519 34.0325 51.1504 34.0427 51.1508 34.0534C51.1521 34.102 51.1681 33.9508 51.1546 34.0181C51.1504 34.0386 51.1471 34.0604 51.1424 34.0811C51.1389 34.0964 51.1122 34.1836 51.1358 34.1124C51.1593 34.0413 51.1298 34.1231 51.1231 34.1372C51.1183 34.145 51.114 34.1533 51.1104 34.1621C51.102 34.1943 51.1542 34.1036 51.1348 34.1237C51.1274 34.131 51.1209 34.1394 51.1153 34.1487C51.102 34.1731 51.1503 34.1145 51.1527 34.1139C51.1332 34.1247 51.1147 34.1385 51.0978 34.1549C51.0701 34.177 51.1331 34.1379 51.1331 34.1379C51.1238 34.1414 51.1146 34.1455 51.1056 34.1502C51.0804 34.1608 51.0547 34.1694 51.0286 34.176C50.9541 34.1949 51.0827 34.176 51.0261 34.176C51.006 34.176 50.9862 34.1781 50.9661 34.176C50.9536 34.176 50.9387 34.1715 50.9267 34.1727C50.9267 34.1727 50.9989 34.191 50.9669 34.1781C50.9414 34.1678 50.914 34.1576 50.8883 34.1489C50.8535 34.1366 50.9108 34.1586 50.9123 34.1627C50.91 34.1567 50.8855 34.1469 50.8803 34.1436C50.8554 34.1284 50.8309 34.112 50.8073 34.0946C50.7594 34.059 50.713 34.0205 50.6683 33.9791C50.6562 33.9661 50.6434 33.9541 50.6299 33.9435C50.6312 33.9435 50.6782 33.9915 50.6495 33.9619C50.6295 33.9414 50.6094 33.9219 50.59 33.9004C50.5507 33.8575 50.5159 33.8104 50.48 33.7634C50.4381 33.7087 50.5103 33.8215 50.4765 33.7593C50.4622 33.7331 50.448 33.7068 50.4353 33.6791C50.43 33.6675 50.4252 33.6554 50.42 33.6437C50.3923 33.5821 50.4277 33.6584 50.4275 33.6691C50.4237 33.6347 50.4161 33.6012 50.4048 33.5694C50.4064 33.5725 50.4066 33.649 50.4106 33.6186C50.4113 33.6096 50.4113 33.6004 50.4106 33.5914C50.4068 33.5282 50.3989 33.706 50.4096 33.6195C50.4111 33.6104 50.4135 33.6016 50.4167 33.5932C50.4257 33.5908 50.3777 33.6808 50.3992 33.6482C50.4066 33.6367 50.4501 33.5536 50.4124 33.6158C50.3766 33.6744 50.4247 33.6051 50.4368 33.5893C50.4419 33.5826 50.4519 33.5762 50.4559 33.5688C50.4463 33.5893 50.3899 33.6242 50.4374 33.5877C50.4549 33.5744 50.4719 33.5604 50.4902 33.5483C50.5012 33.5427 50.5118 33.5358 50.5219 33.5278C50.5143 33.5366 50.4496 33.5598 50.4925 33.5442C50.5153 33.536 50.5374 33.5262 50.5606 33.5198C50.569 33.5176 50.5783 33.5165 50.5865 33.5137C50.6195 33.5024 50.5003 33.5167 50.5596 33.5198C50.5792 33.521 50.6 33.5217 50.6198 33.5217C50.6599 33.5217 50.5473 33.4954 50.5827 33.5165C50.5961 33.5225 50.6097 33.5273 50.6236 33.5309C50.708 33.5588 50.7978 33.5443 50.8737 33.4906C50.9496 33.4369 51.0054 33.3483 51.0292 33.2438C51.0505 33.1389 51.0384 33.0279 50.9954 32.9338C50.9524 32.8398 50.8818 32.7701 50.7984 32.7393C50.6517 32.6908 50.4974 32.6911 50.3508 32.74C50.2042 32.7889 50.0705 32.8847 49.963 33.018C49.8428 33.16 49.7681 33.3513 49.7526 33.5565C49.7458 33.7597 49.7911 33.9603 49.8819 34.1295C49.965 34.2914 50.0698 34.4344 50.1917 34.5523C50.313 34.6809 50.4467 34.7902 50.5896 34.8777C50.7511 34.9747 50.9316 35.0117 51.1095 34.9844C51.2797 34.9627 51.4407 34.8776 51.5713 34.7401C51.7985 34.4877 51.9076 33.9258 51.7197 33.6022C51.6742 33.5122 51.6043 33.4453 51.5226 33.4138C51.4594 33.392 51.3923 33.3943 51.3301 33.4201C51.2679 33.446 51.2133 33.4944 51.1733 33.5591C51.1333 33.6238 51.1097 33.7018 51.1056 33.7833C51.1015 33.8647 51.117 33.9458 51.1501 34.0163L51.1503 34.0159Z" fill="#211715"/>
<path d="M51.3941 31.7996C51.1931 31.6563 50.9569 31.6089 50.7298 31.6663C50.5377 31.7317 50.3724 31.8842 50.2663 32.0937C50.1611 32.2871 50.1071 32.5165 50.1116 32.7499C50.1145 32.878 50.1453 33.0028 50.2006 33.111C50.242 33.1874 50.2951 33.2528 50.357 33.3036C50.3734 33.3189 50.3899 33.3339 50.4072 33.3495C50.3556 33.3015 50.4361 33.3786 50.4458 33.3882C50.6729 33.6171 50.9131 33.8236 51.1483 34.0393C51.2417 34.1311 51.3422 34.2113 51.4482 34.2788C51.6282 34.3803 51.8318 34.3963 52.0206 34.3237C52.1357 34.2858 52.2419 34.2143 52.3305 34.1151C52.419 34.016 52.4872 33.8921 52.5296 33.7537C52.574 33.6053 52.5882 33.4456 52.5712 33.2888C52.5541 33.1319 52.5063 32.9827 52.4318 32.8543C52.3864 32.7621 52.3141 32.6954 52.23 32.668C52.1459 32.6406 52.0566 32.6546 51.9807 32.7072C51.9059 32.763 51.8516 32.8529 51.8295 32.9578C51.8074 33.0626 51.8192 33.1741 51.8623 33.2683C51.8862 33.3081 51.9068 33.3509 51.9238 33.3958C51.9169 33.3766 51.9073 33.3269 51.9177 33.3919C51.9281 33.4569 51.9119 33.3831 51.9187 33.3745C51.9099 33.3856 51.9329 33.5076 51.9221 33.436C51.9147 33.3864 51.9236 33.4223 51.918 33.4492C51.9165 33.4563 51.9015 33.5117 51.9015 33.5123C51.8949 33.5043 51.9416 33.4243 51.9088 33.4832C51.9027 33.4928 51.8975 33.5032 51.8934 33.5144C51.8824 33.5609 51.9395 33.4528 51.9111 33.4877C51.8827 33.5226 51.8882 33.4953 51.9076 33.4984L51.9251 33.4826C51.9165 33.4904 51.9078 33.4975 51.8986 33.5043C51.8893 33.5111 51.8796 33.5172 51.8705 33.5248C51.8211 33.5621 51.8794 33.5137 51.8883 33.5166C51.8698 33.5211 51.8516 33.5279 51.8342 33.5371C51.8196 33.5418 51.8044 33.5447 51.7899 33.5496C51.7462 33.5644 51.8559 33.5455 51.8107 33.5466C51.7854 33.5466 51.7599 33.5466 51.7346 33.5486C51.6672 33.5513 51.8037 33.5564 51.7419 33.5486C51.7345 33.5486 51.7274 33.5398 51.7201 33.539C51.7322 33.5404 51.8026 33.5898 51.7559 33.556C51.6753 33.4983 51.5971 33.4356 51.5216 33.3682C51.3699 33.2316 51.2177 33.0964 51.0657 32.9609C51.0579 32.9541 51.0108 32.9109 51.0436 32.9414C51.0764 32.972 51.0297 32.9277 51.0223 32.9209C50.9966 32.8953 50.9712 32.8692 50.9456 32.8434C50.9155 32.8128 50.8853 32.7819 50.8548 32.7526C50.8243 32.7232 50.7946 32.6939 50.7644 32.6654C50.755 32.6566 50.6963 32.5873 50.729 32.6332C50.769 32.6894 50.6971 32.5768 50.7454 32.6562C50.7756 32.7062 50.7576 32.675 50.752 32.6623C50.7875 32.7423 50.7748 32.7316 50.7669 32.6988C50.7515 32.6351 50.7745 32.7329 50.7707 32.7398C50.7717 32.7237 50.7717 32.7076 50.7707 32.6914C50.769 32.6361 50.7896 32.7031 50.7659 32.7253C50.7766 32.7152 50.7824 32.6406 50.7867 32.6227C50.7857 32.6266 50.8 32.5723 50.8013 32.5725C50.8071 32.5739 50.7684 32.6533 50.7994 32.586C50.8078 32.568 50.8478 32.5069 50.8477 32.4882C50.8477 32.4987 50.7941 32.5596 50.832 32.5161C50.8444 32.5028 50.8562 32.4885 50.8671 32.4733C50.892 32.4357 50.8106 32.5087 50.847 32.4921C50.8619 32.4832 50.8761 32.4727 50.8896 32.4608C50.9303 32.4296 50.8793 32.488 50.8661 32.4724C50.8795 32.4689 50.8927 32.4642 50.9056 32.4583C50.957 32.4366 50.8915 32.4644 50.8807 32.4601C50.8992 32.4618 50.9179 32.4612 50.9364 32.4583C50.9502 32.4583 50.9967 32.4714 50.9512 32.4583C50.8991 32.4429 50.9707 32.4661 50.9811 32.4698C50.9986 32.4757 51.0154 32.4833 51.0325 32.4903C50.9765 32.4675 51.0419 32.4964 51.0617 32.5091C51.1372 32.564 51.2272 32.5794 51.3118 32.5518C51.3965 32.5242 51.4688 32.4559 51.513 32.362C51.5571 32.2681 51.5694 32.1562 51.5473 32.051C51.5251 31.9457 51.4702 31.8558 51.3946 31.8009L51.3941 31.7996Z" fill="#211715"/>
<path d="M52.1645 32.5563C51.9084 32.2982 51.6596 32.0293 51.4078 31.7648C51.3606 31.715 51.3131 31.6658 51.2652 31.6169C51.2513 31.6028 51.2378 31.5864 51.2229 31.5741C51.1941 31.5505 51.1985 31.5206 51.2421 31.6186C51.2879 31.7211 51.2658 31.7035 51.2602 31.6707C51.2808 31.7925 51.2653 31.7388 51.2653 31.6986C51.2673 31.683 51.2679 31.6673 51.2671 31.6516C51.2836 31.7037 51.2528 31.7351 51.2661 31.6721C51.2746 31.6325 51.2813 31.593 51.292 31.554C51.2958 31.5364 51.3009 31.5192 51.3072 31.5027C51.3115 31.5013 51.2742 31.5827 51.3004 31.5282C51.3104 31.5114 51.3188 31.4932 51.3253 31.474C51.3393 31.4474 51.3311 31.4595 51.3008 31.5103C51.3068 31.5008 51.3135 31.4918 51.3206 31.4835C51.3308 31.4718 51.37 31.4408 51.3329 31.4668C51.2835 31.5009 51.3614 31.4519 51.3603 31.4515C51.3591 31.4511 51.282 31.481 51.3483 31.4591L51.3951 31.4437C51.4625 31.4211 51.3786 31.4467 51.3799 31.4459C51.3859 31.4371 51.431 31.4447 51.4413 31.4459H51.4536C51.4912 31.4503 51.4865 31.4495 51.4394 31.4435C51.4643 31.4459 51.4885 31.4542 51.5108 31.4679C51.5085 31.464 51.4325 31.4176 51.5059 31.4679C51.5239 31.4802 51.5423 31.4915 51.5605 31.5036C51.5997 31.53 51.6385 31.5573 51.6759 31.5856C51.7517 31.6425 51.8251 31.7041 51.8959 31.7701C51.8387 31.717 51.9181 31.7939 51.9338 31.8111C51.9677 31.8468 52.0006 31.8835 52.0327 31.9213C52.0918 31.9904 52.1482 32.0626 52.2031 32.1378C52.2179 32.1583 52.2326 32.1788 52.2468 32.2004C52.261 32.2219 52.2923 32.2795 52.2502 32.2042C52.2689 32.2377 52.2878 32.2707 52.3048 32.3053C52.3242 32.3449 52.342 32.3856 52.3581 32.4274C52.3625 32.439 52.3843 32.5016 52.368 32.4524C52.3503 32.3995 52.3817 32.502 52.3845 32.5118C52.4094 32.5939 52.3729 32.4975 52.3869 32.4958C52.3884 32.5236 52.3879 32.5514 52.3856 32.5791C52.3775 32.583 52.4099 32.4721 52.3856 32.5541L52.3792 32.582C52.367 32.6244 52.3696 32.6189 52.3869 32.5658C52.3814 32.5843 52.3741 32.6019 52.365 32.6181C52.3591 32.6308 52.3528 32.6433 52.346 32.6554C52.3324 32.6804 52.338 32.6722 52.3625 32.6312C52.3607 32.641 52.3343 32.6699 52.331 32.674C52.3228 32.6843 52.3145 32.6946 52.3055 32.7032C52.2868 32.723 52.294 32.7162 52.3272 32.6827C52.3272 32.679 52.2943 32.7126 52.289 32.7103C52.3319 32.6898 52.3352 32.6863 52.2989 32.6999L52.3373 32.6919C52.2646 32.706 52.3568 32.6919 52.3515 32.697C52.335 32.7099 52.2715 32.6574 52.335 32.697C52.293 32.671 52.2528 32.641 52.2145 32.6074C52.2052 32.5992 52.1615 32.5594 52.1993 32.5943C52.24 32.632 52.1711 32.5658 52.1642 32.5586C52.1013 32.484 52.0178 32.4424 51.9309 32.4424C51.844 32.4424 51.7605 32.484 51.6977 32.5586C51.6367 32.6361 51.6026 32.7402 51.6026 32.8486C51.6026 32.9569 51.6367 33.061 51.6977 33.1385C51.8891 33.3315 52.1005 33.5306 52.362 33.5107C52.4934 33.4932 52.6187 33.4325 52.7249 33.3347C52.8311 33.2369 52.9143 33.1056 52.966 32.9544C53.022 32.8122 53.0498 32.6555 53.0472 32.4973C53.0337 32.3227 52.9913 32.1535 52.9225 32.0004C52.8182 31.7613 52.6817 31.5463 52.5188 31.3647C52.1821 30.9634 51.7109 30.524 51.2193 30.6542C51.0956 30.6911 50.9814 30.766 50.8871 30.872C50.7927 30.9781 50.7213 31.1119 50.6793 31.2612C50.6319 31.3812 50.6067 31.5129 50.6055 31.6466C50.6043 31.7803 50.6271 31.9127 50.6722 32.034C50.7379 32.1417 50.8174 32.2352 50.9075 32.3109C50.9829 32.3896 51.0577 32.4696 51.1324 32.5492C51.3191 32.7481 51.5067 32.9453 51.6977 33.1377C51.7605 33.2123 51.844 33.2539 51.9309 33.2539C52.0178 33.2539 52.1013 33.2123 52.1642 33.1377C52.2255 33.0602 52.2598 32.9558 52.2599 32.8471C52.26 32.7384 52.2257 32.634 52.1645 32.5563Z" fill="#211715"/>
<path d="M52.9926 29.9495C52.9967 29.9329 52.9997 29.888 53.0127 29.8864C53.0643 29.8798 53.1144 29.945 53.1454 29.9871C53.26 30.1807 53.3353 30.4058 53.3651 30.6433C53.5026 31.306 53.9241 31.6491 54.209 32.195C54.2791 32.341 54.3241 32.5036 54.3409 32.6724C54.3816 32.936 54.4113 33.2022 54.43 33.4696C54.49 34.2218 54.5226 34.9773 54.568 35.7311C54.5995 36.2542 55.2594 36.2585 55.2276 35.7311C55.1738 34.8376 55.1428 33.9392 55.0516 33.0503C55.0292 32.7371 54.9813 32.4275 54.9087 32.1263C54.8118 31.8222 54.6668 31.5455 54.4822 31.3126C54.3046 31.0651 54.0926 30.8321 54.0167 30.503C53.9591 30.1598 53.8507 29.833 53.6968 29.5392C53.3148 28.9035 52.5627 28.9197 52.3567 29.7326C52.2288 30.2372 52.8654 30.4532 52.9927 29.9506L52.9926 29.9495Z" fill="#211715"/>
<path d="M52.1928 31.1914C52.2487 31.6215 52.339 32.0435 52.4624 32.4513C52.5173 32.6431 52.5573 32.8411 52.5816 33.0425C52.5753 32.9787 52.5839 33.0984 52.5846 33.1105C52.5874 33.1694 52.5877 33.2284 52.5857 33.2873C52.5857 33.2873 52.5748 33.4169 52.5826 33.3542C52.5747 33.413 52.5637 33.4712 52.5496 33.5283C52.5381 33.5802 52.5349 33.6344 52.5403 33.6879C52.5456 33.7414 52.5594 33.793 52.5808 33.8398C52.6022 33.8867 52.6308 33.9278 52.665 33.9609C52.6991 33.994 52.7382 34.0184 52.78 34.0327C52.8217 34.047 52.8654 34.051 52.9083 34.0443C52.9513 34.0377 52.9928 34.0206 53.0305 33.9939C53.0682 33.9673 53.1013 33.9318 53.1279 33.8893C53.1545 33.8468 53.1741 33.7982 53.1856 33.7462C53.2759 33.2884 53.2571 32.8078 53.1317 32.3629C53.0822 32.1597 53.023 31.9604 52.9699 31.7586C52.9437 31.6583 52.9188 31.5574 52.8975 31.4553C52.887 31.4046 52.8773 31.3528 52.8689 31.3025C52.8641 31.2734 52.8596 31.2441 52.8557 31.2148C52.8492 31.1639 52.8481 31.1561 52.8527 31.1914C52.8506 31.0834 52.8151 30.9807 52.7537 30.9043C52.6924 30.828 52.6097 30.7839 52.5229 30.7812C52.3616 30.7903 52.1713 30.9633 52.1931 31.1914H52.1928Z" fill="#211715"/>
<path d="M52.0126 31.4846C52.3691 31.555 52.8215 31.6017 53.1164 31.2855C53.1878 31.2042 53.2447 31.1051 53.2834 30.9948C53.3221 30.8844 53.3417 30.7652 53.3411 30.6448C53.3405 30.5244 53.3195 30.4055 53.2797 30.2958C53.2398 30.186 53.1819 30.0879 53.1096 30.0078C52.7985 29.6645 52.3536 29.5696 51.9507 29.5546C51.6097 29.5419 51.2003 29.5901 50.9119 29.8417C50.8251 29.9126 50.7511 30.0052 50.6946 30.1136C50.6674 30.168 50.6463 30.2267 50.6317 30.2881C50.6197 30.34 50.6017 30.529 50.6164 30.3906C50.5896 30.705 50.6397 31.022 50.76 31.3005C50.8044 31.394 50.8767 31.462 50.9612 31.4896C51.0457 31.5172 51.1356 31.5021 51.2112 31.4477C51.2849 31.3907 51.3382 31.3008 51.3602 31.1964C51.3823 31.092 51.3713 30.9811 51.3296 30.8865C51.3199 30.8648 51.3117 30.8421 51.3053 30.8186C51.2926 30.7776 51.2809 30.7349 51.2715 30.6919C51.2679 30.6755 51.2536 30.5768 51.2587 30.6314C51.2638 30.6859 51.2598 30.5801 51.2597 30.5612C51.2597 30.5518 51.2597 30.4975 51.2597 30.5541C51.2577 30.658 51.2559 30.3773 51.2653 30.5022C51.2712 30.5787 51.2804 30.4569 51.2615 30.5247C51.2377 30.6092 51.2954 30.4735 51.255 30.5411C51.2179 30.6027 51.3123 30.5001 51.2631 30.5323C51.2173 30.5631 51.2786 30.5215 51.29 30.513C51.3093 30.4989 51.3309 30.4884 51.3499 30.4737C51.3794 30.4507 51.3289 30.4843 51.3259 30.4856C51.3424 30.479 51.3573 30.4708 51.3729 30.4651C51.4021 30.4528 51.4318 30.4419 51.4617 30.4323C51.5169 30.4142 51.5728 30.4021 51.629 30.3898C51.6801 30.3787 51.5782 30.3935 51.6313 30.3898C51.6467 30.3898 51.6622 30.3859 51.6775 30.3843C51.7142 30.3806 51.7511 30.3779 51.7881 30.3763C51.8592 30.373 51.9305 30.3738 52.0015 30.3781C52.0345 30.3802 52.068 30.383 52.1019 30.3867L52.1524 30.3929C52.209 30.3996 52.1092 30.3843 52.1656 30.3943C52.2408 30.4075 52.3154 30.4263 52.3889 30.4505C52.4206 30.4612 52.4521 30.4731 52.4833 30.4864C52.498 30.4925 52.5125 30.5001 52.5272 30.5069C52.5645 30.5225 52.4896 30.4809 52.5425 30.5165C52.5663 30.5325 52.5904 30.5473 52.6133 30.5647C52.6426 30.5871 52.6684 30.6184 52.6266 30.5709C52.6444 30.5941 52.6631 30.616 52.6829 30.6365C52.7145 30.6648 52.6555 30.6031 52.6636 30.6025C52.6721 30.6148 52.6792 30.6286 52.6845 30.6435C52.6845 30.6513 52.7102 30.696 52.6845 30.639C52.6616 30.5873 52.6791 30.6316 52.6845 30.6428C52.7132 30.7136 52.6659 30.578 52.687 30.65C52.7119 30.7347 52.6845 30.6141 52.6936 30.6277C52.6926 30.6422 52.6899 30.6564 52.6855 30.6699C52.6652 30.7046 52.6971 30.6424 52.6982 30.64C52.6897 30.6565 52.6819 30.6735 52.6748 30.691C52.6748 30.691 52.7068 30.626 52.6881 30.6664C52.6802 30.6835 52.6275 30.7279 52.6858 30.6716C52.6822 30.6748 52.642 30.7038 52.6764 30.6814C52.7109 30.659 52.6665 30.6851 52.6581 30.6876C52.6448 30.6917 52.6314 30.6958 52.6179 30.6992C52.61 30.7013 52.6014 30.7027 52.5942 30.7046C52.5282 30.7214 52.6133 30.7025 52.6134 30.7021C52.5511 30.7138 52.4881 30.7182 52.4251 30.7152C52.3461 30.7155 52.2672 30.709 52.1888 30.696C52.1045 30.6698 52.0153 30.6851 51.9398 30.7385C51.8643 30.792 51.8082 30.8795 51.7832 30.983C51.761 31.088 51.7727 31.1995 51.8159 31.2938C51.859 31.3881 51.9302 31.4577 52.0141 31.4875L52.0126 31.4846Z" fill="#211715"/>
<path d="M50.2565 34.7043C50.4993 35.205 50.801 35.6577 51.1516 36.0472C51.3315 36.2453 51.542 36.4243 51.7038 36.596C51.8722 36.7702 52.0172 36.9765 52.1335 37.2073C52.1554 37.2538 52.1844 37.2945 52.2189 37.327C52.2534 37.3596 52.2927 37.3834 52.3346 37.3971C52.3765 37.4107 52.4202 37.414 52.4631 37.4067C52.506 37.3994 52.5474 37.3816 52.5848 37.3544C52.6222 37.3272 52.6549 37.2911 52.6811 37.2482C52.7072 37.2053 52.7264 37.1564 52.7374 37.1043C52.7483 37.0522 52.751 36.9979 52.7451 36.9445C52.7392 36.8912 52.7249 36.8398 52.7031 36.7933C52.5695 36.528 52.4079 36.2863 52.2226 36.0745C52.0367 35.8653 51.8441 35.7107 51.6693 35.5243C51.3351 35.1742 51.05 34.7574 50.8256 34.2911C50.7814 34.1972 50.7091 34.1289 50.6245 34.1013C50.5398 34.0737 50.4499 34.0891 50.3743 34.144C50.2988 34.1989 50.2439 34.2888 50.2217 34.3941C50.1995 34.4993 50.2119 34.6112 50.256 34.7051L50.2565 34.7043Z" fill="#211715"/>
<path d="M49.2031 20.8034C49.8892 23.1206 50.5568 25.4441 51.2562 27.7549C51.4659 28.4479 51.6792 29.1391 51.896 29.8285C51.9213 29.9318 51.9775 30.0191 52.0529 30.0725C52.1284 30.1258 52.2174 30.1413 52.3018 30.1156C52.3858 30.0862 52.4572 30.0167 52.5004 29.9223C52.5436 29.8279 52.5552 29.7161 52.5326 29.6112C51.7517 27.1406 51.0278 24.6423 50.2981 22.1469C50.1458 21.6263 49.9929 21.1059 49.8396 20.5856C49.6941 20.0934 49.0563 20.3069 49.2036 20.8038L49.2031 20.8034Z" fill="#211715"/>
<path d="M48.562 20.0797C48.582 20.1412 48.6852 20.4566 48.8552 20.9763C48.8983 21.1081 48.9815 21.2135 49.0868 21.2694C49.1921 21.3252 49.3108 21.327 49.4172 21.2744L49.9051 21.0312C50.0112 20.9782 50.0961 20.875 50.1412 20.7444C50.1863 20.6138 50.1881 20.4662 50.146 20.334C49.9811 19.8133 49.9265 19.6462 49.8593 19.4381C49.7089 18.9734 49.2129 18.559 48.891 18.6908C48.6135 18.8046 48.3857 19.5394 48.562 20.0797Z" fill="#A0A0A0"/>
<path d="M48.2459 20.1897C48.3023 20.3623 48.3587 20.5349 48.4152 20.7075C48.5295 21.0573 48.6174 21.4371 48.9099 21.6177C49.0609 21.7119 49.2324 21.7426 49.3986 21.7053C49.5395 21.6615 49.6763 21.5997 49.8069 21.5207C49.9697 21.4588 50.1224 21.3616 50.2581 21.2337C50.3666 21.1112 50.4444 20.9524 50.4822 20.7764C50.5567 20.4171 50.4269 20.104 50.323 19.7789C50.2584 19.5768 50.1999 19.3659 50.1234 19.1701C49.9082 18.6197 49.3116 18.1001 48.8042 18.2961C48.669 18.3653 48.5484 18.4725 48.452 18.6092C48.3555 18.7459 48.2858 18.9084 48.2482 19.0842C48.1449 19.4413 48.1438 19.8317 48.245 20.1897C48.2699 20.2933 48.326 20.381 48.4015 20.4345C48.4771 20.4879 48.5664 20.5031 48.6507 20.4768C48.7346 20.4469 48.8057 20.3774 48.8489 20.2831C48.892 20.1888 48.9037 20.0772 48.8815 19.9723C48.8646 19.9153 48.8505 19.8571 48.8392 19.798C48.8238 19.7226 48.8355 19.78 48.8372 19.798C48.8344 19.7677 48.8329 19.7365 48.8321 19.7068C48.831 19.652 48.8322 19.5973 48.8355 19.5427C48.8415 19.4297 48.8235 19.5911 48.8375 19.5257C48.8449 19.4912 48.8489 19.4554 48.856 19.4207C48.8667 19.3696 48.8805 19.3206 48.8944 19.2708C48.8721 19.351 48.8898 19.2823 48.8989 19.2612C48.9079 19.24 48.9185 19.2134 48.9294 19.19C48.9378 19.1722 48.9477 19.1551 48.9559 19.1373C48.9922 19.0584 48.9218 19.1685 48.9544 19.1373C48.9683 19.1218 48.9811 19.1049 48.9927 19.0867C49.0334 19.0276 48.9373 19.1312 48.9907 19.0867C49.0009 19.0772 49.012 19.0693 49.0237 19.0631C49.0131 19.0577 48.945 19.0903 49.0121 19.0758C49.0586 19.0657 48.9285 19.0717 49.0045 19.0772C49.02 19.0785 49.0375 19.0772 49.0525 19.0772C49.1109 19.0772 49.0504 19.0772 49.0385 19.0739C49.0637 19.0817 49.089 19.0877 49.1139 19.0969C49.1304 19.1033 49.1469 19.1121 49.1645 19.1174C49.0967 19.093 49.1719 19.1225 49.1868 19.132C49.2296 19.1595 49.2692 19.1923 49.3098 19.224C49.3197 19.2318 49.3592 19.271 49.3136 19.2255C49.3287 19.2409 49.3439 19.2567 49.3584 19.2731C49.3953 19.3141 49.4283 19.358 49.462 19.4029C49.5038 19.4588 49.4737 19.4184 49.4649 19.4041C49.4814 19.4324 49.4979 19.4617 49.5128 19.4921C49.5276 19.5224 49.5395 19.5536 49.553 19.5827C49.5665 19.6118 49.5875 19.6264 49.5479 19.5653C49.5596 19.5917 49.5687 19.6198 49.5749 19.6489C49.5969 19.7173 49.6189 19.7856 49.6409 19.854C49.7108 20.0718 49.7812 20.2893 49.846 20.5102C49.8552 20.5414 49.8419 20.5717 49.846 20.5022C49.846 20.5045 49.842 20.6144 49.8482 20.5475C49.8543 20.4807 49.8381 20.5857 49.8373 20.5898C49.8404 20.5736 49.8702 20.519 49.8392 20.5826C49.8369 20.5873 49.788 20.6646 49.8201 20.6236C49.8549 20.5789 49.7906 20.6541 49.7904 20.6544C49.8038 20.6402 49.8399 20.6181 49.7904 20.6484C49.706 20.6995 49.8612 20.6166 49.7438 20.6744C49.6307 20.73 49.518 20.787 49.4052 20.8432C49.3546 20.8693 49.3027 20.8916 49.2499 20.9099C49.3093 20.8894 49.2779 20.9033 49.2563 20.9043C49.218 20.9015 49.2206 20.9031 49.2643 20.9092L49.2384 20.9021C49.1595 20.8543 49.2928 20.9554 49.2186 20.8953C49.2006 20.8809 49.1508 20.8213 49.1985 20.8828C49.1859 20.8666 49.1732 20.8516 49.161 20.8346C49.2069 20.8986 49.1599 20.8207 49.1525 20.803C49.176 20.859 49.1412 20.7682 49.136 20.7544L49.0941 20.6263L49.0262 20.4189L48.8802 19.9723C48.8552 19.8688 48.7991 19.7813 48.7236 19.7279C48.6481 19.6744 48.5589 19.6592 48.4746 19.6852C48.391 19.7155 48.3203 19.7852 48.2776 19.8795C48.2348 19.9738 48.2234 20.0851 48.2459 20.1897Z" fill="#211715"/>
<path d="M67.1053 32.3671C67.6033 32.2911 68.0967 32.1741 68.5823 32.0168L68.7802 31.9508C68.784 33.2749 68.7225 34.6021 68.661 35.9245C68.6093 37.0361 68.4875 39.5877 68.4875 42.1824C68.4847 43.7387 68.5597 45.2937 68.7121 46.8385C68.5244 46.8371 68.4204 46.8371 68.4204 46.8371C67.5688 46.8371 64.5137 46.9306 63.8374 46.9306C63.8374 46.9306 63.6508 46.9306 63.3836 46.9306C63.5423 45.3553 63.6204 43.7691 63.6175 42.1816C63.6175 39.5869 63.4956 37.0345 63.444 35.9237C63.3803 34.5547 63.3167 33.1808 63.3249 31.8105C64.0721 32.2682 65.3134 32.4514 66.1611 32.4487C66.4769 32.4446 66.7922 32.4173 67.1053 32.3671Z" fill="#94D1E6"/>
<path d="M68.4951 31.6214C66.9333 32.1331 65.1563 32.2713 63.6229 31.5316C63.5385 31.5035 63.4486 31.5179 63.3727 31.5717C63.2968 31.6254 63.241 31.7141 63.2173 31.8187C63.196 31.9236 63.2082 32.0346 63.2512 32.1286C63.2942 32.2226 63.3648 32.2923 63.4481 32.3231C64.2739 32.6866 65.1445 32.868 66.0205 32.859C66.9163 32.8599 67.8081 32.7099 68.6715 32.413C69.0816 32.2786 68.9076 31.4871 68.496 31.622L68.4951 31.6214Z" fill="#211715"/>
<path d="M56.7039 38.9421C57.1792 37.3917 57.472 35.7725 57.9143 34.2093C58.013 33.7956 58.1528 33.3989 58.3306 33.0284C58.5019 32.7239 58.7506 32.5 59.0367 32.3927C59.5922 32.116 60.1361 31.8152 60.6988 31.5576C61.3615 31.2778 62.0103 30.9497 62.642 30.5752C63.0212 30.3359 62.687 29.628 62.309 29.8669C61.7386 30.2046 61.1527 30.5004 60.5544 30.7526C59.9715 31.0192 59.4066 31.3267 58.8316 31.6163C58.5018 31.782 58.2013 31.9292 57.9662 32.2772C57.7447 32.6136 57.5708 32.9944 57.4519 33.4032C57.2006 34.2185 56.9948 35.0523 56.8015 35.891C56.5812 36.8464 56.3527 37.7954 56.0679 38.7246C56.0454 38.8295 56.0569 38.9413 56.1001 39.0358C56.1433 39.1302 56.2147 39.1997 56.2988 39.2292C56.3831 39.2557 56.4724 39.2405 56.548 39.187C56.6236 39.1336 56.6796 39.0458 56.7044 38.9421H56.7039Z" fill="#211715"/>
<path d="M57.2199 40.3312C56.6561 38.777 56.1399 37.1986 55.6236 35.6195C55.6091 35.5598 55.584 35.5049 55.5502 35.4588C55.5165 35.4127 55.4748 35.3766 55.4284 35.3531C55.3819 35.3296 55.3319 35.3193 55.2818 35.323C55.2318 35.3267 55.183 35.3443 55.1391 35.3744C54.1179 36.0409 53.0285 36.7122 51.8963 37.0274C51.8123 37.0571 51.7411 37.1266 51.6979 37.2209C51.6547 37.3153 51.643 37.4269 51.6654 37.5319C51.9901 38.8238 52.3013 40.1202 52.6701 41.3932C52.9961 42.5188 53.3403 43.704 53.8534 44.7228C54.3136 45.6369 55.0004 46.3018 55.8981 46.312C56.8196 46.3216 57.6214 45.7569 58.2532 44.9643C58.8477 44.2081 59.4029 43.4055 59.9153 42.5614C59.959 42.4674 59.971 42.3557 59.9489 42.2507C59.9268 42.1456 59.8722 42.0557 59.7971 42.0004C59.7211 41.9482 59.6318 41.9343 59.5479 41.9617C59.4639 41.9891 59.3916 42.0556 59.3459 42.1474L59.2592 42.2885C59.2427 42.3156 59.2262 42.343 59.2097 42.3705C59.1751 42.4253 59.2852 42.254 59.1964 42.3896C59.0892 42.5536 58.9828 42.7177 58.874 42.8787C58.6138 43.2658 58.3473 43.6468 58.0711 44.0165C57.8426 44.3507 57.5865 44.654 57.3068 44.9213C56.9733 45.2136 56.5885 45.4028 56.1844 45.4733C55.4079 45.5976 54.8227 45.1023 54.4233 44.3094C53.9662 43.4016 53.6542 42.3572 53.3592 41.3565C52.9673 40.0258 52.6419 38.6671 52.3019 37.3149L52.0711 37.8194C52.6574 37.6373 53.2294 37.3899 53.78 37.0801C54.3545 36.7775 54.9183 36.4453 55.4714 36.0837L54.9869 35.8387C55.5246 37.4835 56.0625 39.1277 56.6497 40.7462C56.6943 40.8395 56.7666 40.9073 56.851 40.9348C56.9354 40.9624 57.0252 40.9475 57.1009 40.8935C57.1748 40.8368 57.2284 40.7468 57.2505 40.6423C57.2725 40.5378 57.2613 40.4267 57.2193 40.3322L57.2199 40.3312Z" fill="#211715"/>
<path d="M58.4395 32.2369C58.6236 34.653 58.8805 37.0682 59.2216 39.4578C59.3986 40.699 59.6864 41.9267 59.7881 43.1819C59.8364 44.0464 59.8105 44.9148 59.711 45.7724C59.5878 47.1723 59.4501 48.5703 59.2977 49.9664C59.2775 50.0712 59.2901 50.1817 59.3329 50.2754C59.3758 50.369 59.4458 50.4389 59.5286 50.4708C59.613 50.499 59.7029 50.4846 59.7788 50.4309C59.8548 50.3772 59.9106 50.2883 59.9342 50.1837C60.0735 48.8987 60.2026 47.6124 60.3214 46.3249C60.3977 45.4921 60.5099 44.6413 60.4835 43.8008C60.4414 42.4609 60.1512 41.1743 59.9506 39.8648C59.7626 38.6389 59.6109 37.4041 59.4732 36.1682C59.3276 34.8611 59.1996 33.5501 59.0995 32.2363C59.0972 32.1284 59.0618 32.0258 59.0004 31.9495C58.939 31.8731 58.8565 31.829 58.7697 31.8262C58.6825 31.8269 58.5989 31.8704 58.5372 31.9471C58.4755 32.0239 58.4406 32.1278 58.4399 32.2363L58.4395 32.2369Z" fill="#211715"/>
<path d="M76.0412 38.7242C75.5539 37.1302 75.256 35.4637 74.7944 33.8595C74.5706 33.0803 74.3014 32.1807 73.6543 31.807C73.0772 31.4736 72.4778 31.1775 71.8807 30.9013C71.53 30.7391 71.1779 30.5816 70.8284 30.4155C70.6555 30.3335 70.4821 30.25 70.3124 30.1606C70.1652 30.0499 70.0032 29.973 69.8342 29.9336C69.4098 29.9336 69.4091 30.7538 69.8342 30.7538H69.8359L69.6693 30.6979C70.2387 31.026 70.83 31.2925 71.4185 31.5608C71.9792 31.8173 72.5202 32.1171 73.0734 32.3923C73.3391 32.4914 73.5732 32.6911 73.7432 32.9636C73.9173 33.2946 74.0526 33.6548 74.1451 34.0332C74.3604 34.7774 74.54 35.5353 74.7148 36.2954C74.9202 37.1883 75.139 38.0737 75.4045 38.9424C75.4298 39.0457 75.4859 39.133 75.5614 39.1864C75.6368 39.2398 75.7259 39.2552 75.8102 39.2295C75.8943 39.1999 75.9656 39.1305 76.0088 39.036C76.052 38.9416 76.0636 38.8298 76.041 38.7248L76.0412 38.7242Z" fill="#211715"/>
<path d="M68.973 29.722C69.3116 30.1937 69.639 30.6758 69.9505 31.1749C70.0917 31.4005 70.2292 31.6307 70.3651 31.8618C70.4443 31.9972 70.5231 32.1329 70.6015 32.2691C70.6908 32.3852 70.7589 32.5238 70.8012 32.6755V32.4573C70.7712 32.6275 70.6015 32.8125 70.5108 32.9411C70.3888 33.1142 70.2595 33.2782 70.1251 33.4365C70.0644 33.5141 70.0305 33.6182 70.0305 33.7265C70.0305 33.8348 70.0644 33.9388 70.1251 34.0164C70.3021 34.2285 70.469 34.4533 70.6248 34.6897C70.7282 34.8264 70.7915 35.0024 70.8047 35.1894C70.7776 35.6194 70.6976 36.0417 70.5674 36.4415L69.4603 40.4968C69.3234 40.9978 69.9603 41.2127 70.0963 40.7148C70.492 39.2679 70.9262 37.8281 71.2825 36.3658C71.3838 35.9502 71.5028 35.432 71.4554 34.9962C71.3868 34.3648 70.9293 33.8684 70.5915 33.4365V34.0164C70.8981 33.6881 71.1632 33.3042 71.3779 32.8777C71.6008 32.3684 71.1818 31.8694 70.9559 31.4833C70.4803 30.6727 69.9772 29.8896 69.4389 29.1413C69.1554 28.7468 68.6902 29.3285 68.9724 29.7212L68.973 29.722Z" fill="#211715"/>
<path d="M62.7893 29.1438C62.2516 29.8921 61.7485 30.6752 61.2723 31.4858C61.0541 31.858 60.6407 32.3506 60.8368 32.8464C61.0107 33.2865 61.3537 33.6849 61.6367 34.0182V33.4382C61.3084 33.8574 60.8655 34.3376 60.7792 34.9434C60.7149 35.3923 60.8409 35.9388 60.9463 36.3675C61.3054 37.829 61.7377 39.2692 62.1325 40.7165C62.2682 41.2136 62.9055 41.0003 62.7685 40.4985L61.6614 36.4432C61.5399 36.0482 61.4607 35.6351 61.4256 35.2145C61.4314 35.0188 61.4949 34.8326 61.604 34.6914C61.7597 34.4548 61.9265 34.23 62.1037 34.0182C62.1645 33.9406 62.1985 33.8365 62.1985 33.7282C62.1985 33.6198 62.1645 33.5158 62.1037 33.4382C61.9693 33.2799 61.8398 33.1159 61.718 32.9428C61.6273 32.8142 61.4576 32.6293 61.4276 32.4591V32.6773C61.464 32.5392 61.5248 32.4131 61.6055 32.3081C61.684 32.1714 61.763 32.0351 61.8425 31.8993C61.9853 31.6558 62.1299 31.4141 62.2783 31.176C62.5896 30.6769 62.9172 30.1942 63.2558 29.7231C63.5377 29.3306 63.0729 28.7487 62.7893 29.1432V29.1438Z" fill="#211715"/>
<path d="M63.5608 47.3395C65.2718 47.3379 66.9822 47.2473 68.6934 47.246C69.1176 47.246 69.1185 46.4258 68.6934 46.4258C66.9822 46.427 65.2718 46.5177 63.5608 46.5193C63.1364 46.5193 63.1356 47.3395 63.5608 47.3395Z" fill="#211715"/>
<path d="M63.3335 49.6281C63.5565 48.5125 63.7046 47.376 63.7764 46.23C63.8902 44.8855 63.9466 43.5345 63.9453 42.1827C63.9463 39.6214 63.8111 37.0699 63.7087 34.5134C63.6159 32.7688 63.6357 31.0179 63.7679 29.2773C63.7673 29.1687 63.7324 29.0648 63.6707 28.988C63.6089 28.9112 63.5254 28.8678 63.4381 28.8672C63.3512 28.8696 63.2685 28.9136 63.207 28.99C63.1456 29.0664 63.1102 29.1693 63.1083 29.2773C62.8669 31.9841 63.0679 34.7049 63.178 37.4146C63.29 40.1669 63.3632 42.9371 63.1604 45.6855C63.0687 46.9266 62.9686 48.2078 62.6975 49.4099C62.5821 49.919 63.2189 50.1364 63.3335 49.6281Z" fill="#211715"/>
<path d="M72.8182 50.014C72.6816 48.7417 72.5533 47.4679 72.4333 46.1927C72.3286 45.3733 72.2778 44.5446 72.2814 43.7149C72.3322 42.4124 72.6277 41.1562 72.8188 39.8803C73.0002 38.6692 73.1486 37.4503 73.2827 36.2302C73.4289 34.9028 73.5607 33.5722 73.6619 32.2382C73.6613 32.1297 73.6263 32.0259 73.5646 31.9491C73.5029 31.8724 73.4194 31.8289 73.3321 31.8281C73.2452 31.8304 73.1624 31.8743 73.101 31.9507C73.0395 32.0272 73.0042 32.1302 73.0024 32.2382C72.821 34.6293 72.5657 37.0195 72.2234 39.3832C72.0397 40.6511 71.7577 41.8993 71.6537 43.1832C71.6057 44.0503 71.6334 44.9213 71.7361 45.7809C71.8641 47.194 72.0077 48.6049 72.1589 50.0144C72.1616 50.1221 72.1973 50.2245 72.2585 50.3007C72.3198 50.3769 72.4021 50.4212 72.4887 50.4246C72.6485 50.4246 72.8421 50.2355 72.8185 50.0144L72.8182 50.014Z" fill="#211715"/>
<path d="M68.3318 29.2777C68.5775 32.0098 68.3707 34.7555 68.2607 37.4894C68.1499 40.244 68.0803 43.015 68.2873 45.7651C68.3827 47.0365 68.4804 48.3563 68.7577 49.5885C68.8721 50.096 69.5086 49.8803 69.3939 49.3703C69.1782 48.2894 69.0368 47.1877 68.9714 46.077C68.8642 44.7495 68.8123 43.416 68.8158 42.0818C68.8186 39.5206 68.9562 36.9696 69.0555 34.4125C69.1441 32.7014 69.1226 30.9842 68.9914 29.2773C68.9889 29.1695 68.9533 29.067 68.892 28.9907C68.8307 28.9145 68.7483 28.8703 68.6616 28.8672C68.5743 28.8679 68.4908 28.9114 68.429 28.9881C68.3673 29.0649 68.3324 29.1688 68.3318 29.2773V29.2777Z" fill="#211715"/>
<path d="M65.281 39.6339C65.1599 39.7761 65.0477 39.9297 64.9453 40.0932C65.1261 40.3284 65.3184 40.5494 65.5213 40.7549L65.5777 40.807C65.8954 40.2653 66.3371 39.8554 66.8452 39.631C67.6022 39.2504 68.4143 39.0688 69.2304 39.0978C70.0363 39.1309 70.9261 39.4464 71.5269 40.1588C72.0182 39.4581 72.9348 38.9145 73.6427 38.6947C74.3446 38.4979 75.0683 38.45 75.783 38.5532C76.2132 38.602 76.6323 38.7507 77.0184 38.9914L77.0349 38.9709C77.1601 38.8231 77.4106 38.5116 77.6234 38.2313C76.8534 37.5072 76.4217 37.3991 75.5128 37.2892C74.8217 37.2055 74.0366 37.1774 73.3611 37.3872C72.6855 37.597 71.819 37.9474 71.339 38.6116C70.7095 38.1098 69.9781 37.8413 69.2304 37.8375C68.4143 37.8085 67.6022 37.9901 66.8452 38.3707C66.4973 38.533 66.168 38.7513 65.8656 39.0199C65.6616 39.2107 65.4664 39.4157 65.281 39.6339Z" fill="white"/>
<path d="M75.0594 42.6264C75.5812 42.0485 77.2298 40.1232 77.6722 39.5726C77.1529 38.9771 76.4865 38.6183 75.782 38.5549C75.0673 38.4517 74.3436 38.4996 73.6417 38.6964C72.9338 38.9162 72.0171 39.4598 71.5259 40.1605C70.925 39.4475 70.0352 39.1326 69.2294 39.0995C68.4133 39.0705 67.6011 39.2521 66.8442 39.6327C66.217 39.9033 65.6964 40.4613 65.3887 41.1928C65.8609 41.7055 67.6118 43.3798 68.1032 43.8648L75.0594 42.6264Z" fill="#A0A0A0"/>
<path d="M72.7986 41.0457C72.7667 41.0137 72.7345 40.9822 72.7021 40.951C72.2877 40.5528 71.9871 40.4906 71.5614 40.7869L71.3328 41.033C71.1587 40.8033 71.0109 40.6128 70.948 40.5448C70.857 40.4426 70.7464 40.3713 70.6268 40.3379C70.5073 40.3045 70.3828 40.3101 70.2655 40.3541C69.9963 40.4787 69.8836 40.6617 69.8836 40.942L69.858 41.1802C69.7154 40.9924 69.5867 40.8316 69.4886 40.7213C69.4062 40.6288 69.0012 40.3809 68.7319 40.6323C68.6801 40.6703 68.635 40.7213 68.5997 40.7819C68.5644 40.8426 68.5396 40.9117 68.5268 40.9848C68.5139 41.058 68.5134 41.1337 68.5252 41.2071C68.537 41.2806 68.5609 41.3502 68.5954 41.4116C68.6109 41.4413 68.6218 41.4731 68.6348 41.5049L68.5745 41.4657C68.4981 41.4132 68.4137 41.3817 68.3268 41.3731C68.2399 41.3645 68.1525 41.379 68.0704 41.4158C67.9884 41.4525 67.9137 41.5107 67.8511 41.5863C67.7886 41.6618 67.7398 41.7532 67.7079 41.8541C67.6653 42.0955 67.6898 42.3478 67.7772 42.5697C67.9517 42.9891 68.7136 44.0409 69.125 44.5812C70.0674 45.4103 71.5713 44.8328 72.7758 44.4846C72.9451 44.4327 73.1063 44.3464 73.253 44.2293C73.7037 43.8397 73.9355 43.3625 74.3036 42.8568C74.46 42.6694 74.5986 42.4604 74.7168 42.2339C74.8574 41.9597 74.9115 41.6306 74.8687 41.3098C74.8415 41.1441 74.7666 40.9964 74.6581 40.8944C74.479 40.7474 74.2391 40.8175 74.0404 40.9184C73.7435 41.0692 73.4674 41.2768 73.222 41.5336C73.091 41.3579 72.9494 41.1949 72.7986 41.0457Z" fill="white"/>
<path d="M73.0868 43.8756C72.8297 44.0497 72.5497 44.1654 72.2599 44.217C71.909 44.3224 71.5573 44.4268 71.2013 44.5029C70.5968 44.632 69.9119 44.6991 69.3652 44.2896C69.0007 44.0164 68.6688 44.7254 69.0324 44.9979C69.7015 45.499 70.5021 45.4636 71.2473 45.32C71.6369 45.2452 72.021 45.1322 72.404 45.0174C72.7503 44.9134 73.1183 44.8367 73.4198 44.5839C73.7697 44.2902 73.44 43.5791 73.0868 43.8756Z" fill="#211715"/>
<path d="M73.6829 41.5932C73.407 41.1257 73.0614 40.7283 72.665 40.4227C72.4801 40.2789 72.2676 40.199 72.0495 40.1914C71.8184 40.2017 71.5931 40.2845 71.3947 40.4321C71.3198 40.4878 71.2654 40.5777 71.2433 40.6827C71.2212 40.7877 71.2331 40.8992 71.2765 40.9934C71.3218 41.0856 71.3941 41.1524 71.4782 41.1799C71.5623 41.2073 71.6517 41.1931 71.7276 41.1404C71.7466 41.1275 71.7655 41.1146 71.7848 41.1023C71.7918 41.098 71.8663 41.0537 71.8287 41.0746C71.7967 41.0927 71.8508 41.0646 71.8567 41.0617C71.8742 41.0541 71.8917 41.0467 71.9095 41.0402C71.9228 41.0352 72.0172 40.9948 72.0249 41.0076C72.0249 41.0076 71.956 41.0127 72.0124 41.0127C72.0289 41.0127 72.0454 41.0114 72.0618 41.0127C72.0724 41.0127 72.1443 41.0164 72.0919 41.0127C72.0455 41.0094 72.0991 41.0153 72.1095 41.018C72.143 41.027 72.1761 41.0387 72.2084 41.0529C72.2393 41.0662 72.2568 41.0803 72.2172 41.0557C72.2337 41.0662 72.2511 41.0762 72.268 41.0869C72.3082 41.113 72.3471 41.1421 72.3852 41.1726C72.4233 41.2032 72.4581 41.2341 72.4937 41.2665C72.5399 41.3076 72.4644 41.2374 72.5064 41.2782C72.5272 41.2983 72.5478 41.3188 72.5682 41.3398C72.6378 41.4096 72.7058 41.4821 72.7721 41.5571C72.838 41.632 72.9018 41.7097 72.9628 41.7907C72.9915 41.8288 73.0196 41.8677 73.0469 41.9074C73.0634 41.9322 73.0799 41.9584 73.0974 41.9828C73.1352 42.0355 73.054 41.9096 73.1139 42.0083C73.1596 42.1001 73.2319 42.1666 73.3159 42.194C73.3999 42.2214 73.4891 42.2076 73.5652 42.1555C73.64 42.0998 73.6943 42.0099 73.7165 41.905C73.7386 41.8001 73.7267 41.6886 73.6834 41.5944L73.6829 41.5932Z" fill="#211715"/>
<path d="M72.4601 41.923C72.1719 41.5855 71.9135 41.2029 71.6428 40.844C71.5084 40.666 71.3751 40.4853 71.234 40.3156C71.1123 40.1622 70.9631 40.047 70.7987 39.9792C70.6342 39.9115 70.4592 39.8932 70.288 39.9259C70.089 39.9609 69.9063 40.0821 69.7722 40.2682C69.6381 40.4543 69.561 40.6933 69.5547 40.943C69.5547 41.0518 69.5894 41.1561 69.6513 41.233C69.7131 41.31 69.797 41.3532 69.8845 41.3532C69.9719 41.3532 70.0558 41.31 70.1177 41.233C70.1795 41.1561 70.2143 41.0518 70.2143 40.943C70.2143 40.9193 70.2143 40.8957 70.2169 40.8721C70.2106 40.925 70.2113 40.9285 70.2189 40.8825C70.2308 40.8384 70.2285 40.8413 70.212 40.8912C70.2194 40.8723 70.2277 40.854 70.2369 40.8364C70.2017 40.916 70.2519 40.8198 70.2736 40.7981C70.2184 40.853 70.3231 40.7691 70.3355 40.7612C70.3701 40.7405 70.3763 40.737 70.3541 40.7507C70.3741 40.7414 70.3945 40.7337 70.4153 40.7277C70.4545 40.7179 70.4577 40.717 70.4247 40.7251C70.4471 40.7236 70.4695 40.7234 70.492 40.7251C70.5324 40.729 70.5375 40.7294 70.507 40.7261C70.5299 40.7318 70.5528 40.7388 70.5752 40.7466C70.63 40.7622 70.5828 40.7411 70.63 40.772C70.7897 40.9099 70.9327 41.0757 71.0546 41.2642C71.3679 41.6743 71.6625 42.1162 71.9945 42.504C72.0567 42.5787 72.14 42.62 72.2265 42.6191C72.3129 42.6181 72.3956 42.575 72.4568 42.499C72.5179 42.4229 72.5526 42.3201 72.5534 42.2125C72.5541 42.105 72.5209 42.0014 72.4608 41.9241L72.4601 41.923Z" fill="#211715"/>
<path d="M68.3361 43.5737C67.433 42.6835 66.4916 41.8425 65.6218 40.9017L65.6732 41.3988C66.1869 40.2072 67.2704 39.7495 68.2928 39.5684C69.3151 39.3873 70.5048 39.5401 71.2925 40.4502C71.3549 40.5258 71.4386 40.5682 71.5257 40.5682C71.6128 40.5682 71.6965 40.5258 71.7588 40.4502C72.4229 39.5274 73.5034 39.0375 74.4755 38.9403C75.4749 38.8404 76.6874 38.9218 77.4388 39.8631V39.283C76.5941 40.331 75.7162 41.3487 74.8259 42.3367C74.5086 42.6888 74.9764 43.2673 75.2924 42.9166C76.1828 41.9287 77.0606 40.9111 77.9051 39.8631C77.9658 39.7853 77.9997 39.6813 77.9997 39.573C77.9997 39.4647 77.9658 39.3607 77.9051 39.283C77.0279 38.1848 75.6558 38.0036 74.4753 38.1207C73.3348 38.2339 72.074 38.7853 71.2929 39.8707H71.7592C70.8069 38.7705 69.4353 38.5496 68.1932 38.7648C66.9759 38.9756 65.7128 39.5731 65.1042 40.9854C65.0684 41.064 65.054 41.1549 65.0633 41.2446C65.0726 41.3342 65.105 41.4177 65.1556 41.4824C66.0256 42.4233 66.967 43.2642 67.8701 44.1544C67.9332 44.2283 68.0166 44.2694 68.1033 44.2694C68.1899 44.2694 68.2733 44.2283 68.3364 44.1544C68.3978 44.0771 68.4321 43.9729 68.4321 43.8643C68.4321 43.7558 68.3978 43.6516 68.3364 43.5743L68.3361 43.5737Z" fill="#211715"/>
<path d="M65.6872 40.4019C65.7466 40.4585 65.6213 40.3291 65.5995 40.305C65.5413 40.241 65.4837 40.1761 65.4267 40.1103C65.3382 40.0156 65.2551 39.9133 65.178 39.8042V40.3841C65.8732 39.2792 66.9041 38.6448 67.9936 38.3724C69.0461 38.1091 70.2644 38.1916 71.1725 38.9671C71.2355 39.0125 71.3088 39.0308 71.381 39.0192C71.4533 39.0076 71.5204 38.9667 71.5722 38.9029C71.9401 38.4621 72.3924 38.1451 72.8862 37.982C73.42 37.7604 73.9785 37.6444 74.5413 37.6381C75.0934 37.627 75.645 37.6859 76.1876 37.8139C76.652 37.9489 77.0858 38.2132 77.4563 38.5867L77.3895 37.9426C77.1976 38.194 77.0025 38.4424 76.801 38.6823C76.4938 39.0479 76.9606 39.6274 77.2673 39.2622C77.4688 39.0225 77.6639 38.7742 77.8558 38.5226C77.8904 38.4775 77.9165 38.4235 77.9321 38.3643C77.9477 38.3052 77.9525 38.2424 77.9461 38.1807C77.9397 38.1189 77.9223 38.0597 77.8951 38.0074C77.8679 37.9551 77.8317 37.9111 77.789 37.8785C77.3708 37.4647 76.8836 37.1723 76.3629 37.0227C75.7388 36.871 75.1036 36.8026 74.4679 36.8187C73.8397 36.8334 73.2172 36.9713 72.6235 37.2272C72.0687 37.461 71.5107 37.7808 71.1065 38.323L71.506 38.2588C70.4728 37.3754 69.0911 37.283 67.8937 37.5616C66.6829 37.8444 65.4832 38.5769 64.7124 39.8025C64.6537 39.8815 64.6211 39.985 64.6211 40.0925C64.6211 40.2 64.6537 40.3035 64.7124 40.3825C64.9041 40.6538 65.1198 40.8973 65.3554 41.1084C65.4311 41.1627 65.5209 41.1777 65.6054 41.1502C65.6899 41.1227 65.7622 41.0548 65.8068 40.9614C65.8487 40.8668 65.8598 40.7558 65.8378 40.6514C65.8157 40.5469 65.7622 40.457 65.6884 40.4003L65.6872 40.4019Z" fill="#211715"/>
<path d="M68.7418 41.1133C68.5816 41.0037 68.3994 40.9539 68.2169 40.9697C68.0345 40.9854 67.8596 41.0662 67.7132 41.2023C67.5956 41.3079 67.5015 41.4489 67.4396 41.612C67.3777 41.7751 67.35 41.9551 67.3591 42.1351C67.3796 42.4965 67.4901 42.841 67.6752 43.1207C67.8545 43.4198 68.0474 43.7059 68.2448 43.987C68.4545 44.2857 68.6689 44.5793 68.8879 44.8678C68.9497 44.9447 69.0336 44.9879 69.1211 44.9879C69.2086 44.9879 69.2925 44.9447 69.3544 44.8678C69.4162 44.7909 69.451 44.6865 69.451 44.5777C69.451 44.4689 69.4162 44.3646 69.3544 44.2877C69.1517 44.0211 68.9529 43.7501 68.7581 43.4746C68.6487 43.32 68.5412 43.1636 68.4356 43.0056C68.3871 42.9326 68.3394 42.8586 68.2918 42.7846C68.2481 42.7167 68.3137 42.8223 68.2697 42.7491C68.2502 42.7167 68.2306 42.6845 68.2115 42.6517C68.1547 42.5624 68.1044 42.4671 68.0611 42.3668C68.029 42.28 68.014 42.1849 68.0171 42.0894C68.0171 42.0724 68.024 41.9491 68.0148 42.033C68.0164 42.0193 68.0405 41.8973 68.0205 41.9746C68.0017 42.0478 68.035 41.9518 68.0406 41.9366C68.0664 41.8667 67.9978 41.9846 68.0469 41.9264C68.0726 41.8958 68.0964 41.8632 68.1236 41.8355C68.0779 41.8806 68.1331 41.8355 68.1508 41.8199C68.2044 41.7728 68.1208 41.8216 68.1815 41.8009C68.2011 41.7926 68.2211 41.7858 68.2413 41.7804C68.206 41.7837 68.2088 41.7837 68.2497 41.7804C68.3047 41.7722 68.3604 41.7866 68.4082 41.8214C68.4842 41.8735 68.5734 41.8873 68.6574 41.86C68.7414 41.8326 68.8137 41.7662 68.8593 41.6744C68.9027 41.5802 68.9146 41.4686 68.8925 41.3637C68.8704 41.2587 68.816 41.1687 68.7411 41.1131L68.7418 41.1133Z" fill="#211715"/>
<path d="M71.177 42.3739C70.9059 42.0085 70.6416 41.6357 70.372 41.2684C70.2388 41.0872 70.1047 40.9067 69.967 40.7306C69.8613 40.5803 69.7419 40.4457 69.6113 40.3295C69.18 39.9895 68.5783 40.0508 68.2968 40.6229C67.9771 41.2731 68.43 41.8533 68.7442 42.3317C69.0749 42.8445 69.4276 43.3349 69.8006 43.8007C70.1032 44.1717 70.5699 43.5922 70.267 43.2208C69.9734 42.8609 69.6971 42.4826 69.4334 42.0885C69.2992 41.8879 69.1673 41.6851 69.0342 41.4833C68.9756 41.3975 68.9238 41.3047 68.8797 41.2063C68.8716 41.1883 68.8624 41.1708 68.8543 41.1526C68.8284 41.0939 68.8657 41.202 68.851 41.1407C68.8484 41.1294 68.8325 41.0515 68.8426 41.1025C68.8508 41.1435 68.8522 41.0449 68.8408 41.1181C68.8444 41.0932 68.8499 41.0688 68.8573 41.0451C68.836 41.1093 68.8602 41.0451 68.8663 41.0369C68.835 41.0769 68.8754 41.0228 68.8789 41.0185C68.8961 40.9958 68.9145 40.9744 68.9338 40.9545C68.9173 40.9711 68.9252 40.9604 68.9555 40.9428C68.9407 40.9514 68.9082 40.959 68.9682 40.9403C68.9806 40.9364 69.0304 40.9311 68.9757 40.936C69.0023 40.9343 69.029 40.9343 69.0556 40.936C69.1092 40.9383 69.0101 40.9229 69.0617 40.936C69.0769 40.9401 69.0921 40.9438 69.1071 40.9483C69.145 40.9607 69.1823 40.9756 69.2189 40.993C69.1508 40.9613 69.2342 41.0045 69.2527 41.0176C69.2636 41.0254 69.2749 41.0361 69.2857 41.0431C69.3351 41.0736 69.2347 40.9795 69.2621 41.0203C69.3496 41.1515 69.4656 41.2647 69.5609 41.3894C69.6812 41.5455 69.7992 41.7046 69.9164 41.8641C70.1822 42.2261 70.4427 42.5937 70.71 42.954C70.7407 42.9921 70.777 43.0223 70.817 43.0429C70.8571 43.0635 70.8999 43.0741 70.9433 43.0741C70.9866 43.0741 71.0294 43.0635 71.0695 43.0429C71.1095 43.0222 71.1458 42.992 71.1764 42.9539C71.2071 42.9158 71.2313 42.8706 71.2479 42.8209C71.2645 42.7711 71.273 42.7178 71.273 42.6639C71.273 42.61 71.2644 42.5567 71.2479 42.507C71.2313 42.4572 71.207 42.412 71.1764 42.3739H71.177Z" fill="#211715"/>
<path d="M73.584 41.6996C73.7395 41.5634 73.9041 41.4442 74.0762 41.3436C74.1911 41.256 74.3249 41.2145 74.4595 41.2249C74.5104 41.2454 74.5511 41.3771 74.5599 41.488C74.5581 41.6945 74.5075 41.8958 74.4144 42.0669C74.3339 42.2176 74.2398 42.3565 74.1341 42.4809C74.0174 42.6357 73.9077 42.7977 73.7996 42.9618C73.5955 43.3045 73.3555 43.6118 73.086 43.8755C73.0123 43.9324 72.9589 44.0223 72.9369 44.1267C72.9149 44.2311 72.9259 44.342 72.9677 44.4366C73.0123 44.5299 73.0846 44.5976 73.1691 44.6251C73.2535 44.6527 73.3433 44.6378 73.419 44.5838C73.7807 44.2321 74.1043 43.8235 74.3815 43.3682C74.5117 43.1761 74.6552 42.9991 74.7866 42.8082C74.9497 42.5734 75.074 42.3009 75.1525 42.0064C75.3097 41.4255 75.1649 40.6175 74.6313 40.4356C74.1602 40.2749 73.6215 40.668 73.2506 40.9915C73.1768 41.0484 73.1234 41.1383 73.1014 41.2427C73.0794 41.3471 73.0905 41.4581 73.1324 41.5526C73.177 41.6458 73.2493 41.7135 73.3337 41.741C73.4182 41.7685 73.5079 41.7537 73.5835 41.6996H73.584Z" fill="#211715"/>
<path d="M65.3509 25.6778C65.6384 25.8637 65.9588 25.9568 66.2827 25.9485C66.6265 25.9646 66.9646 25.8369 67.2431 25.5858C67.3049 25.5089 67.3397 25.4046 67.3397 25.2958C67.3391 25.1872 67.3044 25.0832 67.2431 25.0059C67.18 24.9318 67.0966 24.8906 67.0099 24.8906C66.9232 24.8906 66.8398 24.9318 66.7767 25.0059C66.891 24.8949 66.7767 25.0003 66.7403 25.0239C66.7124 25.0419 66.6392 25.0707 66.7444 25.0255C66.7192 25.0362 66.695 25.0493 66.6692 25.0594C66.6006 25.0869 66.5271 25.0928 66.459 25.119C66.4936 25.1057 66.5159 25.1106 66.4659 25.1168C66.4453 25.1193 66.4245 25.1215 66.4039 25.1232C66.3541 25.1271 66.3043 25.1288 66.2545 25.1283C66.2099 25.1283 66.1653 25.1263 66.1206 25.1223C66.1002 25.1207 66.0797 25.1186 66.0595 25.116C66.0477 25.1145 66.036 25.1131 66.0245 25.1113C65.9984 25.1074 66.0092 25.109 66.0566 25.1166C66.0239 25.1045 65.9902 25.0966 65.9561 25.0932C65.9231 25.0844 65.8919 25.0741 65.8603 25.0622C65.8327 25.052 65.8058 25.0399 65.7788 25.0282C65.7059 24.9972 65.8497 25.0692 65.7837 25.0315C65.7508 25.011 65.7168 24.9905 65.6838 24.97C65.6083 24.9151 65.5183 24.8997 65.4337 24.9273C65.3491 24.9549 65.2767 25.0232 65.2326 25.1171C65.1884 25.211 65.1761 25.3229 65.1983 25.4281C65.2205 25.5334 65.2754 25.6234 65.3509 25.6783V25.6778Z" fill="#211715"/>
<path d="M66.0687 23.0218C66.1091 23.204 66.1416 23.3889 66.1659 23.5755L66.1541 23.4664C66.157 23.4917 66.1576 23.5174 66.1557 23.5429L66.1676 23.4338C66.1662 23.4455 66.1639 23.457 66.1608 23.4682L66.1938 23.3702C66.1911 23.378 66.1879 23.3854 66.1841 23.3924L66.2357 23.3093C66.2314 23.3159 66.2265 23.3219 66.2212 23.3272L66.2871 23.263C66.2759 23.2717 66.2641 23.2794 66.252 23.2862L66.3308 23.2451C66.3118 23.2552 66.2918 23.2625 66.2713 23.2667L66.359 23.2519C66.3405 23.2547 66.3218 23.2547 66.3033 23.2519L66.3909 23.2665C66.3699 23.263 66.3493 23.2566 66.3282 23.2529C66.2855 23.2358 66.24 23.2334 66.1963 23.2458C66.1526 23.2481 66.1103 23.2649 66.0736 23.2944C66.0362 23.3215 66.0035 23.3576 65.9773 23.4005C65.9511 23.4434 65.932 23.4923 65.921 23.5444C65.91 23.5965 65.9073 23.6508 65.9132 23.7041C65.9191 23.7575 65.9334 23.8089 65.9552 23.8554L66.0068 23.9374C66.0472 23.9876 66.0974 24.024 66.1524 24.0428C66.2093 24.0525 66.2644 24.0701 66.3224 24.0732C66.4137 24.0736 66.5036 24.0463 66.5844 23.9936C66.6372 23.9623 66.6838 23.917 66.721 23.8609C66.7582 23.8048 66.785 23.7392 66.7996 23.6688C66.819 23.5581 66.8183 23.4434 66.7975 23.3331C66.7733 23.1547 66.7401 22.9781 66.7033 22.8032C66.6796 22.7004 66.6255 22.6124 66.5518 22.5572C66.4747 22.5024 66.3833 22.4877 66.2975 22.5161C66.2148 22.545 66.1442 22.6126 66.1005 22.7046C66.0574 22.8008 66.0456 22.9139 66.0675 23.0206L66.0687 23.0218Z" fill="#211715"/>
<path d="M63.8135 21.42C63.7392 21.7204 63.7876 22.4114 64.2452 22.4703C64.8501 22.4658 64.8822 21.6295 64.6786 21.2375C64.5119 20.9159 64.0218 20.7822 63.8135 21.42Z" fill="#211715"/>
<path d="M68.6575 21.4201C68.7319 21.7204 68.6834 22.4114 68.2258 22.4703C67.621 22.4656 67.5888 21.6295 67.7923 21.2374C67.959 20.9159 68.4489 20.7822 68.6575 21.4201Z" fill="#211715"/>
</svg>
