<svg width="64" height="64" viewBox="0 0 64 64" fill="none" xmlns="http://www.w3.org/2000/svg">
<path d="M53.7001 22C56.2001 22 58.2001 20 58.2001 17.5C58.2001 19.985 56.1851 22 53.7001 22ZM49.2001 17.5C49.2001 20 51.2001 22 53.7001 22C51.2151 22 49.2001 19.985 49.2001 17.5ZM26.5371 31.304C27.5981 32.87 29.3151 33.964 31.3251 34.166C29.3341 33.964 27.6061 32.876 26.5371 31.304ZM53.7001 13C56.1851 13 58.2001 15.015 58.2001 17.5C58.2001 15 56.2001 13 53.7001 13Z" fill="#E8E8E8"/>
<path d="M53.7 25.4C58.802 25.4 63.062 29.554 63.857 34.98C63.948 33.999 64 33.006 64 32C64 26.495 62.609 21.314 60.16 16.79C60.185 17.023 60.2 17.26 60.2 17.5C60.2 21.1 57.3 24 53.7 24C50.1 24 47.2 21.1 47.2 17.5C47.2 13.9 50.1 11 53.7 11C54.824 11 55.879 11.283 56.799 11.781C50.932 4.592 42.003 0 32 0C21.997 0 13.068 4.592 7.201 11.781C8.121 11.283 9.176 11 10.3 11C13.9 11 16.8 13.9 16.8 17.5C16.8 21.1 13.9 24 10.3 24C6.7 24 3.8 21.1 3.8 17.5C3.8 17.26 3.815 17.023 3.84 16.79C1.391 21.314 0 26.495 0 32C0 33.006 0.052 33.999 0.143 34.98C0.938 29.554 5.198 25.4 10.3 25.4C15.9 25.4 20.4 30.4 20.5 36.6H0.334C2.565 52.093 15.89 64 32 64C48.11 64 61.435 52.093 63.666 36.6H43.4C43.5 30.4 48.1 25.4 53.7 25.4ZM32 18.9C36.8 18.9 40.6 22.8 40.6 27.5C40.6 32.2 36.7 36.1 32 36.1C27.3 36.1 23.4 32.2 23.4 27.5C23.4 22.8 27.2 18.9 32 18.9ZM45.7 53H18.3C18.5 44.7 24.5 38.1 32 38.1C39.5 38.1 45.5 44.7 45.7 53Z" fill="#E8E8E8"/>
<path d="M32.6746 34.166C34.6836 33.964 36.4016 32.87 37.4626 31.304C36.3936 32.876 34.6656 33.964 32.6746 34.166ZM53.6996 13C51.1996 13 49.1996 15 49.1996 17.5C49.1996 15.015 51.2146 13 53.6996 13ZM28.2906 22.141C26.7276 23.202 25.6356 24.918 25.4336 26.924C25.6356 24.937 26.7206 23.21 28.2906 22.141Z" fill="#E8E8E8"/>
<path d="M26.1934 30.738C26.2214 30.79 26.2554 30.838 26.2844 30.89C26.3624 31.025 26.4404 31.161 26.5274 31.29C26.5304 31.295 26.5344 31.299 26.5384 31.304C27.6064 32.876 29.3354 33.964 31.3264 34.166C31.5474 34.188 31.7724 34.2 32.0004 34.2C32.2284 34.2 32.4534 34.188 32.6754 34.166C34.6664 33.964 36.3944 32.876 37.4634 31.304C37.4664 31.299 37.4704 31.295 37.4744 31.29C37.5614 31.161 37.6394 31.025 37.7174 30.89C37.7464 30.839 37.7804 30.79 37.8084 30.738C37.8614 30.639 37.9064 30.535 37.9544 30.434C37.9984 30.342 38.0464 30.252 38.0864 30.158C38.1174 30.085 38.1404 30.008 38.1684 29.933C38.2164 29.806 38.2664 29.681 38.3074 29.551C38.3254 29.494 38.3364 29.434 38.3524 29.376C38.3944 29.226 38.4364 29.076 38.4684 28.922C38.4844 28.846 38.4914 28.767 38.5044 28.689C38.5274 28.55 38.5534 28.413 38.5674 28.272C38.5894 28.052 38.6014 27.828 38.6014 27.602C38.6014 24.002 35.6014 21.002 32.0014 21.002C31.7754 21.002 31.5524 21.014 31.3314 21.036C31.1894 21.05 31.0504 21.076 30.9114 21.1C30.8354 21.113 30.7564 21.12 30.6814 21.135C30.5254 21.167 30.3744 21.21 30.2224 21.252C30.1664 21.268 30.1074 21.279 30.0524 21.296C29.9204 21.337 29.7924 21.388 29.6634 21.437C29.5904 21.465 29.5154 21.487 29.4444 21.517C29.3484 21.557 29.2584 21.606 29.1644 21.65C29.0634 21.698 28.9614 21.742 28.8634 21.795C28.8104 21.823 28.7614 21.857 28.7104 21.887C28.5754 21.965 28.4414 22.042 28.3124 22.129C28.3054 22.134 28.2994 22.139 28.2924 22.144C26.7234 23.212 25.6374 24.939 25.4354 26.927C25.4124 27.147 25.4004 27.372 25.4004 27.6C25.4004 27.826 25.4124 28.05 25.4344 28.27C25.4484 28.411 25.4744 28.549 25.4974 28.687C25.5104 28.764 25.5174 28.843 25.5334 28.92C25.5644 29.074 25.6074 29.224 25.6494 29.374C25.6654 29.432 25.6764 29.492 25.6944 29.549C25.7344 29.679 25.7854 29.805 25.8334 29.931C25.8614 30.006 25.8854 30.083 25.9154 30.156C25.9554 30.25 26.0034 30.34 26.0474 30.432C26.0954 30.535 26.1394 30.639 26.1934 30.738Z" fill="#FAD97F"/>
<path d="M32.0004 36.1004C36.7004 36.1004 40.6004 32.2004 40.6004 27.5004C40.6004 22.8004 36.8004 18.9004 32.0004 18.9004C27.2004 18.9004 23.4004 22.8004 23.4004 27.5004C23.4004 32.2004 27.3004 36.1004 32.0004 36.1004ZM25.8324 29.9324C25.7844 29.8054 25.7344 29.6804 25.6934 29.5504C25.6754 29.4934 25.6644 29.4334 25.6484 29.3754C25.6064 29.2254 25.5644 29.0754 25.5324 28.9214C25.5164 28.8454 25.5094 28.7664 25.4964 28.6884C25.4734 28.5494 25.4474 28.4124 25.4334 28.2714C25.4109 28.0488 25.3996 27.8252 25.3994 27.6014C25.3994 27.3734 25.4114 27.1484 25.4334 26.9264C25.6354 24.9194 26.7274 23.2044 28.2904 22.1434C28.2974 22.1384 28.3034 22.1334 28.3104 22.1284C28.4384 22.0414 28.5734 21.9644 28.7084 21.8864C28.7604 21.8564 28.8094 21.8224 28.8614 21.7944C28.9594 21.7414 29.0624 21.6974 29.1624 21.6494C29.2554 21.6054 29.3464 21.5564 29.4424 21.5164C29.5134 21.4864 29.5884 21.4634 29.6614 21.4364C29.7904 21.3874 29.9174 21.3364 30.0504 21.2954C30.1064 21.2784 30.1644 21.2674 30.2204 21.2514C30.3724 21.2094 30.5244 21.1664 30.6794 21.1344C30.7554 21.1194 30.8334 21.1124 30.9094 21.0994C31.0484 21.0764 31.1874 21.0504 31.3294 21.0354C31.5514 21.0124 31.7744 21.0004 32.0004 21.0004C35.6004 21.0004 38.6004 24.0004 38.6004 27.6004C38.6004 27.8264 38.5884 28.0504 38.5664 28.2704C38.5524 28.4114 38.5264 28.5494 38.5034 28.6874C38.4904 28.7644 38.4834 28.8434 38.4674 28.9204C38.4364 29.0744 38.3934 29.2244 38.3514 29.3744C38.3354 29.4324 38.3244 29.4924 38.3064 29.5494C38.2664 29.6794 38.2154 29.8054 38.1674 29.9314C38.1394 30.0064 38.1154 30.0834 38.0854 30.1564C38.0454 30.2504 37.9974 30.3404 37.9534 30.4324C37.9054 30.5344 37.8604 30.6384 37.8074 30.7364C37.7794 30.7884 37.7454 30.8364 37.7164 30.8884C37.6384 31.0234 37.5604 31.1594 37.4734 31.2884C37.4704 31.2934 37.4664 31.2974 37.4624 31.3024C36.4014 32.8684 34.6844 33.9624 32.6744 34.1644C32.4534 34.1884 32.2284 34.2004 32.0004 34.2004C31.7724 34.2004 31.5474 34.1884 31.3254 34.1664C29.3164 33.9644 27.5984 32.8704 26.5374 31.3044C26.5344 31.2994 26.5304 31.2954 26.5264 31.2904C26.4394 31.1614 26.3614 31.0254 26.2834 30.8904C26.2544 30.8394 26.2204 30.7904 26.1924 30.7384C26.1394 30.6394 26.0944 30.5354 26.0464 30.4344C26.0024 30.3424 25.9544 30.2524 25.9144 30.1584C25.8844 30.0844 25.8604 30.0074 25.8324 29.9324Z" fill="black"/>
<path d="M32 40.0996C26.3 40.0996 21.5 44.7996 20.5 50.9996H43.5C42.5 44.7996 37.7 40.0996 32 40.0996Z" fill="#FAD97F"/>
<path d="M32.0008 38.0996C24.5008 38.0996 18.5008 44.6996 18.3008 52.9996H45.7008C45.5008 44.6996 39.5008 38.0996 32.0008 38.0996ZM20.5008 50.9996C21.5008 44.7996 26.3008 40.0996 32.0008 40.0996C37.7008 40.0996 42.5008 44.7996 43.5008 50.9996H20.5008Z" fill="black"/>
<path d="M10.3008 13C7.80078 13 5.80078 15 5.80078 17.5C5.80078 20 7.80078 22 10.3008 22C12.8008 22 14.8008 20 14.8008 17.5C14.8008 15 12.8008 13 10.3008 13Z" fill="white"/>
<path d="M10.3008 24C13.9008 24 16.8008 21.1 16.8008 17.5C16.8008 13.9 13.9008 11 10.3008 11C9.17678 11 8.12178 11.283 7.20178 11.781C6.27761 12.281 5.48887 12.9982 4.90353 13.8708C4.31819 14.7434 3.95381 15.7452 3.84178 16.79C3.81497 17.0257 3.80128 17.2628 3.80078 17.5C3.80078 21.1 6.70078 24 10.3008 24ZM10.3008 22C7.80078 22 5.80078 20 5.80078 17.5C5.80078 15 7.80078 13 10.3008 13C12.8008 13 14.8008 15 14.8008 17.5C14.8008 20 12.8008 22 10.3008 22Z" fill="black"/>
<path d="M10.2992 27.4004C6.39922 27.4004 3.09922 30.5004 2.19922 34.6004H18.2992C17.3992 30.5004 14.1992 27.4004 10.2992 27.4004Z" fill="white"/>
<path d="M10.3 25.4004C5.198 25.4004 0.938 29.5544 0.143 34.9804C0.065 35.5104 0.009 36.0484 0 36.6004H20.5C20.4 30.4004 15.9 25.4004 10.3 25.4004ZM10.3 27.4004C14.2 27.4004 17.4 30.5004 18.3 34.6004H2.2C3.1 30.5004 6.4 27.4004 10.3 27.4004Z" fill="black"/>
<path d="M49.1992 17.5C49.1992 18.6935 49.6733 19.8381 50.5172 20.682C51.3612 21.5259 52.5057 22 53.6992 22C54.8927 22 56.0373 21.5259 56.8812 20.682C57.7251 19.8381 58.1992 18.6935 58.1992 17.5C58.1992 16.3065 57.7251 15.1619 56.8812 14.318C56.0373 13.4741 54.8927 13 53.6992 13C52.5057 13 51.3612 13.4741 50.5172 14.318C49.6733 15.1619 49.1992 16.3065 49.1992 17.5Z" fill="white"/>
<path d="M47.1992 17.5C47.1992 21.1 50.0992 24 53.6992 24C57.2992 24 60.1992 21.1 60.1992 17.5C60.1992 17.26 60.1842 17.023 60.1592 16.79C59.9252 14.618 58.6302 12.772 56.7992 11.781C55.8782 11.283 54.8232 11 53.6992 11C50.0992 11 47.1992 13.9 47.1992 17.5ZM53.6992 22C51.1992 22 49.1992 20 49.1992 17.5C49.1992 15 51.1992 13 53.6992 13C56.1992 13 58.1992 15 58.1992 17.5C58.1992 20 56.1992 22 53.6992 22Z" fill="black"/>
<path d="M53.7505 27.2276C53.7325 27.2276 53.7155 27.2246 53.6985 27.2246C49.7145 27.2246 46.2545 30.4746 45.3105 34.7736H62.0865C62.0281 34.5079 61.9601 34.2444 61.8825 33.9836C60.7275 30.1016 57.5615 27.2536 53.7505 27.2276Z" fill="white"/>
<path d="M63.8574 34.9804C63.0624 29.5544 58.8024 25.4004 53.7004 25.4004C48.1004 25.4004 43.5004 30.4004 43.4004 36.6004H64.0004C63.9914 36.0484 63.9354 35.5104 63.8574 34.9804ZM45.4144 34.7754H45.3104C46.2544 30.4764 49.7144 27.2264 53.6984 27.2264C53.7164 27.2264 53.7334 27.2294 53.7504 27.2294C57.5614 27.2554 60.7274 30.1034 61.8824 33.9864C61.9599 34.2472 62.0279 34.5107 62.0864 34.7764H45.4144V34.7754Z" fill="black"/>
</svg>
