<svg width="64" height="64" viewBox="0 0 64 64" fill="none" xmlns="http://www.w3.org/2000/svg">
<path d="M0 32C0 40.4869 3.37142 48.6263 9.37258 54.6274C15.3737 60.6286 23.5131 64 32 64C40.4869 64 48.6263 60.6286 54.6274 54.6274C60.6286 48.6263 64 40.4869 64 32C64 23.5131 60.6286 15.3737 54.6274 9.37258C48.6263 3.37142 40.4869 0 32 0C23.5131 0 15.3737 3.37142 9.37258 9.37258C3.37142 15.3737 0 23.5131 0 32Z" fill="#FAD97F"/>
<path d="M44.6992 45.1992H47.3992L46.0992 41.6992L44.6992 45.1992Z" fill="#F2385A"/>
<path d="M43.6008 29.9992L35.0008 24.8992C34.2008 25.2992 33.2008 25.5992 32.0008 25.5992C29.3008 25.5992 27.2008 24.1992 27.2008 22.2992C27.2008 20.3992 29.3008 18.9992 32.0008 18.9992C34.7008 18.9992 36.8008 20.4992 36.8008 22.2992C36.8008 22.6992 36.7008 23.0992 36.5008 23.3992L45.9008 28.9992L59.2008 23.0992L32.0008 10.1992L4.80078 23.0992L31.9008 35.1992L43.6008 29.9992Z" fill="#E8E8E8"/>
<path d="M54.391 47.8992C50.791 40.2992 51.191 32.4992 51.691 28.6992L47 30.7992V38.8992L50.3 47.2992H41.8L45.1 38.8992V31.6992L31.9 37.4992L12.2 28.6992C12.7 32.3992 13.1 40.2992 9.5 47.8992C12.4 49.3992 22.1 53.9992 31.9 53.9992C41.7 53.9992 51.691 49.1992 54.391 47.8992Z" fill="#E8E8E8"/>
<path d="M53.8 27.7L64 23.2L32 8L0 23.1L10.1 27.6C10.6 30.4 11.6 39.4 7.4 47.8L7 48.7L7.8 49.2C8.2 49.4 19.8 56 31.9 56C44 56 55.6 49.5 56.1 49.2L56.9 48.7L56.5 47.8C52.3 39.6 53.3 30.6 53.8 27.7ZM32 10.2L59.2 23.1L45.9 29L36.5 23.4C36.7 23.1 36.8 22.7 36.8 22.3C36.8 20.5 34.7 19 32 19C29.3 19 27.2 20.4 27.2 22.3C27.2 24.2 29.3 25.6 32 25.6C33.2 25.6 34.2 25.3 35 24.9L43.6 30L31.9 35.2L4.8 23.1L32 10.2ZM46.1 41.7L47.4 45.2H44.7L46.1 41.7ZM12.2 28.7L31.9 37.5L45.1 31.7V38.9L41.8 47.3H50.3L47 38.9V30.8L51.691 28.7C51.191 32.5 50.791 40.3 54.391 47.9C51.691 49.2 41.7 54 31.9 54C22.1 54 12.4 49.4 9.5 47.9C13.1 40.3 12.7 32.4 12.2 28.7Z" fill="black"/>
<path d="M29.4785 22.2106C29.4785 22.6047 29.7441 22.9827 30.2169 23.2614C30.6897 23.54 31.3309 23.6966 31.9995 23.6966C32.6681 23.6966 33.3094 23.54 33.7821 23.2614C34.2549 22.9827 34.5205 22.6047 34.5205 22.2106C34.5205 21.8165 34.2549 21.4385 33.7821 21.1598C33.3094 20.8812 32.6681 20.7246 31.9995 20.7246C31.3309 20.7246 30.6897 20.8812 30.2169 21.1598C29.7441 21.4385 29.4785 21.8165 29.4785 22.2106Z" fill="#F2385A"/>
</svg>
