<svg width="64" height="64" viewBox="0 0 64 64" fill="none" xmlns="http://www.w3.org/2000/svg">
<path d="M32 64C49.6731 64 64 49.6731 64 32C64 14.3269 49.6731 0 32 0C14.3269 0 0 14.3269 0 32C0 49.6731 14.3269 64 32 64Z" fill="#A0EBFF"/>
<path d="M43.0051 27.9938C43.0051 21.7083 37.9101 16.6133 31.6246 16.6133C25.3391 16.6133 20.2441 21.7083 20.2441 27.9938C20.2441 34.2229 22.7805 36.045 25.3071 39.581C26.9724 41.9107 26.9724 44.5417 26.9724 44.5417H36.2768C36.2768 44.5417 36.2735 41.9107 37.942 39.581C40.4714 36.0469 43.0051 34.2229 43.0051 27.9938Z" fill="#FDF35A"/>
<path d="M31.625 16.6133V44.5417H36.2771C36.2771 44.5417 36.2739 41.9107 37.9424 39.581C40.4723 36.0475 43.0054 34.2229 43.0054 27.9938C43.0054 21.7083 37.9097 16.6133 31.625 16.6133Z" fill="#F7BF00"/>
<path d="M34.815 44.542V41.0816C34.815 40.0863 34.008 39.2793 33.0128 39.2793H30.2378C29.2425 39.2793 28.4355 40.0863 28.4355 41.0816V44.5414H34.815V44.542Z" fill="#F7BF00"/>
<path d="M36.2699 44.5449H26.9688V50.4278H36.2699V44.5449Z" fill="#335872"/>
<path d="M26.9727 50.4258V50.9039C26.9727 51.8992 27.7797 52.7062 28.7749 52.7062H34.4715C35.4668 52.7062 36.2738 51.8992 36.2738 50.9039V50.4258H26.9727Z" fill="#D03E00"/>
<path d="M31.6242 54.9816C32.8812 54.9816 33.9007 53.9621 33.9007 52.7051H29.3477C29.3477 53.9627 30.3665 54.9816 31.6242 54.9816Z" fill="#335872"/>
<path d="M33.0118 39.2793H31.623V44.5414H34.814V41.0816C34.814 40.0863 34.0069 39.2793 33.0118 39.2793Z" fill="#FDF35A"/>
<path d="M32.7535 44.5428C32.7535 44.5428 32.7336 37.1073 32.7336 34.6324C32.7336 33.8248 33.0108 32.9819 33.2789 32.1665C33.5886 31.2264 33.908 30.2535 33.5759 29.794C33.3308 29.4555 32.6555 29.2757 31.6251 29.2757C30.5966 29.2757 29.9215 29.4574 29.6719 29.8004C29.3295 30.2728 29.6514 31.2597 29.9631 32.2145C30.2255 33.0178 30.4963 33.8472 30.4963 34.6318V44.5409H29.5215V34.6324C29.5215 34.0033 29.2751 33.248 29.0364 32.5172C28.6491 31.3307 28.2491 30.1024 28.8828 29.2282C29.3423 28.5958 30.2133 28.3008 31.6251 28.3008C33.0401 28.3008 33.9113 28.5933 34.3656 29.2224C34.9903 30.0852 34.5915 31.2979 34.2056 32.471C33.9618 33.2134 33.709 33.9808 33.709 34.6323C33.709 37.1065 33.7289 44.5402 33.7289 44.5402L32.7535 44.5428Z" fill="#D03E00"/>
<path d="M36.2765 44.5449H31.623V50.4278H36.2765V44.5449Z" fill="#153040"/>
<path d="M31.625 52.7051V54.9816C32.882 54.9816 33.9015 53.9621 33.9015 52.7051H31.625Z" fill="#153040"/>
<path d="M31.625 50.4258V52.7062H34.4718C35.467 52.7062 36.274 51.8992 36.274 50.9039V50.4258H31.625Z" fill="#9C2E00"/>
<path d="M18.8269 32.194C18.7705 31.867 18.4583 31.6481 18.1325 31.7044L13.9028 32.4359C13.5758 32.4922 13.3575 32.8033 13.4138 33.1303C13.4643 33.4221 13.7184 33.6287 14.0051 33.6287L14.1081 33.6197L18.3379 32.8883C18.6644 32.8315 18.8833 32.5204 18.8269 32.194ZM24.2324 11.6032C24.0935 11.3025 23.7364 11.1706 23.4349 11.3101C23.1341 11.449 23.0023 11.8061 23.1424 12.1076L24.9434 16.0033C25.0451 16.2228 25.2621 16.352 25.4886 16.352C25.5725 16.352 25.6589 16.3341 25.7401 16.2964C26.0409 16.1575 26.1728 15.8004 26.0326 15.4989L24.2324 11.6032ZM20.2778 20.4513C20.3904 20.5466 20.528 20.5934 20.665 20.5934C20.8365 20.5934 21.0061 20.521 21.1245 20.3802C21.3389 20.1267 21.3069 19.7479 21.0535 19.5335L17.7748 16.7636C17.52 16.5486 17.1411 16.5819 16.928 16.8346C16.7136 17.0881 16.7456 17.467 16.999 17.6814L20.2778 20.4513ZM13.7869 25.33L17.929 26.4545L18.0871 26.4756C18.3508 26.4756 18.5934 26.2996 18.6664 26.0321C18.7534 25.7121 18.564 25.3819 18.244 25.2955L14.1019 24.171C13.7825 24.084 13.4523 24.2734 13.3653 24.5934C13.2775 24.9134 13.4663 25.243 13.7869 25.33ZM20.7405 37.5597L17.216 40.0102C16.944 40.1997 16.8761 40.5741 17.0656 40.8461C17.1821 41.0145 17.3696 41.104 17.5598 41.104C17.6781 41.104 17.7973 41.0688 17.9021 40.9965L21.4266 38.546C21.6986 38.3565 21.7665 37.9821 21.577 37.7101C21.3875 37.4369 21.0138 37.371 20.7405 37.5597ZM31.6238 9.0625C31.3243 9.08875 31.0676 9.33637 31.0663 9.652L31.0521 13.9445C31.0509 14.2664 31.3049 14.525 31.6236 14.5416C31.9424 14.5256 32.1964 14.2664 32.1951 13.9445L32.181 9.652C32.1799 9.33637 31.9226 9.08875 31.6238 9.0625ZM42.5824 20.5934C42.7194 20.5934 42.8569 20.5473 42.9696 20.4513L46.2484 17.682C46.5019 17.4676 46.5331 17.0887 46.3194 16.8352C46.1063 16.5825 45.7274 16.5491 45.4726 16.7642L42.1939 19.5341C41.9404 19.7485 41.9091 20.1274 42.1229 20.3809C42.2413 20.5211 42.4109 20.5934 42.5824 20.5934ZM44.5811 26.0321C44.6541 26.2996 44.896 26.4756 45.1604 26.4756L45.3185 26.4545L49.4606 25.33C49.7806 25.243 49.9701 24.9134 49.883 24.5927C49.7954 24.2727 49.4651 24.0832 49.1464 24.1704L45.0043 25.2949C44.6829 25.3825 44.4941 25.7121 44.5811 26.0321ZM49.3446 32.436L45.1149 31.7045C44.7885 31.6481 44.4768 31.867 44.4205 32.1941C44.3641 32.5211 44.583 32.8315 44.9095 32.8885L49.1393 33.62L49.2423 33.629C49.529 33.629 49.783 33.4222 49.8336 33.1305C49.8899 32.8032 49.671 32.4922 49.3446 32.436ZM42.5063 37.5597C42.233 37.371 41.8593 37.4369 41.6698 37.7101C41.4803 37.9821 41.5475 38.3571 41.8201 38.546L45.3446 40.9965C45.4496 41.0689 45.5686 41.104 45.687 41.104C45.8771 41.104 46.064 41.0137 46.1811 40.8461C46.3706 40.5741 46.3034 40.1997 46.0308 40.0102L42.5063 37.5597ZM39.8113 11.3102C39.5098 11.1707 39.1534 11.3026 39.0138 11.6034L37.2128 15.4997C37.0733 15.8005 37.2044 16.1576 37.5053 16.2972C37.5865 16.335 37.6729 16.3529 37.7568 16.3529C37.984 16.3529 38.2009 16.2236 38.302 16.0041L40.103 12.1085C40.2439 11.8062 40.1126 11.4497 39.8113 11.3102Z" fill="#F7BF00"/>
</svg>
