<svg width="135" height="57" viewBox="0 0 135 57" fill="none" xmlns="http://www.w3.org/2000/svg">
<path d="M121.723 0L111.922 20.9087H132.009L121.723 0Z" fill="#F7931E"/>
<path d="M10.3429 38.0313C9.73263 38.0804 9.12496 37.9092 8.63054 37.5489C8.43157 37.3469 8.27906 37.1041 8.1836 36.8374C8.08813 36.5707 8.05201 36.2865 8.07772 36.0044V18.4874C7.78289 18.5149 7.41644 18.5678 6.97838 18.6461C6.51337 18.731 6.05394 18.8439 5.60263 18.9842C5.11383 19.1347 4.63369 19.3119 4.1644 19.515C3.71118 19.7073 3.28007 19.9478 2.87854 20.2324C2.5196 20.4842 2.20583 20.7946 1.95043 21.1505C1.71412 21.4802 1.58828 21.876 1.59088 22.2813C1.58141 22.5213 1.62164 22.7608 1.70908 22.9847C1.7694 23.1337 1.8614 23.2678 1.97875 23.3779C2.06683 23.4582 2.1738 23.5151 2.28976 23.5433C2.36462 23.5619 2.44106 23.5735 2.51808 23.5778C2.71373 23.5854 2.90827 23.5453 3.08483 23.4608C3.22422 23.3876 3.35819 23.3046 3.48574 23.2125C3.60559 23.1252 3.71855 23.0424 3.82462 22.9641C3.93054 22.886 4.05925 22.8449 4.19092 22.8471C4.31218 22.8493 4.43186 22.875 4.54328 22.9228C4.6743 22.9779 4.7921 23.0601 4.88891 23.164C5.00524 23.2907 5.09671 23.4381 5.15857 23.5985C5.23756 23.8076 5.27511 24.0301 5.26914 24.2535C5.27787 24.5836 5.2042 24.9107 5.05475 25.2053C4.91862 25.4639 4.73042 25.6916 4.50193 25.8742C4.27183 26.0557 4.00895 26.1915 3.72754 26.2741C3.44746 26.3599 3.15623 26.404 2.86326 26.4051C2.4532 26.4113 2.0462 26.3338 1.66728 26.1773C1.3245 26.034 1.01589 25.8201 0.761648 25.5496C0.510444 25.2791 0.317551 24.96 0.194898 24.6122C0.0642974 24.2447 -0.00124946 23.8574 0.00118657 23.4676C-0.0218813 22.4635 0.291964 21.4806 0.892886 20.6749C1.54387 19.8427 2.37919 19.1723 3.33338 18.7161C4.47458 18.1613 5.68992 17.7734 6.94197 17.5643C8.39799 17.3089 9.87404 17.1842 11.3524 17.1917C12.0991 17.1917 12.8272 17.1986 13.5367 17.2124C14.2462 17.2261 14.8937 17.2467 15.4792 17.2742C16.0644 17.3017 16.5689 17.3339 16.9929 17.3706C17.3041 17.3916 17.6135 17.4331 17.9192 17.4948C18.0791 17.5296 18.2299 17.5977 18.3615 17.6948C18.4654 17.774 18.5504 17.8752 18.6105 17.9911C18.6658 18.1017 18.7032 18.2203 18.721 18.3426C18.7397 18.4682 18.749 18.595 18.7489 18.7219C18.747 18.8402 18.7331 18.9579 18.7076 19.0734C18.6807 19.2042 18.639 19.3314 18.5831 19.4527C18.5326 19.5653 18.4624 19.6681 18.3759 19.7562C18.3363 19.7966 18.2889 19.8284 18.2366 19.8497C18.1843 19.8711 18.1281 19.8815 18.0716 19.8804C17.9865 19.876 17.9057 19.8418 17.8433 19.784C17.7651 19.7198 17.6568 19.6416 17.5183 19.5495C17.3377 19.4334 17.1508 19.3274 16.9583 19.2321C16.6618 19.0903 16.3514 18.9794 16.032 18.9012C15.5673 18.7839 15.0964 18.6918 14.6216 18.6255C13.95 18.5332 13.2738 18.478 12.596 18.4601V36.004C12.6217 36.286 12.5856 36.5702 12.4901 36.837C12.3947 37.1037 12.2421 37.3465 12.0432 37.5485C11.553 37.9081 10.9494 38.0795 10.3429 38.0313ZM23.5881 30.6665C23.5945 30.568 23.5779 30.4694 23.5395 30.3784C23.5012 30.2874 23.4421 30.2066 23.367 30.1424C23.205 30.0181 23.0044 29.9546 22.8002 29.9631C22.4804 29.9623 22.1651 30.038 21.8806 30.1836C21.5796 30.3398 21.3174 30.5614 21.1134 30.8319C20.8752 31.1491 20.6964 31.5067 20.5858 31.8873C20.4492 32.36 20.3839 32.8503 20.3921 33.3422C20.3836 33.7864 20.423 34.2303 20.5094 34.6661C20.5663 34.9605 20.674 35.2428 20.8276 35.5005C20.938 35.6859 21.0986 35.8365 21.291 35.9349C21.4636 36.0171 21.6525 36.0596 21.8438 36.0591C22.0823 36.0594 22.3164 35.9951 22.5211 35.873C22.7327 35.7492 22.92 35.588 23.0739 35.3974C23.2319 35.2022 23.3579 34.9834 23.4474 34.7491C23.5376 34.5206 23.5846 34.2773 23.5858 34.0317L23.5881 30.6665ZM21.3894 24.6261C21.0954 24.6235 20.8024 24.6606 20.5184 24.7363C20.2774 24.7993 20.0452 24.8919 19.8271 25.0121C19.6543 25.1056 19.4998 25.2294 19.3709 25.3775C19.273 25.4807 19.2143 25.6149 19.2051 25.7568C19.2041 25.8226 19.2245 25.887 19.2631 25.9403C19.3017 25.9937 19.3566 26.0333 19.4195 26.0531C19.5624 26.1129 19.7214 26.1818 19.8963 26.2598C20.0743 26.3399 20.236 26.4521 20.3732 26.5907C20.4507 26.6802 20.5096 26.7842 20.5464 26.8967C20.5832 27.0091 20.5972 27.1278 20.5876 27.2457C20.5897 27.4293 20.5496 27.6109 20.4703 27.7765C20.3918 27.9376 20.2839 28.0827 20.1521 28.2042C20.0156 28.3301 19.8559 28.4285 19.682 28.4939C19.5033 28.5627 19.3134 28.5978 19.1219 28.5974C18.8877 28.6062 18.6544 28.5638 18.4383 28.4733C18.2221 28.3828 18.0284 28.2463 17.8707 28.0733C17.5398 27.6867 17.3695 27.1885 17.3947 26.6808C17.3806 26.1651 17.5359 25.6589 17.837 25.2394C18.1437 24.8292 18.5381 24.4923 18.9916 24.253C19.4975 23.9844 20.0402 23.7915 20.6024 23.6805C21.1937 23.5572 21.7961 23.4949 22.4002 23.4945C23.0937 23.4916 23.785 23.5703 24.46 23.7289C25.079 23.8699 25.6671 24.1222 26.1953 24.4736C26.6914 24.8072 27.1031 25.251 27.398 25.7702C27.7124 26.3544 27.8674 27.0107 27.8475 27.6734V35.4655C27.8475 35.5483 27.8521 35.6402 27.8614 35.7412C27.8687 35.8364 27.8916 35.9297 27.9293 36.0174C27.9657 36.0995 28.0228 36.1707 28.0951 36.2241C28.1895 36.2852 28.3011 36.3143 28.4133 36.307C28.5856 36.3047 28.7508 36.2383 28.8767 36.121C29.0125 36.0039 29.1396 35.8771 29.2569 35.7417L29.6026 36.0313C29.4644 36.2244 29.2986 36.4359 29.105 36.6657C28.8968 36.9091 28.66 37.1268 28.3998 37.314C28.102 37.5277 27.7761 37.6995 27.4313 37.8247C27.0277 37.9684 26.6014 38.0384 26.1728 38.0313C25.6132 38.0382 25.0676 37.8561 24.625 37.5144C24.1405 37.1126 23.8247 36.5442 23.74 35.9215C23.4729 36.2867 23.1644 36.6198 22.8204 36.9141C22.5217 37.1678 22.1941 37.3854 21.8442 37.5624C21.5264 37.7229 21.1897 37.8434 20.842 37.9211C20.5082 37.9943 20.1675 38.0313 19.8258 38.0313C19.3892 38.0321 18.9554 37.9623 18.5413 37.8247C18.1279 37.6876 17.7486 37.4643 17.4284 37.1696C17.0829 36.8438 16.8138 36.4457 16.6406 36.004C16.4281 35.445 16.3272 34.8499 16.3435 34.2523C16.3135 33.5345 16.4859 32.8226 16.841 32.1976C17.1754 31.6615 17.6209 31.2029 18.1475 30.8526C18.7217 30.471 19.3389 30.158 19.9862 29.92C20.673 29.6627 21.3758 29.3914 22.0946 29.1063C22.5811 28.9343 22.9937 28.6008 23.2631 28.1616C23.4991 27.7725 23.6257 27.3271 23.6294 26.8722C23.6438 26.5736 23.5979 26.2751 23.4946 25.9944C23.3913 25.7137 23.2327 25.4565 23.0281 25.238C22.8119 25.0289 22.5548 24.8666 22.2728 24.7613C21.9908 24.656 21.6901 24.61 21.3894 24.6261ZM39.5973 30.9427C39.6115 30.0135 39.5583 29.0845 39.4382 28.163C39.3732 27.6171 39.2313 27.0831 39.0167 26.5768C38.901 26.2842 38.6984 26.0338 38.436 25.8594C38.2374 25.7481 38.0138 25.6887 37.7861 25.6868C37.5323 25.6828 37.2835 25.7575 37.0741 25.9007C36.8724 26.038 36.6909 26.2028 36.5348 26.3903C36.3906 26.563 36.2611 26.7474 36.1478 26.9417C36.068 27.0859 35.9779 27.2242 35.8782 27.3555V36.5693C35.8746 36.7157 35.8558 36.8613 35.822 37.0038C35.7783 37.1864 35.685 37.3534 35.5523 37.4866C35.3722 37.6615 35.1548 37.7934 34.9164 37.8726C34.5442 37.9918 34.1541 38.0455 33.7635 38.0313C33.3714 38.0468 32.9798 37.9884 32.6094 37.8592C32.3686 37.7703 32.1494 37.6316 31.9662 37.4521C31.8319 37.3191 31.7364 37.1522 31.6898 36.9692C31.6575 36.8382 31.6389 36.7042 31.6345 36.5693V25.9222C31.6403 25.6771 31.5756 25.4355 31.448 25.2259C31.3792 25.1249 31.2846 25.0442 31.1739 24.9921C31.0633 24.9399 30.9406 24.9184 30.8188 24.9296C30.6805 24.9257 30.5432 24.9541 30.4179 25.0125C30.2905 25.0785 30.17 25.1571 30.0583 25.247L29.768 24.9022C29.9952 24.7164 30.2329 24.5436 30.4799 24.3849C30.7497 24.211 31.0342 24.0609 31.3302 23.9365C31.6479 23.8033 31.9763 23.6972 32.3118 23.6191C32.6744 23.5349 33.0456 23.4932 33.4179 23.4949C33.9015 23.4686 34.3834 23.5709 34.8143 23.7913C35.1166 23.96 35.3692 24.2049 35.5469 24.5014C35.7001 24.7662 35.7966 25.0597 35.8305 25.3636C35.8598 25.6132 35.876 25.8641 35.8791 26.1154C36.2139 25.6352 36.6036 25.1956 37.0404 24.8054C37.2254 24.6317 37.4216 24.4704 37.6279 24.3225C37.847 24.1647 38.0781 24.0241 38.3191 23.902C38.5663 23.7768 38.8258 23.6775 39.0935 23.6056C39.3662 23.532 39.6474 23.4949 39.9299 23.4954C40.5057 23.4842 41.0761 23.607 41.596 23.854C42.1132 24.1252 42.5388 24.5425 42.8194 25.0538C43.1979 25.7477 43.4551 26.501 43.5799 27.2811C43.7721 28.4178 43.8599 29.5695 43.8423 30.7221C43.86 31.8907 43.7393 33.0573 43.4828 34.1976C43.2844 35.073 42.9681 35.9176 42.5425 36.7083C42.201 37.3397 41.7573 37.9105 41.2293 38.3976C40.7843 38.8042 40.2868 39.1496 39.7501 39.4248C39.2971 39.6571 38.8162 39.8309 38.3191 39.9422C37.9306 40.0299 37.535 40.083 37.1371 40.1009L36.9852 39.5355C37.2549 39.4738 37.5136 39.3714 37.7524 39.232C38.0064 39.0762 38.2253 38.8695 38.3951 38.6249C38.6121 38.3123 38.7842 37.971 38.9065 37.6108C39.0771 37.11 39.2043 36.5955 39.2868 36.073C39.4046 35.3491 39.4831 34.6193 39.5218 33.8869C39.5722 33.0458 39.5973 32.0644 39.5973 30.9427ZM51.184 24.6812V34.8733C51.1456 35.2338 51.2442 35.5956 51.4604 35.8869C51.5608 35.9838 51.6802 36.059 51.8111 36.1076C51.9419 36.1563 52.0815 36.1775 52.2209 36.1698C52.4586 36.1734 52.6913 36.101 52.8847 35.9632C53.072 35.8311 53.2395 35.6732 53.3823 35.4942C53.5556 35.2897 53.6998 35.0623 53.811 34.8186L54.2398 35.0118C54.1017 35.3059 53.9381 35.6277 53.749 35.9771C53.5506 36.3387 53.2962 36.6669 52.9953 36.9495C52.6498 37.269 52.2494 37.5237 51.8133 37.7014C51.2432 37.9203 50.635 38.0232 50.0245 38.004C49.628 38.0054 49.2337 37.9449 48.8559 37.8247C48.4879 37.7082 48.1486 37.5156 47.8604 37.2593C47.5618 36.9905 47.3239 36.6615 47.1624 36.294C46.9767 35.8536 46.8872 35.3787 46.8999 34.9011V24.6812H45.3502V23.6881C45.7171 23.6692 46.0797 23.6019 46.4289 23.4882C46.9315 23.3353 47.4089 23.11 47.846 22.8193C48.3615 22.4775 48.817 22.0534 49.1943 21.5639C49.632 20.9903 49.9345 20.3257 50.0793 19.6195H51.1854V23.6881H53.4389C54.1763 23.6881 54.545 23.5639 54.545 23.3156C54.5468 23.2734 54.5341 23.2319 54.5089 23.198C54.4837 23.1642 54.4475 23.14 54.4066 23.1295C54.3143 23.0972 54.2106 23.0558 54.0955 23.0053C53.9794 22.9541 53.8739 22.8815 53.7845 22.7915C53.6803 22.6638 53.6306 22.5003 53.6461 22.3364C53.6401 22.2238 53.6586 22.1112 53.7003 22.0064C53.7421 21.9017 53.8061 21.8071 53.8879 21.7294C54.0614 21.5778 54.2867 21.4988 54.5171 21.5088C54.6688 21.5054 54.8188 21.541 54.9526 21.6123C55.0756 21.68 55.1818 21.7742 55.2637 21.8881C55.3485 22.0072 55.4117 22.1403 55.4502 22.2813C55.4911 22.4248 55.5119 22.5732 55.5122 22.7224C55.5254 22.9828 55.4863 23.2432 55.3972 23.4884C55.3082 23.7335 55.1709 23.9584 54.9935 24.1499C54.7655 24.345 54.5006 24.4925 54.2144 24.5837C53.9282 24.6748 53.6266 24.7079 53.3274 24.6808L51.184 24.6812ZM60.6548 26.4051C60.9885 25.8931 61.3631 25.4089 61.7748 24.9569C61.9452 24.7685 62.1252 24.5889 62.3141 24.4189C62.5027 24.2481 62.7037 24.0913 62.9155 23.95C63.1163 23.8155 63.3319 23.7044 63.5582 23.6191C63.7701 23.538 63.995 23.496 64.222 23.4949C64.4256 23.4836 64.6294 23.5153 64.8199 23.5877C65.0105 23.6602 65.1836 23.7718 65.3281 23.9154C65.6116 24.2408 65.7556 24.6643 65.729 25.0946C65.7299 25.3973 65.7044 25.6996 65.653 25.998C65.5831 26.3571 65.4837 26.71 65.356 27.0529H64.969C64.9206 26.7806 64.7848 26.5313 64.582 26.3427C64.3343 26.1387 64.0175 26.0375 63.697 26.0598C63.4086 26.0604 63.1227 26.1142 62.8539 26.2186C62.5734 26.3262 62.3027 26.4578 62.0449 26.6117C61.7854 26.7658 61.5361 26.9362 61.2984 27.122C61.0634 27.3058 60.8492 27.4805 60.6557 27.6461V36.5971C60.6526 36.7412 60.6341 36.8846 60.6004 37.0248C60.5562 37.2032 60.4628 37.3657 60.3307 37.4938C60.1488 37.6648 59.9318 37.7942 59.6947 37.8731C59.322 37.9925 58.9313 38.0462 58.5401 38.0318C58.1478 38.0472 57.7561 37.9886 57.3855 37.8592C57.1449 37.7704 56.9259 37.6318 56.7428 37.4525C56.6085 37.3195 56.5129 37.1526 56.4664 36.9697C56.434 36.8387 56.4155 36.7046 56.4111 36.5698V25.9222C56.4169 25.6771 56.3522 25.4355 56.2246 25.2259C56.1558 25.1249 56.0612 25.0442 55.9505 24.9921C55.8399 24.9399 55.7172 24.9184 55.5953 24.9296C55.4571 24.9257 55.3198 24.9541 55.1944 25.0125C55.0671 25.0785 54.9466 25.1571 54.8349 25.247L54.5445 24.9022C54.7718 24.7164 55.0095 24.5436 55.2565 24.3849C55.5263 24.211 55.8108 24.0609 56.1068 23.9365C56.4245 23.8033 56.7528 23.6972 57.0884 23.6191C57.451 23.5349 57.8222 23.4932 58.1945 23.4949C58.54 23.4867 58.8842 23.5405 59.2107 23.6536C59.4665 23.7441 59.7016 23.8848 59.9019 24.0674C60.0766 24.2307 60.2195 24.4248 60.3235 24.64C60.4226 24.8448 60.4992 25.0598 60.5518 25.2811C60.6007 25.4847 60.6308 25.6924 60.6417 25.9016C60.6504 26.0997 60.6548 26.2676 60.6548 26.4051ZM73.4298 30.6665C73.4362 30.568 73.4196 30.4694 73.3812 30.3784C73.3429 30.2874 73.2838 30.2066 73.2087 30.1424C73.0467 30.0181 72.8461 29.9546 72.6419 29.9631C72.3221 29.9623 72.0068 30.038 71.7223 30.1836C71.4213 30.3398 71.1591 30.5614 70.9551 30.8319C70.7177 31.1491 70.5397 31.5065 70.4297 31.8869C70.2932 32.3596 70.2279 32.8499 70.236 33.3417C70.2276 33.786 70.2669 34.2298 70.3533 34.6657C70.4103 34.96 70.5179 35.2423 70.6715 35.5C70.782 35.6854 70.9426 35.836 71.1349 35.9345C71.3075 36.0167 71.4965 36.0591 71.6877 36.0587C71.9262 36.059 72.1603 35.9947 72.3651 35.8726C72.5767 35.7487 72.764 35.5876 72.9179 35.3969C73.0758 35.2018 73.2019 34.983 73.2914 34.7486C73.3816 34.5201 73.4285 34.2769 73.4298 34.0313V30.6665ZM71.2316 24.6256C70.9376 24.6231 70.6446 24.6602 70.3605 24.7359C70.1195 24.7988 69.8873 24.8915 69.6693 25.0116C69.4965 25.1052 69.342 25.2289 69.2131 25.377C69.1151 25.4803 69.0564 25.6144 69.0472 25.7563C69.0463 25.8221 69.0666 25.8865 69.1053 25.9399C69.1439 25.9933 69.1987 26.0328 69.2616 26.0527C69.4046 26.1124 69.5635 26.1813 69.7385 26.2594C69.9165 26.3395 70.0781 26.4517 70.2154 26.5902C70.2929 26.6798 70.3517 26.7838 70.3885 26.8962C70.4253 27.0087 70.4394 27.1273 70.4297 27.2452C70.4319 27.4288 70.3918 27.6104 70.3124 27.7761C70.234 27.9372 70.1261 28.0822 69.9942 28.2038C69.8577 28.3297 69.6981 28.428 69.5241 28.4934C69.3455 28.5622 69.1556 28.5973 68.9641 28.597C68.7299 28.6058 68.4965 28.5634 68.2804 28.4729C68.0643 28.3823 67.8706 28.2458 67.7128 28.0729C67.3815 27.6863 67.2109 27.1879 67.236 26.6799C67.2218 26.1642 67.3772 25.658 67.6782 25.2385C67.985 24.8283 68.3794 24.4914 68.8329 24.2521C69.3387 23.9835 69.8815 23.7906 70.4437 23.6796C71.035 23.5563 71.6374 23.494 72.2415 23.4936C72.9349 23.4907 73.6263 23.5694 74.3013 23.728C74.9203 23.869 75.5083 24.1213 76.0366 24.4727C76.5327 24.8063 76.9444 25.2501 77.2393 25.7693C77.5536 26.3535 77.7086 27.0098 77.6887 27.6725V35.4646C77.6887 35.5474 77.6934 35.6393 77.7027 35.7403C77.7104 35.8354 77.7338 35.9286 77.7719 36.0161C77.8083 36.0981 77.8654 36.1694 77.9377 36.2228C78.0321 36.2838 78.1437 36.3129 78.2559 36.3057C78.4282 36.3033 78.5934 36.237 78.7193 36.1196C78.8551 36.0026 78.9822 35.8758 79.0995 35.7403L79.4452 36.03C79.307 36.223 79.1412 36.4345 78.9476 36.6644C78.7394 36.9078 78.5026 37.1255 78.2425 37.3127C77.9444 37.5269 77.6182 37.6992 77.273 37.8247C76.8694 37.9684 76.4431 38.0384 76.0145 38.0313C75.4547 38.0382 74.909 37.8559 74.4662 37.514C73.9818 37.1122 73.666 36.5438 73.5813 35.921C73.3144 36.2863 73.0059 36.6196 72.6621 36.9141C72.364 37.1676 72.037 37.3852 71.6877 37.5624C71.3699 37.7229 71.0332 37.8434 70.6855 37.9211C70.3517 37.9943 70.011 38.0313 69.6693 38.0313C69.2323 38.0323 68.798 37.9625 68.3834 37.8247C67.9701 37.6876 67.5907 37.4643 67.2706 37.1696C66.925 36.8438 66.656 36.4457 66.4827 36.004C66.2702 35.445 66.1693 34.8499 66.1856 34.2523C66.1557 33.5345 66.328 32.8226 66.6832 32.1976C67.0176 31.6615 67.4631 31.2029 67.9897 30.8526C68.564 30.4716 69.1811 30.1592 69.8284 29.9218C70.5151 29.6645 71.2179 29.3932 71.9367 29.1081C72.4233 28.9361 72.8358 28.6026 73.1053 28.1634C73.3413 27.7743 73.4678 27.3288 73.4716 26.874C73.4859 26.5754 73.4401 26.2769 73.3368 25.9962C73.2335 25.7155 73.0749 25.4583 72.8702 25.2398C72.6542 25.0304 72.397 24.8677 72.115 24.7621C71.8329 24.6564 71.532 24.6101 71.2311 24.6261L71.2316 24.6256ZM89.4408 30.9427C89.455 30.0135 89.4018 29.0845 89.2817 28.163C89.2168 27.6171 89.0748 27.0831 88.8602 26.5768C88.7445 26.2842 88.5419 26.0338 88.2795 25.8594C88.0809 25.7481 87.8573 25.6887 87.6296 25.6868C87.3758 25.6828 87.127 25.7575 86.9176 25.9007C86.7159 26.038 86.5344 26.2028 86.3783 26.3903C86.2341 26.563 86.1046 26.7474 85.9913 26.9417C85.9115 27.0859 85.8214 27.2242 85.7217 27.3555V36.5693C85.7184 36.7156 85.6999 36.8612 85.6664 37.0038C85.6225 37.1865 85.5288 37.3536 85.3958 37.4866C85.2157 37.6615 84.9983 37.7934 84.7599 37.8726C84.3871 37.992 83.9964 38.0457 83.6052 38.0313C83.2129 38.0467 82.8212 37.9882 82.4506 37.8587C82.21 37.7699 81.991 37.6314 81.8079 37.4521C81.6736 37.3191 81.5781 37.1522 81.5315 36.9692C81.4992 36.8382 81.4806 36.7042 81.4762 36.5693V25.9222C81.4821 25.6771 81.4173 25.4355 81.2897 25.2259C81.2209 25.1249 81.1263 25.0442 81.0156 24.9921C80.905 24.9399 80.7823 24.9184 80.6605 24.9296C80.5222 24.9257 80.3849 24.9541 80.2596 25.0125C80.1322 25.0785 80.0117 25.1571 79.9 25.247L79.6097 24.9022C79.8369 24.7164 80.0746 24.5436 80.3216 24.3849C80.5914 24.211 80.8759 24.0609 81.1719 23.9365C81.4896 23.8033 81.818 23.6972 82.1535 23.6191C82.5161 23.5349 82.8873 23.4932 83.2596 23.4949C83.7432 23.4686 84.2251 23.5709 84.656 23.7913C84.9583 23.96 85.2109 24.2049 85.3886 24.5014C85.5418 24.7662 85.6383 25.0597 85.6722 25.3636C85.7015 25.6132 85.7177 25.8641 85.7208 26.1154C86.0556 25.6352 86.4453 25.1956 86.8821 24.8054C87.0671 24.6317 87.2633 24.4704 87.4696 24.3225C87.6887 24.1647 87.9198 24.0241 88.1608 23.902C88.408 23.7768 88.6675 23.6775 88.9352 23.6056C89.2079 23.532 89.4892 23.4949 89.7716 23.4954C90.3474 23.4842 90.9178 23.607 91.4377 23.854C91.9549 24.1252 92.3805 24.5425 92.6611 25.0538C93.0396 25.7477 93.2968 26.501 93.4216 27.2811C93.6138 28.4178 93.7016 29.5695 93.6841 30.7221C93.7017 31.8907 93.581 33.0573 93.3245 34.1976C93.1261 35.073 92.8098 35.9176 92.3843 36.7083C92.0427 37.3397 91.599 37.9105 91.071 38.3976C90.626 38.8042 90.1286 39.1496 89.5919 39.4248C89.1388 39.6571 88.6579 39.8309 88.1608 39.9422C87.7723 40.0299 87.3767 40.083 86.9788 40.1009L86.8269 39.5355C87.0966 39.4738 87.3553 39.3714 87.5941 39.232C87.8481 39.0762 88.067 38.8695 88.2368 38.6249C88.4537 38.3124 88.6259 37.9713 88.7482 37.6113C88.9188 37.1104 89.046 36.5959 89.1285 36.0735C89.2463 35.3495 89.3248 34.6198 89.3635 33.8874C89.4151 33.046 89.4408 32.0644 89.4408 30.9427ZM103.998 36.8455C104.517 36.844 105.034 36.8049 105.547 36.7285C106.051 36.6588 106.544 36.522 107.012 36.3218C107.429 36.147 107.804 35.8862 108.112 35.5565C108.406 35.2297 108.562 34.8023 108.547 34.3635C108.564 34.1405 108.508 33.918 108.388 33.7291C108.298 33.6038 108.176 33.504 108.036 33.4395C107.879 33.3737 107.707 33.3499 107.538 33.3704C107.412 33.3689 107.286 33.3852 107.165 33.4188C107.059 33.4493 106.955 33.4862 106.854 33.5291C106.757 33.5704 106.665 33.6072 106.577 33.6394C106.491 33.6714 106.4 33.6878 106.308 33.6879C106.202 33.687 106.099 33.6634 106.003 33.6188C105.895 33.5679 105.797 33.4979 105.713 33.4121C105.615 33.3117 105.54 33.1919 105.492 33.0606C105.433 32.8994 105.405 32.7287 105.409 32.5571C105.399 32.2322 105.47 31.9099 105.616 31.6192C105.745 31.3734 105.924 31.1572 106.141 30.9848C106.352 30.8203 106.591 30.6964 106.847 30.6194C107.088 30.5439 107.34 30.5045 107.593 30.5024C108.017 30.4935 108.439 30.5734 108.83 30.7369C109.167 30.8805 109.471 31.0917 109.722 31.3574C109.961 31.6138 110.145 31.9166 110.261 32.2469C110.381 32.5811 110.442 32.9335 110.441 33.2884C110.471 34.0847 110.27 34.8726 109.86 35.557C109.452 36.1785 108.88 36.6769 108.208 36.9984C107.39 37.3879 106.515 37.644 105.616 37.757C104.489 37.9116 103.352 37.9853 102.215 37.9775C101.001 37.9916 99.7865 37.934 98.579 37.8049C97.841 37.7319 97.1131 37.5794 96.4081 37.3499C96.0077 37.2359 95.6465 37.0141 95.3641 36.7087C95.196 36.5014 95.1012 36.2445 95.0944 35.978C95.0962 35.7539 95.1287 35.5311 95.191 35.3158C95.2702 35.0491 95.3743 34.7905 95.5021 34.5433C95.645 34.2581 95.827 33.9294 96.0481 33.5569C96.2693 33.1845 96.5365 32.7501 96.8499 32.2536L103.763 21.2339C103.873 21.0501 103.989 20.8639 104.108 20.6753C104.228 20.4867 104.337 20.3029 104.433 20.1239C104.522 19.9612 104.601 19.793 104.669 19.6204C104.722 19.4935 104.753 19.358 104.758 19.2205C104.76 19.106 104.728 18.9935 104.667 18.8968C104.605 18.8001 104.517 18.7232 104.413 18.6757C104.157 18.5436 103.882 18.4551 103.597 18.4139C103.281 18.3631 102.963 18.3353 102.643 18.331C102.32 18.3265 102.062 18.3242 101.868 18.3242C101.345 18.3266 100.822 18.3727 100.306 18.4623C99.7887 18.5463 99.2845 18.697 98.8059 18.9107C98.375 19.0994 97.9887 19.3767 97.6724 19.7244C97.3696 20.0687 97.209 20.5147 97.223 20.9726C97.2073 21.1911 97.2631 21.4089 97.3821 21.5931C97.4702 21.7172 97.5926 21.813 97.7345 21.8688C97.8962 21.9352 98.0723 21.959 98.2459 21.9378C98.3651 21.9391 98.4839 21.9228 98.5983 21.8894C98.6996 21.859 98.7988 21.8221 98.8954 21.7791C98.9877 21.7379 99.0776 21.7011 99.165 21.6688C99.2513 21.6368 99.3426 21.6204 99.4347 21.6204C99.5216 21.6262 99.6063 21.6497 99.6837 21.6894C99.7922 21.7404 99.8905 21.8104 99.974 21.8961C100.073 21.9982 100.153 22.1173 100.209 22.2476C100.277 22.4067 100.31 22.5783 100.306 22.7511C100.315 23.0686 100.246 23.3836 100.105 23.6684C99.9814 23.9094 99.8069 24.1211 99.5938 24.2889C99.3891 24.4485 99.1572 24.57 98.9093 24.6476C98.677 24.723 98.4345 24.7625 98.1902 24.7646C97.7712 24.7733 97.3555 24.6884 96.9735 24.5162C96.6394 24.3626 96.3406 24.1419 96.0958 23.8679C95.8654 23.6089 95.685 23.3096 95.5636 22.9851C95.4463 22.6767 95.3854 22.3498 95.3839 22.0199C95.3718 21.432 95.4948 20.8493 95.7434 20.3162C95.9767 19.8324 96.3088 19.4025 96.7183 19.0541C97.1467 18.6935 97.6266 18.3984 98.1421 18.1785C98.6929 17.9402 99.2647 17.7532 99.85 17.6199C100.451 17.4817 101.061 17.3849 101.675 17.3303C102.293 17.275 102.887 17.2473 103.459 17.2473C104.403 17.2396 105.347 17.2857 106.286 17.3854C106.945 17.4509 107.595 17.5802 108.229 17.7714C108.641 17.8852 109.023 18.0877 109.349 18.3646C109.459 18.4611 109.548 18.5798 109.61 18.7128C109.672 18.8459 109.706 18.9904 109.708 19.1371C109.707 19.3413 109.684 19.5448 109.639 19.7441C109.58 19.9944 109.499 20.2389 109.397 20.4749C109.258 20.7983 109.101 21.1137 108.927 21.4195C108.729 21.7734 108.482 22.1895 108.187 22.6677L101.053 34.1698C100.877 34.4486 100.716 34.736 100.57 35.0311C100.442 35.2719 100.371 35.5388 100.362 35.8112C100.36 35.9043 100.376 35.997 100.41 36.0836C100.445 36.1702 100.497 36.2488 100.563 36.3147C100.744 36.4729 100.963 36.5821 101.199 36.6321C101.568 36.7223 101.946 36.7776 102.326 36.7975C102.786 36.8295 103.344 36.8455 103.998 36.8455ZM124.834 36.5971C124.831 36.7412 124.812 36.8846 124.778 37.0248C124.734 37.2032 124.641 37.3657 124.509 37.4938C124.325 37.6657 124.106 37.7952 123.866 37.8731C123.491 37.992 123.098 38.0457 122.705 38.0318C122.312 38.0472 121.921 37.9886 121.55 37.8592C121.311 37.7715 121.094 37.6326 120.914 37.4521C120.783 37.3176 120.69 37.151 120.645 36.9692C120.612 36.8382 120.594 36.7042 120.589 36.5693V26.8189C120.589 26.6859 120.57 26.5537 120.534 26.4257C120.499 26.2958 120.443 26.1724 120.368 26.0603C120.296 25.9519 120.202 25.8601 120.092 25.7913C119.975 25.7207 119.841 25.6848 119.705 25.6877C119.445 25.6908 119.192 25.7647 118.972 25.9016C118.734 26.0433 118.509 26.2072 118.302 26.3912C118.108 26.5609 117.928 26.7453 117.762 26.9426C117.61 27.1264 117.502 27.2644 117.437 27.3564V36.5967C117.434 36.7408 117.416 36.8842 117.382 37.0244C117.338 37.2028 117.244 37.3653 117.112 37.4933C116.93 37.6643 116.713 37.7938 116.476 37.8726C116.104 37.992 115.713 38.0457 115.322 38.0313C114.929 38.0467 114.538 37.9882 114.167 37.8587C113.926 37.7699 113.707 37.6314 113.524 37.4521C113.39 37.3191 113.295 37.1522 113.248 36.9692C113.216 36.8382 113.197 36.7042 113.193 36.5693V25.9222C113.199 25.6771 113.134 25.4355 113.006 25.2259C112.937 25.1249 112.843 25.0442 112.732 24.9921C112.621 24.9399 112.499 24.9184 112.377 24.9296C112.239 24.9257 112.101 24.9541 111.976 25.0125C111.849 25.0785 111.728 25.1571 111.616 25.247L111.326 24.9022C111.553 24.7164 111.791 24.5436 112.038 24.3849C112.308 24.211 112.592 24.0609 112.888 23.9365C113.206 23.8033 113.534 23.6972 113.87 23.6191C114.233 23.5349 114.604 23.4932 114.976 23.4949C115.46 23.4686 115.942 23.5709 116.373 23.7913C116.675 23.96 116.927 24.2049 117.105 24.5014C117.258 24.7662 117.355 25.0597 117.389 25.3636C117.418 25.6132 117.434 25.8641 117.437 26.1154C117.861 25.6368 118.329 25.1982 118.834 24.8054C119.048 24.6317 119.272 24.4705 119.504 24.3225C119.747 24.1673 119.998 24.0268 120.258 23.902C120.515 23.7782 120.784 23.679 121.06 23.6056C121.33 23.5329 121.609 23.4958 121.889 23.4954C122.362 23.4819 122.831 23.5812 123.258 23.785C123.605 23.9545 123.915 24.1912 124.17 24.4812C124.389 24.7332 124.561 25.0229 124.675 25.3362C124.771 25.5853 124.825 25.8487 124.834 26.1154C125.263 25.6412 125.73 25.203 126.231 24.8054C126.443 24.6328 126.665 24.4716 126.894 24.3225C127.136 24.1654 127.388 24.0248 127.648 23.902C127.906 23.7797 128.174 23.6805 128.45 23.6056C128.718 23.5326 128.995 23.4955 129.272 23.4954C129.746 23.4817 130.216 23.5834 130.641 23.7917C131.003 23.9756 131.316 24.2427 131.553 24.5709C131.787 24.9001 131.958 25.2694 132.058 25.6604C132.163 26.0565 132.217 26.4643 132.217 26.874V35.4108C132.217 35.4936 132.222 35.5833 132.231 35.6798C132.24 35.7747 132.263 35.8677 132.3 35.9555C132.336 36.0418 132.396 36.1161 132.473 36.1694C132.566 36.2286 132.675 36.2576 132.784 36.2523C132.959 36.2526 133.127 36.186 133.255 36.0663C133.393 35.9422 133.522 35.8158 133.642 35.687L133.973 35.9766C133.818 36.2023 133.647 36.4165 133.462 36.6177C133.234 36.866 132.982 37.0901 132.708 37.2867C132.397 37.5088 132.058 37.6874 131.698 37.8175C131.284 37.9655 130.846 38.0379 130.406 38.0313C130.047 38.0385 129.689 37.9848 129.348 37.8726C129.07 37.7791 128.812 37.6342 128.588 37.4454C128.385 37.2732 128.226 37.0558 128.124 36.811C128.022 36.5639 127.971 36.299 127.972 36.0318V26.8189C127.972 26.6859 127.953 26.5537 127.917 26.4257C127.882 26.2968 127.828 26.1737 127.758 26.0603C127.69 25.9511 127.598 25.8591 127.488 25.7913C127.372 25.7207 127.237 25.6848 127.101 25.6877C126.84 25.6913 126.584 25.7651 126.361 25.9016C126.12 26.0421 125.893 26.2061 125.684 26.3912C125.492 26.5597 125.313 26.7442 125.152 26.9426C125.005 27.1264 124.898 27.2644 124.834 27.3564V36.5971Z" fill="white"/>
<path d="M76.3863 54.2468H74.4902L77.9425 44.4648H80.1354L83.5925 54.2468H81.6964L79.0773 46.4709H79.0006L76.3863 54.2468ZM76.4486 50.4114H81.6198V51.8347H76.4486V50.4114Z" fill="white"/>
<path d="M87.7916 54.39C87.0575 54.39 86.427 54.2292 85.9003 53.9076C85.3768 53.586 84.973 53.1418 84.6889 52.575C84.408 52.0051 84.2676 51.3491 84.2676 50.6072C84.2676 49.8621 84.4112 49.2045 84.6985 48.6346C84.9858 48.0614 85.3912 47.6156 85.9147 47.2972C86.4414 46.9756 87.0639 46.8148 87.7821 46.8148C88.379 46.8148 88.9073 46.9246 89.3669 47.1444C89.8298 47.3609 90.1985 47.6682 90.473 48.0662C90.7475 48.461 90.9039 48.9227 90.9422 49.4513H89.2855C89.2185 49.0979 89.0589 48.8033 88.8067 48.5677C88.5577 48.3289 88.2242 48.2095 87.806 48.2095C87.4517 48.2095 87.1405 48.305 86.8723 48.4961C86.6042 48.6839 86.3951 48.9546 86.2451 49.308C86.0982 49.6615 86.0248 50.085 86.0248 50.5785C86.0248 51.0785 86.0982 51.5083 86.2451 51.8681C86.3919 52.2248 86.5978 52.5002 86.8628 52.6944C87.1309 52.8855 87.4453 52.981 87.806 52.981C88.0614 52.981 88.2896 52.9333 88.4907 52.8377C88.695 52.739 88.8658 52.5973 89.003 52.4126C89.1403 52.228 89.2345 52.0035 89.2855 51.7392H90.9422C90.9007 52.2582 90.7475 52.7183 90.4826 53.1195C90.2176 53.5176 89.8569 53.8296 89.4005 54.0557C88.944 54.2786 88.4077 54.39 87.7916 54.39Z" fill="white"/>
<path d="M94.4819 54.3948C94.0158 54.3948 93.5961 54.312 93.2226 54.1464C92.8523 53.9777 92.5586 53.7293 92.3416 53.4013C92.1277 53.0734 92.0208 52.669 92.0208 52.1882C92.0208 51.7742 92.0974 51.4319 92.2506 51.1612C92.4038 50.8906 92.6129 50.6741 92.8778 50.5117C93.1428 50.3493 93.4412 50.2267 93.7732 50.1439C94.1084 50.0579 94.4547 49.9958 94.8122 49.9576C95.2432 49.913 95.5927 49.8732 95.8608 49.8382C96.129 49.8 96.3237 49.7427 96.445 49.6663C96.5695 49.5867 96.6317 49.4641 96.6317 49.2985V49.2698C96.6317 48.91 96.5248 48.6314 96.3109 48.434C96.097 48.2365 95.789 48.1378 95.3868 48.1378C94.9623 48.1378 94.6255 48.2302 94.3765 48.4149C94.1307 48.5995 93.9647 48.8177 93.8786 49.0692L92.2602 48.84C92.3878 48.3942 92.5985 48.0216 92.8922 47.7223C93.1859 47.4198 93.545 47.1937 93.9695 47.0441C94.3941 46.8912 94.8633 46.8148 95.3772 46.8148C95.7316 46.8148 96.0843 46.8562 96.4354 46.939C96.7865 47.0218 97.1073 47.1587 97.3978 47.3497C97.6883 47.5376 97.9213 47.7939 98.0969 48.1187C98.2756 48.4435 98.365 48.8495 98.365 49.3367V54.2468H96.6988V53.2389H96.6413C96.536 53.4427 96.3875 53.6338 96.196 53.8121C96.0077 53.9872 95.7699 54.1289 95.4826 54.2372C95.1985 54.3423 94.8649 54.3948 94.4819 54.3948ZM94.9319 53.1243C95.2799 53.1243 95.5815 53.0559 95.8369 52.9189C96.0923 52.7788 96.2886 52.5941 96.4258 52.3649C96.5663 52.1356 96.6365 51.8857 96.6365 51.615V50.7505C96.5822 50.7951 96.4897 50.8365 96.3588 50.8747C96.2311 50.9129 96.0875 50.9463 95.9279 50.975C95.7683 51.0036 95.6103 51.0291 95.4538 51.0514C95.2974 51.0737 95.1618 51.0928 95.0469 51.1087C94.7883 51.1437 94.5569 51.2011 94.3526 51.2807C94.1483 51.3603 93.9871 51.4717 93.869 51.615C93.7509 51.7551 93.6918 51.9366 93.6918 52.1595C93.6918 52.4779 93.8083 52.7183 94.0413 52.8807C94.2744 53.0431 94.5712 53.1243 94.9319 53.1243Z" fill="white"/>
<path d="M102.837 54.3757C102.259 54.3757 101.742 54.2276 101.286 53.9315C100.829 53.6354 100.469 53.2055 100.204 52.6419C99.9387 52.0783 99.8063 51.3937 99.8063 50.5881C99.8063 49.7729 99.9403 49.0851 100.208 48.5247C100.48 47.9611 100.845 47.536 101.305 47.2494C101.765 46.9597 102.277 46.8148 102.842 46.8148C103.273 46.8148 103.627 46.888 103.905 47.0345C104.183 47.1778 104.403 47.3513 104.566 47.5551C104.728 47.7557 104.855 47.9452 104.944 48.1235H105.016V44.4648H106.754V54.2468H105.049V53.0909H104.944C104.855 53.2692 104.725 53.4587 104.556 53.6593C104.387 53.8567 104.163 54.0254 103.886 54.1656C103.608 54.3057 103.258 54.3757 102.837 54.3757ZM103.321 52.9571C103.688 52.9571 104.001 52.8584 104.259 52.661C104.518 52.4604 104.714 52.1818 104.848 51.8252C104.982 51.4685 105.049 51.053 105.049 50.5785C105.049 50.1041 104.982 49.6917 104.848 49.3415C104.717 48.9912 104.523 48.719 104.264 48.5247C104.009 48.3305 103.694 48.2334 103.321 48.2334C102.934 48.2334 102.612 48.3337 102.354 48.5343C102.095 48.7349 101.9 49.0119 101.769 49.3654C101.639 49.7188 101.573 50.1232 101.573 50.5785C101.573 51.0371 101.639 51.4462 101.769 51.8061C101.903 52.1627 102.1 52.4445 102.358 52.6515C102.62 52.8552 102.941 52.9571 103.321 52.9571Z" fill="white"/>
<path d="M111.857 54.39C111.119 54.39 110.483 54.2372 109.946 53.9315C109.413 53.6226 109.003 53.1864 108.716 52.6228C108.428 52.056 108.285 51.3889 108.285 50.6215C108.285 49.8669 108.428 49.2045 108.716 48.6346C109.006 48.0614 109.412 47.6156 109.932 47.2972C110.452 46.9756 111.064 46.8148 111.766 46.8148C112.219 46.8148 112.647 46.888 113.049 47.0345C113.454 47.1778 113.812 47.4007 114.122 47.7032C114.434 48.0057 114.68 48.391 114.859 48.8591C115.038 49.324 115.127 49.878 115.127 50.5212V51.0514H109.099V49.886H113.466C113.462 49.5548 113.391 49.2603 113.25 49.0023C113.11 48.7412 112.913 48.5359 112.661 48.3862C112.412 48.2365 112.122 48.1617 111.79 48.1617C111.435 48.1617 111.124 48.2477 110.856 48.4196C110.588 48.5884 110.379 48.8113 110.229 49.0883C110.082 49.3622 110.007 49.6631 110.004 49.991V51.0084C110.004 51.4351 110.082 51.8013 110.238 52.107C110.395 52.4095 110.613 52.6419 110.894 52.8043C111.175 52.9635 111.504 53.0431 111.881 53.0431C112.133 53.0431 112.361 53.0081 112.565 52.938C112.77 52.8648 112.947 52.7581 113.097 52.618C113.247 52.4779 113.36 52.3044 113.437 52.0974L115.055 52.2789C114.953 52.7056 114.758 53.0781 114.471 53.3966C114.187 53.7118 113.823 53.957 113.379 54.1321C112.936 54.3041 112.428 54.39 111.857 54.39Z" fill="white"/>
<path d="M116.593 54.2468V46.9103H118.25V48.1569H118.336C118.49 47.7366 118.743 47.4087 119.098 47.173C119.452 46.9342 119.875 46.8148 120.366 46.8148C120.864 46.8148 121.284 46.9358 121.626 47.1778C121.97 47.4166 122.213 47.743 122.354 48.1569H122.43C122.593 47.7494 122.867 47.4246 123.254 47.1826C123.643 46.9374 124.104 46.8148 124.637 46.8148C125.314 46.8148 125.866 47.0281 126.294 47.4548C126.722 47.8815 126.936 48.504 126.936 49.3224V54.2468H125.198V49.5898C125.198 49.1345 125.076 48.8017 124.834 48.5916C124.591 48.3782 124.294 48.2716 123.943 48.2716C123.525 48.2716 123.198 48.4021 122.962 48.6632C122.729 48.9212 122.612 49.2571 122.612 49.671V54.2468H120.912V49.5182C120.912 49.1393 120.797 48.8368 120.568 48.6107C120.341 48.3846 120.044 48.2716 119.677 48.2716C119.428 48.2716 119.201 48.3353 118.997 48.4626C118.793 48.5868 118.63 48.7635 118.509 48.9928C118.387 49.2189 118.327 49.4832 118.327 49.7857V54.2468H116.593Z" fill="white"/>
<path d="M129.508 56.9979C129.272 56.9979 129.053 56.9788 128.852 56.9406C128.654 56.9056 128.496 56.8642 128.378 56.8164L128.78 55.4695C129.033 55.5427 129.258 55.5778 129.456 55.5746C129.653 55.5714 129.827 55.5093 129.977 55.3883C130.131 55.2705 130.26 55.0731 130.365 54.796L130.514 54.3996L127.847 46.9103H129.685L131.38 52.4509H131.457L133.157 46.9103H135L132.055 55.1351C131.918 55.5236 131.736 55.8564 131.51 56.1334C131.283 56.4136 131.005 56.627 130.676 56.7734C130.351 56.9231 129.961 56.9979 129.508 56.9979Z" fill="white"/>
</svg>
